<svg width="1312" height="268" viewBox="0 0 1312 268" fill="none" xmlns="http://www.w3.org/2000/svg">
<path d="M1292.55 94.5938C1293.08 94.5938 1311.47 95.1193 1312 95.1193V170.801C1264.17 170.801 1221.08 187.093 1221.08 244.905V367.887H1149.07V101.426H1221.08V120.346C1192.17 162.917 1197.95 192.874 1197.95 192.874C1210.57 145.574 1246.83 94.5938 1292.55 94.5938Z" fill="#331D0F"/>
<path d="M841.567 295.867L853.655 367.87H833.158C765.886 367.87 676.226 343.158 676.226 246.99V40.4429L748.228 0.5V101.408H818.128L832.338 172.36H748.228V238.055C748.228 295.867 797.152 295.867 841.567 295.867Z" fill="#331D0F"/>
<path d="M660.073 227.036V246.482H469.293C469.293 275.388 494.52 302.717 527.631 302.717C574.406 302.717 581.238 268.556 581.238 268.556H660.073C653.241 319.535 609.093 373.669 528.156 373.669C455.628 373.669 396.765 320.587 396.765 234.394C396.765 138.216 455.628 94.5938 528.156 94.5938C601.21 94.5938 660.073 153.983 660.073 227.036ZM469.819 224.408H580.187C580.187 190.772 559.69 167.122 525.003 167.122C490.841 167.122 469.819 192.874 469.819 224.408Z" fill="#331D0F"/>
<path d="M374.452 367.87H302.45V40.4429L374.452 0.5V367.87Z" fill="#331D0F"/>
<path d="M143.479 95.1172C232.3 95.1172 280.652 159.236 280.652 234.917V238.071C280.652 313.227 229.672 374.718 143.479 374.718C86.7183 374.718 43.622 328.993 30.4829 283.269C30.4829 283.269 28.3807 323.212 65.1702 354.221C69.3747 357.9 72.0025 363.681 72.0025 369.462V460.895L0.000155387 483.667L0 109.877L72.0025 95.1172V136.637C83.5649 118.768 109.318 95.1172 143.479 95.1172ZM141.903 302.715C178.692 302.715 208.124 272.758 208.124 236.494C208.124 199.705 178.692 169.747 141.903 169.747H137.698C103.536 169.747 75.6815 196.026 72.0025 229.662V243.326C75.6815 276.437 103.536 302.715 137.698 302.715H141.903Z" fill="#331D0F"/>
<path d="M990.539 0.5C1069.27 0.5 1132.9 64.6723 1132.9 143.405V144.483C1132.9 223.216 1069.27 286.849 990.539 286.849C911.267 286.849 847.634 223.216 847.634 144.483V143.405C847.634 64.6723 911.267 0.5 990.539 0.5ZM1058.49 144.483V143.405C1058.49 105.656 1027.75 75.4576 990.539 75.4576C952.791 75.4576 922.053 105.656 922.053 143.405V144.483C922.053 181.692 952.791 212.43 990.539 212.43C1027.75 212.43 1058.49 181.692 1058.49 144.483Z" fill="#331D0F"/>
<path d="M873.651 267.102C932.556 326.007 1044.88 329.101 1106.87 267.109L1096.79 346.139C1031.85 382.514 952.75 382.855 887.497 347.042L885.853 346.139L873.651 267.102Z" fill="#331D0F"/>
</svg>
