<svg xmlns="http://www.w3.org/2000/svg" id="svg" viewBox="71.48 325.93 259.31 235.35"><g id="svgg"><path id="path1" d="M195.741 326.807 C 187.326 330.775,187.134 343.062,195.430 346.731 L 197.037 347.442 197.037 352.938 L 197.037 358.433 194.907 358.683 C 176.514 360.841,162.087 368.535,148.340 383.519 C 139.598 393.047,132.610 409.055,131.646 421.759 L 131.386 425.185 126.156 425.190 C 123.279 425.193,120.570 425.291,120.135 425.408 C 119.478 425.584,119.195 425.322,118.468 423.860 C 113.435 413.745,98.187 416.964,98.158 428.148 C 98.129 439.936,113.221 443.483,118.644 432.963 L 119.503 431.296 125.298 431.194 C 131.961 431.077,131.278 430.626,131.623 435.370 C 132.106 442.006,134.415 449.447,137.865 455.482 L 139.444 458.246 139.686 448.845 C 140.330 423.755,149.907 404.148,167.453 391.996 L 170.185 390.104 172.778 391.301 C 177.135 393.313,186.353 395.178,191.963 395.182 L 195.222 395.185 192.671 392.130 C 189.629 388.486,185.926 383.214,185.926 382.527 C 185.927 382.119,192.560 379.259,193.506 379.259 C 193.663 379.259,195.656 381.051,197.935 383.241 C 205.916 390.908,213.590 396.219,223.572 400.985 C 226.278 402.277,228.564 403.333,228.654 403.333 C 228.744 403.333,228.496 402.487,228.103 401.453 C 227.340 399.445,224.074 387.803,224.074 387.092 C 224.074 386.146,225.374 386.848,230.811 390.730 C 251.200 405.283,260.173 422.624,260.713 448.519 L 260.926 458.704 261.925 457.037 C 265.990 450.258,267.225 446.167,269.196 432.963 L 269.444 431.296 275.080 431.194 L 280.716 431.092 281.485 432.600 C 287.003 443.416,302.255 440.109,302.214 428.105 C 302.177 417.371,286.889 413.758,282.036 423.336 L 281.156 425.072 278.078 425.312 C 274.952 425.555,269.259 425.644,269.259 425.449 C 269.259 425.390,269.021 423.432,268.730 421.097 C 264.710 388.857,239.092 363.069,206.901 358.857 L 203.333 358.390 203.333 352.970 L 203.333 347.550 204.728 346.934 C 211.565 343.918,213.200 334.204,207.767 328.879 C 204.829 325.999,199.427 325.068,195.741 326.807 M175.479 408.324 C 153.551 414.362,157.201 446.696,179.807 446.662 C 202.257 446.629,206.663 414.059,184.968 408.510 C 181.738 407.684,178.065 407.612,175.479 408.324 M215.000 408.478 C 200.816 412.609,196.693 430.056,207.377 440.735 C 221.538 454.886,244.122 441.811,239.135 422.348 C 236.534 412.195,224.998 405.566,215.000 408.478 M191.031 422.060 C 194.259 424.320,192.789 429.259,188.889 429.259 C 185.211 429.259,183.443 424.115,186.407 422.038 C 187.442 421.313,189.982 421.325,191.031 422.060 M213.496 421.843 C 214.800 422.339,215.722 424.368,215.407 426.048 C 214.689 429.873,209.430 430.421,207.928 426.826 C 206.504 423.417,209.823 420.447,213.496 421.843 M146.667 439.523 C 146.667 454.514,160.343 473.381,176.577 480.787 C 178.358 481.599,180.320 482.495,180.937 482.777 C 188.943 486.441,203.869 487.159,214.815 484.408 C 234.215 479.532,251.596 460.431,253.687 441.689 C 254.143 437.609,254.128 437.596,252.204 440.249 C 240.814 455.956,219.514 459.118,205.684 447.156 L 203.405 445.185 200.214 445.185 L 197.023 445.185 194.018 447.782 C 181.246 458.818,160.305 455.734,149.414 441.213 C 148.227 439.629,147.122 438.175,146.961 437.981 C 146.799 437.788,146.667 438.482,146.667 439.523 M143.717 459.141 C 143.704 462.841,143.723 462.926,144.722 463.631 C 146.065 464.578,149.754 466.431,149.526 466.044 C 149.428 465.877,148.634 464.574,147.762 463.148 C 146.890 461.722,145.626 459.389,144.954 457.963 L 143.730 455.370 143.717 459.141 M253.460 461.554 L 250.808 466.322 253.275 464.963 C 254.631 464.216,255.873 463.487,256.034 463.343 C 256.195 463.198,256.278 461.664,256.219 459.933 L 256.111 456.785 253.460 461.554 M191.481 467.041 C 197.354 470.961,203.248 470.824,209.915 466.614 C 213.103 464.600,214.850 468.133,211.982 470.794 C 206.165 476.191,193.737 475.922,188.063 470.278 C 184.930 467.162,187.714 464.527,191.481 467.041 M253.611 472.802 C 251.316 473.997,245.539 475.926,244.257 475.926 C 243.572 475.926,242.624 476.500,241.281 477.727 C 221.725 495.600,191.349 498.488,168.519 484.643 C 164.159 482.000,160.638 479.409,158.721 477.434 C 157.644 476.325,156.959 475.925,156.129 475.922 C 154.456 475.915,151.686 475.098,148.176 473.576 C 146.459 472.831,145.001 472.222,144.935 472.222 C 144.439 472.222,148.317 476.874,151.769 480.420 C 168.645 497.755,193.293 504.619,217.320 498.676 C 231.959 495.055,245.411 485.807,255.665 472.315 C 256.183 471.632,255.586 471.774,253.611 472.802 M301.111 536.128 L 301.111 561.144 305.741 561.088 L 310.370 561.032 310.370 555.516 C 310.370 552.482,310.495 550.010,310.648 550.021 C 310.801 550.033,312.825 552.533,315.147 555.577 L 319.368 561.111 325.099 561.111 C 330.651 561.111,330.815 561.089,330.323 560.412 C 329.509 559.291,322.937 551.211,320.048 547.778 C 316.917 544.058,316.917 544.108,320.000 541.305 C 321.324 540.100,324.292 537.333,326.596 535.154 L 330.784 531.194 326.411 530.193 C 324.005 529.643,321.698 529.116,321.285 529.021 C 320.709 528.890,319.432 529.942,315.855 533.499 C 313.283 536.056,310.997 538.148,310.775 538.148 C 310.490 538.148,310.370 534.150,310.370 524.630 L 310.370 511.111 305.741 511.111 L 301.111 511.111 301.111 536.128 M213.743 516.372 C 210.868 517.907,210.016 520.727,211.586 523.519 C 213.043 526.110,216.346 527.054,218.776 525.572 C 224.574 522.037,219.727 513.178,213.743 516.372 M255.926 515.952 C 250.394 518.264,251.856 526.296,257.808 526.296 C 264.331 526.296,264.749 516.394,258.255 515.712 C 257.483 515.631,256.435 515.739,255.926 515.952 M71.571 538.611 L 71.667 560.926 82.315 561.024 C 88.171 561.078,92.958 560.995,92.951 560.839 C 92.945 560.683,92.700 558.806,92.407 556.667 C 92.115 554.528,91.870 552.574,91.864 552.325 C 91.855 551.993,90.385 551.844,86.389 551.769 L 80.926 551.667 80.830 533.981 L 80.734 516.296 76.105 516.296 L 71.476 516.296 71.571 538.611 M228.519 538.704 L 228.519 561.111 238.148 561.111 L 247.778 561.111 247.778 558.758 C 247.778 557.464,247.671 555.385,247.541 554.139 L 247.304 551.873 242.634 551.770 L 237.963 551.667 237.867 533.981 L 237.771 516.296 233.145 516.296 L 228.519 516.296 228.519 538.704 M105.777 530.368 C 88.944 535.744,93.038 561.345,110.722 561.284 C 115.420 561.268,121.958 558.334,123.080 555.739 C 123.530 554.698,117.706 550.611,116.705 551.265 C 111.993 554.347,107.342 554.001,104.909 550.389 C 103.246 547.921,103.028 547.974,115.283 547.865 L 126.296 547.767 126.294 546.198 C 126.278 534.461,116.524 526.935,105.777 530.368 M131.111 545.370 L 131.111 561.111 135.556 561.111 L 140.000 561.111 140.000 550.954 L 140.000 540.798 140.948 539.671 C 142.143 538.251,143.927 537.862,145.504 538.677 C 147.666 539.795,147.778 540.416,147.778 551.278 L 147.778 561.111 152.021 561.111 L 156.263 561.111 156.372 550.710 L 156.481 540.309 157.691 539.228 C 159.126 537.947,160.372 537.860,162.091 538.922 C 164.043 540.129,164.074 540.320,164.074 551.087 L 164.074 561.111 168.333 561.111 L 172.593 561.111 172.593 550.889 L 172.593 540.667 173.899 539.361 C 175.520 537.739,177.261 537.829,179.056 539.628 L 180.185 540.761 180.185 550.843 L 180.185 560.926 184.352 561.031 L 188.519 561.135 188.519 551.482 C 188.519 540.581,188.680 539.700,190.866 538.658 C 192.462 537.896,193.805 538.192,195.233 539.620 L 196.296 540.684 196.296 550.909 L 196.296 561.135 200.648 561.030 L 205.000 560.926 205.103 551.852 C 205.251 538.810,204.413 535.204,200.466 531.900 C 196.706 528.753,190.578 528.880,187.145 532.178 C 186.115 533.167,186.086 533.164,184.683 531.980 C 182.750 530.348,180.785 529.646,178.148 529.646 C 175.512 529.646,173.546 530.348,171.613 531.980 C 170.121 533.239,169.862 533.219,168.099 531.710 C 164.651 528.759,159.230 528.996,155.120 532.276 L 154.128 533.067 152.623 531.778 C 149.132 528.790,143.890 528.903,139.757 532.056 C 138.187 533.253,138.148 533.235,138.148 531.296 L 138.148 529.630 134.630 529.630 L 131.111 529.630 131.111 545.370 M269.259 545.370 L 269.259 561.111 273.519 561.111 L 277.778 561.111 277.778 551.272 C 277.778 541.079,277.855 540.499,279.386 539.157 C 281.072 537.679,283.846 538.130,285.331 540.123 C 286.079 541.128,286.111 541.582,286.111 551.049 L 286.111 560.926 290.556 560.926 L 295.000 560.926 295.104 552.222 C 295.257 539.495,294.683 536.244,291.641 532.629 C 288.638 529.060,282.765 528.651,278.502 531.714 C 276.512 533.144,276.302 533.076,276.569 531.088 L 276.764 529.630 273.012 529.630 L 269.259 529.630 269.259 545.370 M211.481 545.567 L 211.481 561.134 216.019 561.030 L 220.556 560.926 220.652 545.463 L 220.749 530.000 216.115 530.000 L 211.481 530.000 211.481 545.567 M253.333 545.556 L 253.333 561.111 257.778 561.111 L 262.222 561.111 262.222 545.556 L 262.222 530.000 257.778 530.000 L 253.333 530.000 253.333 545.556 M113.630 537.560 C 114.919 538.233,116.514 539.954,116.835 541.019 L 117.087 541.852 110.827 541.852 C 103.664 541.852,103.790 541.895,105.108 539.903 C 106.776 537.382,111.044 536.209,113.630 537.560 " stroke="none" fill="#DD0740" fill-rule="evenodd"></path></g></svg>