<svg width="238" height="102" viewBox="0 0 238 102" fill="none" xmlns="http://www.w3.org/2000/svg">
<path d="M45.8925 101.441C35.2925 101.441 24.8325 97.3211 17.0025 89.4911L16.6925 89.1811C-4.27747 68.2111 -4.27747 34.0811 16.6925 13.1011C28.9325 0.861139 47.6425 -2.31886 63.2325 5.18114L90.9625 18.5111C108.703 27.0411 129.033 27.0111 146.763 18.4611L174.863 4.89114C190.483 -2.63886 209.213 0.521137 221.463 12.7911C242.753 34.0811 242.753 68.2011 221.773 89.1811C209.533 101.421 190.833 104.601 175.233 97.1011L147.503 83.7711C129.763 75.2411 109.433 75.2611 91.7025 83.8211L63.6025 97.3811C57.9525 100.111 51.8925 101.431 45.8925 101.431V101.441ZM29.8225 76.0111L30.1225 76.3111C36.8225 83.0111 47.0225 84.7511 55.5225 80.6411L83.6225 67.0811C106.473 56.0411 132.693 56.0311 155.563 67.0211L183.293 80.3511C191.783 84.4311 201.973 82.6911 208.633 76.0311C222.363 62.3111 222.363 39.9711 208.633 26.2511C201.643 19.2711 191.453 17.5411 182.953 21.6411L154.853 35.2011C132.003 46.2311 105.783 46.2611 82.9125 35.2611L55.1825 21.9311C46.6825 17.8411 36.5025 19.5811 29.8425 26.2411C23.1925 32.8911 19.5325 41.7311 19.5325 51.1311C19.5325 60.5311 23.1825 69.3611 29.8225 76.0011V76.0111Z" fill="#34D16C"/>
</svg>
