<?xml version="1.0" encoding="UTF-8"?> <svg xmlns="http://www.w3.org/2000/svg" xmlns:xlink="http://www.w3.org/1999/xlink" viewBox="0 0 916.13 361.53"><defs><style>.cls-1{fill:#66f;}.cls-2{fill:url(#Dégradé_sans_nom_27);}.cls-3{fill:#f88;}</style><linearGradient id="Dégradé_sans_nom_27" x1="382.15" y1="45.01" x2="382.15" y2="351.47" gradientUnits="userSpaceOnUse"><stop offset="0" stop-color="#66f"></stop><stop offset="0.24" stop-color="#9871d8"></stop><stop offset="0.48" stop-color="#c47bb6"></stop><stop offset="0.69" stop-color="#e4829d"></stop><stop offset="0.88" stop-color="#f8868d"></stop><stop offset="1" stop-color="#f88"></stop></linearGradient></defs><g id="Calque_2" data-name="Calque 2"><g id="Calque_1-2" data-name="Calque 1"><path class="cls-1" d="M0,50.2H32V62.91c13.68-15.32,29.33-16.3,37.16-16.3,25.42,0,36.18,12.72,40.41,18.58,5.22,7.5,8.48,17,8.48,38.14v84.1H86.06V111.15C86.06,76.28,73,75.3,61,75.3c-14.35,0-29,2-29,46.29v65.84H0Z"></path><path class="cls-1" d="M301.85,122.57c0-14.35-1.64-39.78-19.24-58-8.15-8.47-22.16-17.92-44-17.92-19.56,0-34.55,7.16-46,18.57-14.34,14.68-21.84,35.2-21.84,56.39,0,20.54,7.17,39.45,20.21,52.49a61.8,61.8,0,0,0,8.82,7.36c6.46-1.63,17.67-6.22,31.66-19.06a29.11,29.11,0,0,1-16.36-8.19c-6.84-6.85-11.08-17.92-11.73-27.7h98.44Zm-96.16-22.18c1.63-6.84,5.21-13.36,9.77-17.6C219.7,78.56,226.87,74,238,74c10.43,0,17.28,3.92,21.51,7.83a33.15,33.15,0,0,1,9.78,18.57Z"></path><path class="cls-2" d="M387.58,79.54V345.37a16,16,0,0,1-16,16h0a16,16,0,0,1-16-16V79.54H342.27V50.2h13.36V16a16,16,0,0,1,16-16h0a16,16,0,0,1,16,16V50.2h19.79A14.66,14.66,0,0,1,422,64.87h0a14.66,14.66,0,0,1-14.66,14.67Z"></path><path class="cls-3" d="M271.8,296.71H204.07c.65,9.72,4.86,20.74,11.67,27.55,7.45,7.45,16.53,8.75,24.31,8.75,8.75,0,15.23-1.94,21.71-6.81a43.23,43.23,0,0,0,5.74-5.29,15.1,15.1,0,0,1,18.58-3.06h0a15.12,15.12,0,0,1,3.58,23.62A62.63,62.63,0,0,1,278,351.16c-11,7.13-25.61,10.37-40.19,10.37-18.15,0-33.06-4.54-46-17.5s-20.09-31.76-20.09-52.18c0-21.07,7.45-41.49,21.71-56.07,11.35-11.34,26.26-18.48,45.7-18.48,21.72,0,37.32,9.44,45,18.23,6.82,7.8,11.06,17.4,13.7,26.66A27.06,27.06,0,0,1,271.8,296.71Zm-6.59-25.93a3.42,3.42,0,0,0,3.25-4.45,32.27,32.27,0,0,0-8.64-14c-4.22-3.89-11-7.78-21.4-7.78-11,0-18.15,4.54-22.36,8.75a31.76,31.76,0,0,0-6.09,8,6.45,6.45,0,0,0,5.71,9.47Z"></path><path class="cls-3" d="M468.21,121h0a15.89,15.89,0,0,1,15.88,15.89v67.53a15.83,15.83,0,0,0,20.5,15.19,52.61,52.61,0,0,1,16.12-2.35c25,0,36.3,13,40.19,18.48,8.43,12.31,8.75,28.2,8.75,37.92v71.63a15.88,15.88,0,0,1-15.88,15.88h0a15.88,15.88,0,0,1-15.88-15.88V276.62c0-8.11,0-16.86-6.16-23.66-3.56-3.89-9.72-7.13-17.82-7.13-10.7,0-19.13,5.18-23.34,11.34-4.54,6.48-6.48,16.85-6.48,34.35v53.81a15.88,15.88,0,0,1-15.88,15.88h0a15.88,15.88,0,0,1-15.88-15.88V136.93A15.89,15.89,0,0,1,468.21,121Z"></path><path class="cls-3" d="M648.86,144.36a19.68,19.68,0,0,1,16.42,16.42,20.84,20.84,0,0,1-23.81,23.81,19.67,19.67,0,0,1-16.42-16.42A20.83,20.83,0,0,1,648.86,144.36ZM661,236.75V345.33a15.88,15.88,0,0,1-15.88,15.88h0a15.88,15.88,0,0,1-15.88-15.88V236.75a15.88,15.88,0,0,1,15.88-15.88h0A15.88,15.88,0,0,1,661,236.75Z"></path><path class="cls-3" d="M826.33,236.37a14.22,14.22,0,0,1-19.68,13.08,50.14,50.14,0,0,0-18.89-3.62c-14.91,0-24.3,6.15-30.14,12S746,274,746,289.26c0,15.88,6.16,26.57,12.32,32.73,7.13,6.81,17.18,11,28.85,11a53.14,53.14,0,0,0,19.76-3.9,14.19,14.19,0,0,1,19.45,13.2h0a14.25,14.25,0,0,1-8.59,13.06c-7.69,3.35-18.26,6.16-32.89,6.16-22.69,0-38.9-6.48-51.86-20.09-9.72-10.05-19.45-26.26-19.45-51.21,0-25.61,10.7-42.78,20.75-52.83,10.69-10.7,27.87-20.1,54.77-20.1a72.41,72.41,0,0,1,28.62,5.53,14.12,14.12,0,0,1,8.65,13.08Z"></path><path class="cls-3" d="M899.43,321a19.68,19.68,0,0,1,16.42,16.42A20.84,20.84,0,0,1,892,361.25a19.67,19.67,0,0,1-16.42-16.42A20.83,20.83,0,0,1,899.43,321Z"></path><path class="cls-3" d="M216.89,188.87s22.85,1,53.7-37.1A16,16,0,0,1,290.81,148h0a16,16,0,0,1,3.93,24.84C282.9,185.73,259.55,199.76,216.89,188.87Z"></path></g></g></svg> 