<svg xmlns="http://www.w3.org/2000/svg" viewBox="0 0 827.56 136.53"><defs><style>.cls-1{fill:#fff;}.cls-2{fill:none;}.cls-3{fill:#ff7445;}.cls-4{fill:#f9896e;}</style></defs><g id="Calque_2" data-name="Calque 2"><g id="logo_vectorisé" data-name="logo vectorisé"><path class="cls-1" d="M266.16,93.76v17.16H194.62V18.52h69.83V35.68H215.87V55.74h42.9V72.38h-42.9V93.76Z"/><path class="cls-1" d="M278.44,13H299v98H278.44Z"/><path class="cls-1" d="M384,81.22H330.32a16.69,16.69,0,0,0,6.86,10.43q5.42,3.82,13.46,3.82a27.29,27.29,0,0,0,9.84-1.64,23.72,23.72,0,0,0,8-5.22l11,11.88q-10,11.49-29.3,11.48a46.43,46.43,0,0,1-21.26-4.68,34.31,34.31,0,0,1-14.25-13,35.8,35.8,0,0,1-5-18.88,36.3,36.3,0,0,1,5-18.81,34.68,34.68,0,0,1,13.6-13.07,42.1,42.1,0,0,1,38.21-.19,32.8,32.8,0,0,1,13.27,12.87,38.35,38.35,0,0,1,4.81,19.47C384.43,75.94,384.3,77.79,384,81.22ZM335.86,58.38a16.84,16.84,0,0,0-5.81,10.83h35a17,17,0,0,0-5.81-10.76,17.36,17.36,0,0,0-11.61-4A17.73,17.73,0,0,0,335.86,58.38Z"/><path class="cls-1" d="M454.86,43.4a32.74,32.74,0,0,1,12.73,12.81,38.64,38.64,0,0,1,4.62,19.2,38.66,38.66,0,0,1-4.62,19.21,32.64,32.64,0,0,1-12.73,12.8,36.18,36.18,0,0,1-18,4.55q-13.6,0-21.39-8.58v33.14H394.86V39.9h19.67v8.19q7.65-9.24,22.31-9.24A36.28,36.28,0,0,1,454.86,43.4Zm-8.58,46.33q5.07-5.34,5.08-14.32t-5.08-14.32a18.48,18.48,0,0,0-26,0q-5.08,5.34-5.08,14.32t5.08,14.32a18.48,18.48,0,0,0,26,0Z"/><path class="cls-1" d="M547.12,46.77q8.11,7.92,8.12,23.49v40.66H534.65V73.43q0-8.45-3.7-12.6t-10.69-4.16q-7.78,0-12.41,4.82t-4.62,14.32v35.11H482.64V13h20.59V47.3a27.37,27.37,0,0,1,9.9-6.27,35.64,35.64,0,0,1,12.67-2.18Q539,38.85,547.12,46.77Z"/><path class="cls-1" d="M585,107.29a34.75,34.75,0,0,1-13.93-13,35.8,35.8,0,0,1-5-18.88,35.74,35.74,0,0,1,5-18.87,34.77,34.77,0,0,1,13.93-13,45.48,45.48,0,0,1,40.19,0,35,35,0,0,1,13.86,13,35.83,35.83,0,0,1,5,18.87,35.89,35.89,0,0,1-5,18.88,35,35,0,0,1-13.86,13,45.48,45.48,0,0,1-40.19,0Zm33.13-17.56q5.07-5.34,5.08-14.32t-5.08-14.32a17.17,17.17,0,0,0-13-5.35,17.37,17.37,0,0,0-13.07,5.35q-5.15,5.34-5.15,14.32t5.15,14.32a17.33,17.33,0,0,0,13.07,5.35A17.13,17.13,0,0,0,618.14,89.73Z"/><path class="cls-1" d="M684.14,41.49a37,37,0,0,1,14.45-2.64v19c-2.29-.17-3.83-.26-4.62-.26q-8.85,0-13.86,4.95t-5,14.85v33.53H654.5v-71h19.67v9.38A22.83,22.83,0,0,1,684.14,41.49Z"/><path class="cls-1" d="M819.7,46.7q7.86,7.86,7.86,23.56v40.66H807V73.43q0-8.45-3.49-12.6t-10-4.16q-7.26,0-11.48,4.68t-4.23,13.93v35.64H757.2V73.43q0-16.76-13.47-16.76-7.12,0-11.35,4.68t-4.22,13.93v35.64H707.57v-71h19.66v8.19a26.11,26.11,0,0,1,9.71-6.87,32.73,32.73,0,0,1,12.6-2.37,30.54,30.54,0,0,1,13.6,3,24.12,24.12,0,0,1,9.77,8.64,29.16,29.16,0,0,1,11-8.58,34.8,34.8,0,0,1,14.59-3Q811.84,38.85,819.7,46.7Z"/><path class="cls-2" d="M77.62,113a27.6,27.6,0,0,0-5,6A27.6,27.6,0,0,1,77.62,113Z"/><path class="cls-2" d="M87.84,107.1a27.33,27.33,0,0,1,4-.92A27.33,27.33,0,0,0,87.84,107.1Z"/><path class="cls-2" d="M81.81,109.82a27.86,27.86,0,0,1,4.76-2.3A27.86,27.86,0,0,0,81.81,109.82Z"/><path class="cls-2" d="M77.62,113a26.79,26.79,0,0,1,4.19-3.14A26.79,26.79,0,0,0,77.62,113Z"/><path class="cls-2" d="M95.94,105.87a28.35,28.35,0,0,0-4.15.31,28.35,28.35,0,0,1,4.15-.31Z"/><path class="cls-3" d="M94.16,115.81a17.53,17.53,0,0,1,1.78-.09h0A17.53,17.53,0,0,0,94.16,115.81Z"/><path class="cls-3" d="M82.51,122.06a17.54,17.54,0,0,1,2.36-2.36A17.54,17.54,0,0,0,82.51,122.06Z"/><path class="cls-3" d="M82.51,122.06a17.31,17.31,0,0,0-4,11.07v1.5h0v-1.5A17.31,17.31,0,0,1,82.51,122.06Z"/><path class="cls-3" d="M118.58,0h-90a22.22,22.22,0,0,0-15.3,6.13,18.53,18.53,0,0,1,4.19,1.8L73.17,40.62a18,18,0,0,1,0,31L17.51,104.3a18,18,0,0,1-9.1,2.51,16.93,16.93,0,0,1-2.13-.14v5.63a22.41,22.41,0,0,0,22.34,22.33H36.5V112.25a5.09,5.09,0,1,1,10.18,0v22.38h22v-1.5a27.07,27.07,0,0,1,3.29-13c.21-.39.43-.77.66-1.15a27.6,27.6,0,0,1,5-6,26.79,26.79,0,0,1,4.19-3.14,27.86,27.86,0,0,1,4.76-2.3c.42-.15.84-.29,1.27-.42a27.33,27.33,0,0,1,4-.92,28.35,28.35,0,0,1,4.15-.31h22.91v9.83H95.94a17.53,17.53,0,0,0-1.78.09c-.58.06-1.16.15-1.73.26a17.9,17.9,0,0,0-3.26,1,16.33,16.33,0,0,0-1.52.73,17.57,17.57,0,0,0-5.14,4.24,17.31,17.31,0,0,0-4,11.07v1.5h40.05a22.4,22.4,0,0,0,22.34-22.33v-90A22.4,22.4,0,0,0,118.58,0Zm.27,48.17a4.93,4.93,0,1,1,4.93-4.92A4.93,4.93,0,0,1,118.85,48.17Z"/><path class="cls-3" d="M92.43,116.07a17.9,17.9,0,0,0-3.26,1A17.9,17.9,0,0,1,92.43,116.07Z"/><path class="cls-3" d="M87.65,117.82a17.61,17.61,0,0,0-2.78,1.88A17.61,17.61,0,0,1,87.65,117.82Z"/><path class="cls-4" d="M68.33,48.87,12.66,16.18A8.38,8.38,0,0,0,8.41,15a8.48,8.48,0,0,0-.88.06,8.32,8.32,0,0,0-3.3,1.07A8.3,8.3,0,0,0,0,23.43V88.8a8.33,8.33,0,0,0,4.23,7.3,9,9,0,0,0,2.05.84,8.3,8.3,0,0,0,6.38-.89L68.33,63.36a8.41,8.41,0,0,0,0-14.49Z"/></g></g></svg>