<?xml version="1.0" encoding="UTF-8"?><svg id="logo1" xmlns="http://www.w3.org/2000/svg" viewBox="0 0 2297.47 548.49"><defs><style>.cls-1{fill:#e7630a;}.cls-2{fill:#2e4058;}</style></defs><path class="cls-2" d="m902.99,80h71.83v364.42h-67.6v-26.94c-17.96,20.07-44.89,32.22-82.39,32.22-72.36,0-126.23-57.57-126.23-132.04s53.87-132.04,126.23-132.04c34.86,0,60.21,10.04,78.17,27.46V80Zm1.06,237.67c0-39.61-23.24-68.66-66.55-68.66-39.08,0-66.02,29.05-66.02,68.66s26.94,68.13,66.02,68.13c43.31,0,66.55-28.52,66.55-68.13Z"/><path class="cls-2" d="m1225.69,190.91h68.13v253.51h-68.13v-26.41c-17.96,20.07-44.89,31.69-81.86,31.69-72.36,0-126.23-57.57-126.23-132.04s53.87-132.04,126.23-132.04c36.97,0,63.91,11.62,81.86,31.69v-26.41Zm-2.64,126.76c0-39.61-23.24-68.66-66.55-68.66-39.08,0-66.02,29.05-66.02,68.66s26.94,68.13,66.02,68.13c43.31,0,66.55-28.52,66.55-68.13Z"/><path class="cls-2" d="m1330.79,411.68l33.27-49.12c22.71,17.96,50.17,28.52,79.22,28.52,22.71,0,34.86-7.92,34.86-21.13,0-10.56-7.39-15.84-31.16-21.13l-30.11-6.87c-45.95-9.51-76.05-33.8-76.05-75.53,0-47.53,40.14-80.81,97.18-80.81,39.08,0,76.58,12.68,99.82,29.58l-26.94,50.7c-20.6-14.79-46.48-22.71-74.47-22.71-19.01,0-28.52,7.92-28.52,18.49,0,11.09,10.04,16.37,32.75,21.13l27.46,5.81c50.17,10.56,77.11,33.27,77.11,76.58,0,49.65-39.61,84.5-104.05,84.5-43.31,0-87.67-18.49-110.38-38.03Z"/><path class="cls-2" d="m1764.93,427c-16.37,13.2-43.84,20.07-69.19,20.07-59.15,0-92.43-34.86-92.43-94.01v-102.99h-44.36v-59.15h15.84c21.13,0,28.52-7.39,28.52-29.05v-39.08h71.83v68.13h78.69v59.15h-78.69v97.71c0,24.82,14.79,34.86,33.8,34.86,11.62,0,21.13-3.7,27.46-8.45l28.52,52.82Z"/><path class="cls-2" d="m1952.94,189.33v66.02c-7.39-1.58-19.01-2.11-23.77-2.11-42.78,0-64.96,16.9-64.96,65.49v125.7h-71.83v-253.51h68.13v27.46c17.96-20.07,43.31-30.11,74.47-30.11,5.81,0,12.15.53,17.96,1.06Z"/><path class="cls-2" d="m2175.3,190.91h68.13v253.51h-68.13v-26.41c-17.96,20.07-44.89,31.69-81.86,31.69-72.36,0-126.23-57.57-126.23-132.04s53.87-132.04,126.23-132.04c36.97,0,63.91,11.62,81.86,31.69v-26.41Zm-2.64,126.76c0-39.61-23.24-68.66-66.55-68.66-39.08,0-66.02,29.05-66.02,68.66s26.94,68.13,66.02,68.13c43.31,0,66.55-28.52,66.55-68.13Z"/><path class="cls-1" d="m584.14,427.13L359.45,60.83c-19.28-31.42-64.93-31.44-84.23-.03L50.35,426.73c-20.22,32.91,3.43,75.26,42.06,75.29l449.56.36c38.65.03,62.37-42.31,42.16-75.26Zm-358.2-147.65c11.71,0,24.92-1.77,38.22-7.06,26.65-10.62,36.92-20.35,52.46-35.08,6.08-5.77,12.98-12.3,22.44-20.44,12.32-10.6,37.21-8.1,49.12-5.62l41.95,68.38c-41.58-1.19-72.09,3.64-90.71,14.36-15.46,8.91-29.95,21.02-39.43,26.63-37.33,22.11-53.79,23.93-63.68,25.64-28.86,4.97-57.1,5.61-74.62,3.13l44.03-71.65c5.88.98,12.74,1.7,20.22,1.7Zm80.94-166.32c4.84-7.88,16.29-7.87,21.12,0l36.24,59.09c-20.17.53-37.09,6.23-49.24,16.69-10.12,8.72-17.68,15.87-23.74,21.62-14.62,13.86-20.68,19.59-40.75,27.59-7.88,3.14-15.89,4.32-23.18,4.45l79.55-129.45Zm201.8,330.67l-382.67-.31c-9.69,0-15.62-10.63-10.55-18.88l23.21-33.71c8.74,1.91,31.45,4.22,55.43,4.22,16.38,0,34.86-1.65,53.45-6.61,38.83-10.36,53.78-22.47,77.79-37.45,15.5-9.67,19.56-10.03,34.33-18.55,7.14-4.11,25.99-10.8,72.07-9.37,8.69.27,16.98.8,24.3,1.4l63.22,100.39c5.07,8.26-.88,18.88-10.57,18.87Z"/></svg>