<svg xmlns="http://www.w3.org/2000/svg" width="512" height="92" viewBox="0 0 512 92" fill="none"><g clip-path="url(#clip0_3430_63)"><path d="M83.6818 36.7682C95.5087 35.6821 101.952 35.2166 105.664 30.3872C107.938 26.5082 108.317 20.486 109.483 11.0115V0.402344H72.9823C62.9047 0.402344 54.7319 8.57739 54.7319 18.6629C54.7416 8.57739 46.5785 0.402344 36.5009 0.402344H0V73.4541H36.5009C46.5785 73.4541 54.7513 81.6292 54.7513 91.7146C54.7513 81.6292 62.9242 73.4541 73.0017 73.4541H109.503V62.5153C108.609 52.8662 108.142 46.8052 105.353 42.8971C101.631 38.475 95.3337 38.1744 83.6916 36.7682H83.6818Z" fill="#32C4C0"></path><path d="M114.225 19.429C113.438 25.81 113.186 29.8636 111.65 32.4819C109.143 35.7306 104.809 36.0409 96.8398 36.7779C104.682 37.7283 108.919 37.9319 111.427 40.9091C113.302 43.5468 113.623 47.6198 114.225 54.1269C115.246 45.6997 115.411 41.4424 119.114 39.0181C121.747 37.7477 125.673 37.4761 131.611 36.7779C124.254 35.876 119.988 35.6724 117.442 33.4323C115.294 30.8721 115.061 26.6343 114.225 19.4387V19.429Z" fill="#32C4C0"></path></g><path d="M500.379 15.8401C501.682 14.5366 503.299 13.8848 505.23 13.8848C507.16 13.8848 508.764 14.5366 510.043 15.8401C511.346 17.1186 511.998 18.723 511.998 20.6533C511.998 22.5836 511.346 24.2006 510.043 25.5041C508.764 26.7827 507.16 27.4219 505.23 27.4219C503.299 27.4219 501.682 26.7827 500.379 25.5041C499.1 24.2006 498.461 22.5836 498.461 20.6533C498.461 18.723 499.1 17.1186 500.379 15.8401ZM501.131 24.7521C502.234 25.8551 503.6 26.4066 505.23 26.4066C506.859 26.4066 508.213 25.8551 509.291 24.7521C510.394 23.6491 510.945 22.2828 510.945 20.6533C510.945 18.9988 510.394 17.62 509.291 16.517C508.213 15.414 506.859 14.8624 505.23 14.8624C503.6 14.8624 502.234 15.414 501.131 16.517C500.053 17.62 499.514 18.9988 499.514 20.6533C499.514 22.2828 500.053 23.6491 501.131 24.7521ZM506.809 22.4207C507.185 22.9471 507.611 23.2104 508.087 23.2104H508.426V24.0376H508.012C507.11 24.0376 506.42 23.624 505.944 22.7967L504.741 21.067H504.139V24.0376H503.199V16.705H505.794C506.42 16.705 506.947 16.9181 507.373 17.3443C507.799 17.7704 508.012 18.2843 508.012 18.886C508.012 19.4876 507.799 20.0015 507.373 20.4277C506.972 20.8288 506.47 21.0419 505.869 21.067L506.809 22.4207ZM504.139 17.5699V20.2397H505.756C506.132 20.2397 506.445 20.1144 506.696 19.8637C506.947 19.613 507.072 19.2871 507.072 18.886C507.072 18.51 506.947 18.1966 506.696 17.9459C506.445 17.6952 506.132 17.5699 505.756 17.5699H504.139Z" fill="white"></path><path d="M176.19 33.2774H164.683V54.5554C164.683 56.6254 165.292 58.2387 166.51 59.3955C167.727 60.5522 169.402 61.1306 171.532 61.1306H176.19V70.5367H170.071C165.018 70.5367 161.152 69.3191 158.473 66.8839C155.795 64.3877 154.455 60.8262 154.455 56.1992V33.2774H146.602V23.9625H151.35C153.786 23.9625 155.003 22.7449 155.003 20.3097V11.3601H164.683V23.9625H176.19V33.2774Z" fill="white"></path><path d="M226.852 47.341C226.852 48.8021 226.761 50.0806 226.578 51.1765H188.04C188.771 54.5858 190.415 57.3255 192.972 59.3955C195.59 61.4045 198.725 62.4091 202.378 62.4091C204.996 62.4091 207.401 61.8612 209.592 60.7653C211.845 59.6694 213.58 58.2083 214.798 56.3818H226.122C224.234 61.0088 221.129 64.7226 216.807 67.5231C212.545 70.2628 207.675 71.6326 202.195 71.6326C195.011 71.6326 189.014 69.3191 184.205 64.6921C179.456 60.0043 177.082 54.1901 177.082 47.2496C177.082 40.3092 179.456 34.5254 184.205 29.8985C188.954 25.2106 194.859 22.8667 201.921 22.8667C209.044 22.8667 214.98 25.2106 219.729 29.8985C224.478 34.5254 226.852 40.3396 226.852 47.341ZM210.688 35.0125C208.192 33.0643 205.27 32.0902 201.921 32.0902C198.573 32.0902 195.651 33.0643 193.154 35.0125C190.658 36.9607 188.984 39.5481 188.132 42.7749H215.802C214.95 39.5481 213.245 36.9607 210.688 35.0125Z" fill="white"></path><path d="M282.404 60.674H283.226V70.5367H280.303C273.667 70.5367 269.68 67.9189 268.34 62.6831C264.261 68.6494 258.66 71.6326 251.537 71.6326C244.962 71.6326 239.482 69.3191 235.099 64.6921C230.776 60.0043 228.615 54.1901 228.615 47.2496C228.615 40.3092 230.776 34.5254 235.099 29.8985C239.482 25.2106 244.962 22.8667 251.537 22.8667C258.356 22.8667 263.805 25.6368 267.884 31.177V23.9625H278.112V56.3818C278.112 57.7212 278.477 58.7867 279.208 59.5781C279.999 60.3087 281.064 60.674 282.404 60.674ZM253.546 61.7698C257.625 61.7698 261.034 60.4 263.774 57.6603C266.514 54.8598 267.884 51.3896 267.884 47.2496C267.884 43.1097 266.514 39.6699 263.774 36.9303C261.034 34.1297 257.625 32.7294 253.546 32.7294C249.406 32.7294 245.966 34.1297 243.227 36.9303C240.487 39.6699 239.117 43.1097 239.117 47.2496C239.117 51.3896 240.487 54.8598 243.227 57.6603C245.966 60.4 249.406 61.7698 253.546 61.7698Z" fill="white"></path><path d="M308.638 71.6326C301.515 71.6326 295.579 69.3191 290.83 64.6921C286.082 60.0043 283.707 54.1901 283.707 47.2496C283.707 40.3092 286.082 34.5254 290.83 29.8985C295.579 25.2106 301.515 22.8667 308.638 22.8667C314.665 22.8667 319.901 24.6018 324.346 28.072C328.79 31.4814 331.621 35.9562 332.839 41.4964H321.971C320.875 38.8785 319.11 36.778 316.675 35.1951C314.3 33.5513 311.621 32.7294 308.638 32.7294C304.559 32.7294 301.119 34.1297 298.319 36.9303C295.579 39.6699 294.209 43.1097 294.209 47.2496C294.209 51.3896 295.579 54.8598 298.319 57.6603C301.119 60.4 304.559 61.7698 308.638 61.7698C311.621 61.7698 314.3 60.9784 316.675 59.3955C319.11 57.7517 320.875 55.6208 321.971 53.0029H332.839C331.621 58.5431 328.79 63.0483 324.346 66.5186C319.901 69.9279 314.665 71.6326 308.638 71.6326Z" fill="white"></path><path d="M386.031 60.674H386.944V70.5367H384.022C375.742 70.5367 371.602 66.5795 371.602 58.6649V44.6013C371.602 41.0093 370.536 38.1479 368.406 36.017C366.336 33.8253 363.535 32.7294 360.004 32.7294C356.29 32.7294 353.307 33.8557 351.054 36.1084C348.802 38.3001 347.675 41.1919 347.675 44.7839V70.5367H337.447V4.78491H347.675V30.7204C351.389 25.4846 356.625 22.8667 363.383 22.8667C368.923 22.8667 373.367 24.5409 376.716 27.8894C380.125 31.2378 381.83 35.6822 381.83 41.2224V56.3818C381.83 57.7212 382.195 58.7867 382.926 59.5781C383.656 60.3087 384.691 60.674 386.031 60.674Z" fill="white"></path><path d="M394.715 16.1088C392.888 16.1088 391.336 15.5 390.057 14.2824C388.84 13.0039 388.231 11.4514 388.231 9.62497C388.231 7.73765 388.84 6.18518 390.057 4.96755C391.336 3.74993 392.888 3.14111 394.715 3.14111C396.602 3.14111 398.155 3.74993 399.372 4.96755C400.651 6.18518 401.29 7.73765 401.29 9.62497C401.29 11.4514 400.651 13.0039 399.372 14.2824C398.155 15.5 396.602 16.1088 394.715 16.1088ZM389.601 70.5367V23.9625H399.829V70.5367H389.601Z" fill="white"></path><path d="M430.698 61.6785C437.151 61.6785 442.448 59.6999 446.588 55.7426V66.7012C442.265 69.9888 436.695 71.6326 429.876 71.6326C423.179 71.6326 417.517 69.8366 412.89 66.2446L407.959 71.176H405.584V59.3041L430.698 33.8253H405.95V23.9625H444.853V33.8253L419.831 59.1215C423.118 60.8262 426.741 61.6785 430.698 61.6785Z" fill="white"></path><path d="M482.526 23.9625H492.754V68.0711C492.754 74.3418 490.745 79.395 486.727 83.2305C482.709 87.066 477.534 88.9838 471.202 88.9838C465.966 88.9838 461.491 87.5835 457.778 84.783C454.125 82.0433 451.598 78.2687 450.198 73.459H460.7C461.674 75.3464 463.074 76.838 464.901 77.9338C466.727 79.0297 468.767 79.5776 471.019 79.5776C474.368 79.5776 477.108 78.5122 479.238 76.3814C481.43 74.3114 482.526 71.5108 482.526 67.9797V63.1397C478.995 68.0102 474.033 70.4454 467.64 70.4454C462.283 70.4454 457.96 68.8016 454.673 65.514C451.446 62.2264 449.833 57.8734 449.833 52.455V23.9625H460.061V49.4414C460.061 52.7898 461.035 55.4991 462.983 57.569C464.992 59.5781 467.64 60.5827 470.928 60.5827C474.398 60.5827 477.199 59.5477 479.33 57.4777C481.461 55.4077 482.526 52.6681 482.526 49.2587V23.9625Z" fill="white"></path><defs><clipPath id="clip0_3430_63"><rect width="131.611" height="91.322" fill="white" transform="translate(0 0.402344)"></rect></clipPath></defs></svg>