<svg xmlns="http://www.w3.org/2000/svg" xmlns:xlink="http://www.w3.org/1999/xlink" width="314.269" height="60.642" viewBox="0 0 314.269 60.642">
  <defs>
    <clipPath id="clip-path">
      <rect id="Rectangle_13958" data-name="Rectangle 13958" width="314.269" height="60.642" fill="none"/>
    </clipPath>
  </defs>
  <g id="Groupe_28823" data-name="Groupe 28823" transform="translate(0 0)">
    <g id="Groupe_28822" data-name="Groupe 28822" transform="translate(0 0)" clip-path="url(#clip-path)">
      <path id="Tracé_562" data-name="Tracé 562" d="M92.353,50.773V19.308h12.181a13.181,13.181,0,0,1,7.686,2.011,6.811,6.811,0,0,1,2.877,5.968,6.041,6.041,0,0,1-.584,2.652,7.175,7.175,0,0,1-1.585,2.146,8.283,8.283,0,0,1-2.236,1.495,8.572,8.572,0,0,1,4.1,2.989,8.065,8.065,0,0,1,1.562,4.967,8.464,8.464,0,0,1-1.4,4.877,9.18,9.18,0,0,1-3.989,3.214,15.048,15.048,0,0,1-6.136,1.146Zm7.462-18.564h3.709a5.539,5.539,0,0,0,2.326-.449,3.388,3.388,0,0,0,1.505-1.3,3.808,3.808,0,0,0,.529-2.045,3.254,3.254,0,0,0-1.158-2.674,5.119,5.119,0,0,0-3.315-.945h-3.6Zm0,13.058h3.933a5.678,5.678,0,0,0,3.642-.989,3.6,3.6,0,0,0,1.213-2.967,3.751,3.751,0,0,0-1.157-2.933,5,5,0,0,0-3.45-1.045h-4.18Z" transform="translate(-16.876 -3.528)" fill="#2846ad"/>
      <path id="Tracé_563" data-name="Tracé 563" d="M137.568,53.206a13.069,13.069,0,0,1-6.63-1.653,12.142,12.142,0,0,1-4.506-4.416,11.729,11.729,0,0,1-1.63-6.069,11.611,11.611,0,0,1,.932-4.6,12.141,12.141,0,0,1,2.641-3.889,12.561,12.561,0,0,1,4.046-2.674,14.092,14.092,0,0,1,11.777.674A12.069,12.069,0,0,1,148.693,35a11.946,11.946,0,0,1-1.933,14.542,12.8,12.8,0,0,1-4.045,2.675,13.073,13.073,0,0,1-5.146.989m0-6.338a5.68,5.68,0,0,0,2.831-.708,5.066,5.066,0,0,0,1.978-2.012,6.262,6.262,0,0,0,.72-3.079,6.34,6.34,0,0,0-.709-3.09,5.012,5.012,0,0,0-1.966-2,6.109,6.109,0,0,0-5.709,0,5.076,5.076,0,0,0-1.978,2,6.261,6.261,0,0,0-.719,3.09,6.186,6.186,0,0,0,.731,3.079,5.134,5.134,0,0,0,1.988,2.012,5.682,5.682,0,0,0,2.833.708" transform="translate(-22.806 -5.287)" fill="#2846ad"/>
      <path id="Tracé_564" data-name="Tracé 564" d="M157.2,28.291h5.124v5.843H157.2Zm12.631,23.6a8.18,8.18,0,0,1-6-2.146q-2.181-2.147-2.18-6.417v-21.6h7.372v6.563h5.372v5.843h-5.372v7.912a3.4,3.4,0,0,0,.809,2.584,2.969,2.969,0,0,0,2.091.741A5.756,5.756,0,0,0,173.3,45.2a4.83,4.83,0,0,0,1.27-.505l.944,5.776a11.916,11.916,0,0,1-2.54,1,11.616,11.616,0,0,1-3.146.416" transform="translate(-28.726 -3.97)" fill="#2846ad"/>
      <path id="Tracé_565" data-name="Tracé 565" d="M185.082,50.773V19.308h12.766a15.3,15.3,0,0,1,6.125,1.134,8.992,8.992,0,0,1,4.045,3.294,9.153,9.153,0,0,1,1.427,5.168,9.043,9.043,0,0,1-.877,4.079,8.255,8.255,0,0,1-2.4,2.933,10.762,10.762,0,0,1-3.461,1.753l8.473,13.1H202.32L195.308,39.2h-2.764V50.773Zm7.462-17.553h4.405A6.285,6.285,0,0,0,200.6,32.3a3.317,3.317,0,0,0,1.314-2.921,3.514,3.514,0,0,0-1.247-2.979,5.765,5.765,0,0,0-3.562-.955h-4.563Z" transform="translate(-33.821 -3.528)" fill="#2846ad"/>
      <path id="Tracé_566" data-name="Tracé 566" d="M230.453,53.206a11.16,11.16,0,0,1-5.8-1.518,10.832,10.832,0,0,1-4.045-4.247,13.144,13.144,0,0,1-1.483-6.372,13.871,13.871,0,0,1,.854-4.978,11.264,11.264,0,0,1,2.383-3.831,10.564,10.564,0,0,1,3.6-2.462,11.543,11.543,0,0,1,4.495-.865,10.185,10.185,0,0,1,5.439,1.382,7.813,7.813,0,0,1,3.214,3.674l-1.011,1.6V29.607h6.337V52.531H238.1V46.552l1.011,1.574a7.878,7.878,0,0,1-3.214,3.686,10.123,10.123,0,0,1-5.439,1.393m1.259-6.338a5.406,5.406,0,0,0,2.753-.708,5.127,5.127,0,0,0,1.944-2.012,6.975,6.975,0,0,0,0-6.17,5.143,5.143,0,0,0-1.944-2,5.406,5.406,0,0,0-2.753-.708,5.344,5.344,0,0,0-2.743.708,5.176,5.176,0,0,0-1.932,2,6.968,6.968,0,0,0,0,6.17,5.16,5.16,0,0,0,1.932,2.012,5.344,5.344,0,0,0,2.743.708" transform="translate(-40.042 -5.287)" fill="#2846ad"/>
      <path id="Tracé_567" data-name="Tracé 567" d="M256.857,52.531V29.607h7.372v2.427a7.652,7.652,0,0,1,3.034-2.36,9.38,9.38,0,0,1,3.686-.741,10.13,10.13,0,0,1,5.327,1.27,7.965,7.965,0,0,1,3.09,3.28,9.456,9.456,0,0,1,1,4.26V52.531h-7.372V40.058A4.645,4.645,0,0,0,271.9,36.8a4.125,4.125,0,0,0-3.2-1.191,4.565,4.565,0,0,0-2.348.584,4.057,4.057,0,0,0-1.563,1.651,5.166,5.166,0,0,0-.561,2.44V52.531Z" transform="translate(-46.937 -5.287)" fill="#2846ad"/>
      <path id="Tracé_568" data-name="Tracé 568" d="M292.139,50.571V18.208h7.372V35.244l6.9-7.6h8.54l-8.023,9.26,8.742,13.665h-8.72l-5.371-8.855-2.068,2.2v6.653Z" transform="translate(-53.384 -3.327)" fill="#2846ad"/>
      <path id="Tracé_569" data-name="Tracé 569" d="M327.748,56.688a4.756,4.756,0,0,1-3.2-1.17,3.958,3.958,0,0,1-1.361-3.169,4.1,4.1,0,0,1,2.282-3.82,4.892,4.892,0,0,1,2.281-.54,4.748,4.748,0,0,1,3.214,1.169,4,4,0,0,1,1.348,3.191,4.142,4.142,0,0,1-.63,2.314,4.26,4.26,0,0,1-1.663,1.5,4.923,4.923,0,0,1-2.27.528" transform="translate(-59.058 -8.769)" fill="#2846ad"/>
      <path id="Tracé_570" data-name="Tracé 570" d="M348.235,53.206a11.16,11.16,0,0,1-5.8-1.518,10.827,10.827,0,0,1-4.045-4.247,13.144,13.144,0,0,1-1.483-6.372,13.854,13.854,0,0,1,.854-4.978,11.274,11.274,0,0,1,2.382-3.831,10.575,10.575,0,0,1,3.6-2.462,11.537,11.537,0,0,1,4.495-.865,10.185,10.185,0,0,1,5.439,1.382,7.812,7.812,0,0,1,3.213,3.674l-1.011,1.6V29.607h6.338V52.531h-6.338V46.552l1.011,1.574a7.876,7.876,0,0,1-3.213,3.686,10.123,10.123,0,0,1-5.439,1.393m1.259-6.338a5.407,5.407,0,0,0,2.753-.708,5.138,5.138,0,0,0,1.944-2.012,6.982,6.982,0,0,0,0-6.17,5.154,5.154,0,0,0-1.944-2,5.407,5.407,0,0,0-2.753-.708,5.343,5.343,0,0,0-2.742.708,5.172,5.172,0,0,0-1.933,2,6.975,6.975,0,0,0,0,6.17,5.156,5.156,0,0,0,1.933,2.012,5.343,5.343,0,0,0,2.742.708" transform="translate(-61.565 -5.287)" fill="#2846ad"/>
      <path id="Tracé_571" data-name="Tracé 571" d="M378.163,23.772a4.638,4.638,0,0,1-3.091-1.112,3.731,3.731,0,0,1-1.315-3,3.7,3.7,0,0,1,1.315-2.989,4.9,4.9,0,0,1,6.192,0,3.708,3.708,0,0,1,1.3,2.989,3.744,3.744,0,0,1-1.3,3,4.626,4.626,0,0,1-3.1,1.112m-3.686,3.393h7.372V50.089h-7.372Z" transform="translate(-68.299 -2.845)" fill="#2846ad"/>
      <path id="Tracé_572" data-name="Tracé 572" d="M47.159,28.985h0a3.158,3.158,0,0,1,1.192-3.136A9.782,9.782,0,1,0,34.138,13.035a2.676,2.676,0,0,1-2.613,1.331l-.052-.006A2.757,2.757,0,0,1,29.059,12.1a14.642,14.642,0,0,0-28.928.565c-1.124,8.315,5.164,15.5,13.049,16.5a2.559,2.559,0,0,1,1.087,4.692,9.787,9.787,0,1,0,13.606,13.47,2.844,2.844,0,0,1,2.817-1.3l.049.007a2.894,2.894,0,0,1,2.422,2.386,14.642,14.642,0,1,0,16.565-16.9,3.1,3.1,0,0,1-2.566-2.525M30.843,18.836l.111.012a2.734,2.734,0,0,1,2.286,1.958,9.792,9.792,0,0,0,7.266,6.69,2.839,2.839,0,0,1,2.16,2.346,2.9,2.9,0,0,1-1.587,3.048,14.7,14.7,0,0,0-6.818,7.07,2.739,2.739,0,0,1-2.911,1.59l-.017,0a2.79,2.79,0,0,1-2.247-2.073A9.786,9.786,0,0,0,21.8,32.492a2.565,2.565,0,0,1-1.983-2.027,2.527,2.527,0,0,1,1.35-2.719,14.69,14.69,0,0,0,6.917-7.31,2.674,2.674,0,0,1,2.756-1.6" transform="translate(0 0)" fill="#2846ad"/>
    </g>
  </g>
</svg>
