<svg xmlns="http://www.w3.org/2000/svg" xmlns:xlink="http://www.w3.org/1999/xlink" width="139.707" height="31.831" viewBox="0 0 139.707 31.831">
  <defs>
    <clipPath id="clip-path">
      <path id="Tracé_94" data-name="Tracé 94" d="M13.878,0A13.879,13.879,0,1,0,27.757,13.879,13.879,13.879,0,0,0,13.878,0Z" transform="translate(0 0)" fill="none"/>
    </clipPath>
    <linearGradient id="linear-gradient" x1="0.5" y1="1.065" x2="0.5" y2="-0.098" gradientUnits="objectBoundingBox">
      <stop offset="0" stop-color="#c12e56"/>
      <stop offset="0.2" stop-color="#de264d"/>
      <stop offset="0.71" stop-color="#e5451a"/>
      <stop offset="1" stop-color="#e5451a"/>
    </linearGradient>
    <clipPath id="clip-path-2">
      <rect id="Rectangle_30" data-name="Rectangle 30" width="139.707" height="27.757" fill="#fff"/>
    </clipPath>
    <clipPath id="clip-path-3">
      <rect id="Rectangle_2078" data-name="Rectangle 2078" width="76.843" height="4.908" fill="#fff"/>
    </clipPath>
    <linearGradient id="linear-gradient-2" x1="0.619" y1="0.418" x2="-0.199" y2="1.262" gradientUnits="objectBoundingBox">
      <stop offset="0" stop-color="#fff"/>
      <stop offset="1" stop-color="#fff" stop-opacity="0"/>
    </linearGradient>
  </defs>
  <g id="Groupe_3789" data-name="Groupe 3789" transform="translate(-136.293 -114.085)">
    <g id="Groupe_3768" data-name="Groupe 3768" transform="translate(45.087 42.411)">
      <g id="Groupe_83" data-name="Groupe 83" transform="translate(91.206 71.673)">
        <g id="Groupe_63" data-name="Groupe 63" transform="translate(0)">
          <g id="Groupe_62" data-name="Groupe 62" clip-path="url(#clip-path)">
            <rect id="Rectangle_29" data-name="Rectangle 29" width="27.757" height="27.757" transform="translate(0 0)" fill="url(#linear-gradient)"/>
          </g>
        </g>
        <g id="Groupe_65" data-name="Groupe 65" transform="translate(0 0)">
          <g id="Groupe_64" data-name="Groupe 64" clip-path="url(#clip-path-2)">
            <path id="Tracé_95" data-name="Tracé 95" d="M17.192,7.28H11.274a3.743,3.743,0,0,0-2.666,1.1,4.791,4.791,0,0,0-1.435,2.7,3.366,3.366,0,0,0,.493,2.652,2.6,2.6,0,0,0,2.279,1.132h7.6c.35,0,1.139.152.9,1.519S17.351,17.907,17,17.907H8.479A2.279,2.279,0,0,0,6.2,20.186H16.591a3.794,3.794,0,0,0,2.689-1.117A4.763,4.763,0,0,0,20.687,16.4a3.435,3.435,0,0,0-.464-2.667A2.613,2.613,0,0,0,17.944,12.6h-7.6c-.349,0-1.139-.145-.9-1.519s1.094-1.52,1.443-1.52h8.152A2.278,2.278,0,0,0,21.317,7.28Z" transform="translate(0.121 0.142)" fill="#fff"/>
            <path id="Tracé_96" data-name="Tracé 96" d="M40.913,12.7c-1.732-.524-3.22-.973-3.22-2.37,0-.942.888-1.519,2.377-1.519a8.935,8.935,0,0,1,4.307,1.367l1.048-2.218a9.647,9.647,0,0,0-5.181-1.519c-3.289,0-5.408,1.626-5.408,4.14,0,2.947,2.492,3.677,4.695,4.323,1.763.509,3.274.949,3.274,2.386,0,1.123-1,1.762-2.734,1.762a7.692,7.692,0,0,1-4.976-2.142l-1.1,2.2a9.065,9.065,0,0,0,6.077,2.347,6.676,6.676,0,0,0,4.019-1.147,3.8,3.8,0,0,0,1.587-3.167c0-3.008-2.537-3.768-4.763-4.444" transform="translate(0.662 0.125)" fill="#fff"/>
            <path id="Tracé_97" data-name="Tracé 97" d="M52.063,9.925a8.2,8.2,0,0,0-4.847,1.42l1,1.717a5.886,5.886,0,0,1,3.289-1.1c1.71,0,2.652.76,2.652,2.226V14.5H50.818c-2.674,0-4.27,1.291-4.27,3.4a3.323,3.323,0,0,0,1.071,2.5,4.2,4.2,0,0,0,2.9,1.01,4.624,4.624,0,0,0,3.684-1.428V21.3h2.439V13.913c-.045-2.537-1.7-3.988-4.58-3.988m2.119,6.381v1.01c-.121,1.215-1.451,2.1-3.152,2.1-1.329,0-2.15-.63-2.15-1.64s.684-1.474,2.279-1.474Z" transform="translate(0.906 0.193)" fill="#fff"/>
            <path id="Tracé_98" data-name="Tracé 98" d="M61.38,12.159v-2.15H58.866V21.29h2.483V15.4a3.327,3.327,0,0,1,3.53-3.111l.063,0h.319V9.925a4.1,4.1,0,0,0-3.882,2.234" transform="translate(1.146 0.193)" fill="#fff"/>
            <path id="Tracé_99" data-name="Tracé 99" d="M72.78,10.008a4.416,4.416,0,0,0-3.9,1.96V5.663H66.406v15.71h2.476V19.5a4.454,4.454,0,0,0,3.935,1.96c3.2,0,5.318-2.28,5.318-5.683A5.988,5.988,0,0,0,76.616,11.6a5.2,5.2,0,0,0-3.836-1.6m2.879,5.683a3.4,3.4,0,1,1-6.776,0,3.4,3.4,0,1,1,6.776,0" transform="translate(1.293 0.11)" fill="#fff"/>
            <path id="Tracé_100" data-name="Tracé 100" d="M84.432,9.925a8.2,8.2,0,0,0-4.847,1.42l1,1.717a5.884,5.884,0,0,1,3.311-1.1c1.71,0,2.652.76,2.652,2.226V14.5H83.187c-2.674,0-4.27,1.291-4.27,3.4a3.323,3.323,0,0,0,1.071,2.5,4.2,4.2,0,0,0,2.9,1.01,4.626,4.626,0,0,0,3.693-1.443v1.321h2.439V13.9c-.046-2.522-1.679-3.973-4.589-3.973m2.119,6.381v1.01c-.121,1.215-1.451,2.1-3.152,2.1-1.322,0-2.15-.63-2.15-1.64s.691-1.474,2.279-1.474Z" transform="translate(1.536 0.193)" fill="#fff"/>
            <path id="Tracé_101" data-name="Tracé 101" d="M99.514,17.864h0a4.153,4.153,0,0,1-3.282,1.367,3.292,3.292,0,0,1-3.3-3.562,3.27,3.27,0,0,1,3.3-3.556h.084a4.21,4.21,0,0,1,3.1,1.254l1.367-1.6a5.96,5.96,0,0,0-4.664-1.846,5.584,5.584,0,0,0-4.094,1.6,5.7,5.7,0,0,0-1.587,4.147,5.431,5.431,0,0,0,5.144,5.7c.179.009.359.009.537,0a5.756,5.756,0,0,0,4.794-2.1L99.545,17.9Z" transform="translate(1.761 0.193)" fill="#fff"/>
            <path id="Tracé_102" data-name="Tracé 102" d="M107.16,9.925a8.186,8.186,0,0,0-4.839,1.42l1,1.717a5.883,5.883,0,0,1,3.327-1.1c1.71,0,2.652.76,2.652,2.226V14.5h-3.411c-2.674,0-4.269,1.291-4.269,3.4a3.318,3.318,0,0,0,1.07,2.5,4.2,4.2,0,0,0,2.9,1.01,4.641,4.641,0,0,0,3.684-1.428V21.3h2.438V13.913c-.014-2.537-1.678-3.988-4.557-3.988m2.127,6.381v1.01c-.129,1.215-1.459,2.1-3.16,2.1-1.321,0-2.142-.63-2.142-1.64s.684-1.474,2.279-1.474Z" transform="translate(1.979 0.193)" fill="#fff"/>
            <path id="Tracé_103" data-name="Tracé 103" d="M120.584,9.925a4.281,4.281,0,0,0-4.1,2.15V10.009H114v11.28h2.484V15.3a3.129,3.129,0,0,1,3.152-3.038,2.469,2.469,0,0,1,2.676,2.243,2.5,2.5,0,0,1,0,.454v6.335H124.8V14.278a4.457,4.457,0,0,0-1.116-3.183,4.146,4.146,0,0,0-3.1-1.17" transform="translate(2.22 0.193)" fill="#fff"/>
            <path id="Tracé_104" data-name="Tracé 104" d="M136.664,12.721a.06.06,0,0,1,0-.038,4.953,4.953,0,0,0-.486-.851l-.1-.137a3.413,3.413,0,0,0-.22-.319,4.121,4.121,0,0,0-.479-.4,5.855,5.855,0,0,0-9.178,4.182c-.007.168-.006.336,0,.506a5.431,5.431,0,0,0,5.766,5.7,6.358,6.358,0,0,0,.652-.061h.107a7.029,7.029,0,0,0,1.23-.235h.075a6.448,6.448,0,0,0,1.08-.44l.106-.061a6.088,6.088,0,0,0,.866-.6l.167-.152c.129-.114.266-.206.38-.327l-1.307-1.451a4.367,4.367,0,0,1-3.145,1.3,3.389,3.389,0,0,1-3.449-2.75h8.478a8.29,8.29,0,0,0-.546-3.867m-8.007,2.051a3.137,3.137,0,0,1,3.251-2.811,2.872,2.872,0,0,1,3.119,2.6c.006.072.01.145.011.217Zm7.14-3.35h0l-.068-.068Zm-.76-.653.053.038Z" transform="translate(2.457 0.193)" fill="#fff"/>
          </g>
        </g>
      </g>
    </g>
    <g id="Groupe_3770" data-name="Groupe 3770" transform="translate(199.156 141.007)" opacity="0.7">
      <g id="Groupe_3696" data-name="Groupe 3696" transform="translate(0 0)" clip-path="url(#clip-path-3)">
        <path id="Tracé_1964" data-name="Tracé 1964" d="M57.494,2.475V2.45a.421.421,0,0,0-.42-.42H55.982a.42.42,0,0,1-.42-.42V.519a.419.419,0,1,0-.839,0V1.905a.989.989,0,0,0,.989.99h1.362a.421.421,0,0,0,.42-.42" transform="translate(5.589 0.01)" fill="url(#linear-gradient-2)"/>
        <path id="Tracé_1965" data-name="Tracé 1965" d="M52.959,2.271V2.3a.421.421,0,0,0,.42.42h1.092a.42.42,0,0,1,.42.42V4.227a.419.419,0,1,0,.839,0V2.841a.989.989,0,0,0-.989-.99H53.379a.421.421,0,0,0-.42.42" transform="translate(5.409 0.189)" fill="#fff"/>
        <path id="Tracé_1966" data-name="Tracé 1966" d="M4.005,2.427a.321.321,0,0,1,.093.231V4.193a.322.322,0,0,1-.164.287,2.713,2.713,0,0,1-1.459.43,2.479,2.479,0,0,1-1.251-.327A2.428,2.428,0,0,1,0,2.454,2.425,2.425,0,0,1,1.223.327,2.468,2.468,0,0,1,2.474,0a2.86,2.86,0,0,1,.658.075A2.03,2.03,0,0,1,3.7.3a.345.345,0,0,1,.122.116.286.286,0,0,1,.041.15A.337.337,0,0,1,3.774.8a.293.293,0,0,1-.222.1A.322.322,0,0,1,3.375.852a2.139,2.139,0,0,0-.9-.2,1.737,1.737,0,0,0-1.536.893A1.815,1.815,0,0,0,.7,2.454a1.8,1.8,0,0,0,.236.91,1.768,1.768,0,0,0,.64.654,1.708,1.708,0,0,0,.9.242,2.271,2.271,0,0,0,.488-.055,1.907,1.907,0,0,0,.44-.143V2.979H2.577a.321.321,0,0,1-.231-.093.3.3,0,0,1-.1-.228.311.311,0,0,1,.1-.235.321.321,0,0,1,.231-.093h1.2a.3.3,0,0,1,.228.1" transform="translate(0 0)" fill="#fff"/>
        <path id="Tracé_1967" data-name="Tracé 1967" d="M15.229,3.7a2.256,2.256,0,0,1-.821.883,2.332,2.332,0,0,1-2.372,0,2.266,2.266,0,0,1-.822-.883,2.623,2.623,0,0,1-.3-1.248,2.626,2.626,0,0,1,.3-1.248,2.266,2.266,0,0,1,.822-.883,2.339,2.339,0,0,1,2.372,0,2.256,2.256,0,0,1,.821.883,2.614,2.614,0,0,1,.3,1.248,2.61,2.61,0,0,1-.3,1.248M14.619,1.53a1.6,1.6,0,0,0-.57-.647,1.486,1.486,0,0,0-.828-.236,1.506,1.506,0,0,0-.829.233,1.564,1.564,0,0,0-.569.644,2.064,2.064,0,0,0-.2.93,2.042,2.042,0,0,0,.2.924,1.6,1.6,0,0,0,.569.648,1.572,1.572,0,0,0,1.657,0,1.592,1.592,0,0,0,.57-.648,2.042,2.042,0,0,0,.2-.924,2.048,2.048,0,0,0-.2-.924" transform="translate(1.115 0)" fill="#fff"/>
        <path id="Tracé_1968" data-name="Tracé 1968" d="M20.725.148a.336.336,0,0,1,.085.235V3a1.964,1.964,0,0,1-.238.968,1.727,1.727,0,0,1-.658.671,1.849,1.849,0,0,1-.945.242,1.883,1.883,0,0,1-.954-.242,1.728,1.728,0,0,1-.661-.671A1.964,1.964,0,0,1,17.115,3V.382A.316.316,0,0,1,17.21.148a.339.339,0,0,1,.246-.093.323.323,0,0,1,.228.1.31.31,0,0,1,.1.231V3a1.249,1.249,0,0,0,.163.637,1.177,1.177,0,0,0,.436.44,1.157,1.157,0,0,0,.586.157,1.219,1.219,0,0,0,.607-.157,1.187,1.187,0,0,0,.446-.44A1.229,1.229,0,0,0,20.189,3V.382a.339.339,0,0,1,.083-.235A.283.283,0,0,1,20.5.055a.3.3,0,0,1,.228.093" transform="translate(1.748 0.005)" fill="#fff"/>
        <path id="Tracé_1969" data-name="Tracé 1969" d="M25.308.256a1.4,1.4,0,0,1,.487.528,1.527,1.527,0,0,1,.181.736,1.565,1.565,0,0,1-.181.743,1.423,1.423,0,0,1-.487.539,1.207,1.207,0,0,1-.668.2H23.358V4.506a.328.328,0,0,1-.089.233.294.294,0,0,1-.225.095.3.3,0,0,1-.228-.091.337.337,0,0,1-.085-.236V.388a.319.319,0,0,1,.095-.231.316.316,0,0,1,.233-.1H24.64a1.223,1.223,0,0,1,.668.2m-.327,2a.833.833,0,0,0,.249-.316,1,1,0,0,0,.091-.423.9.9,0,0,0-.2-.59A.606.606,0,0,0,24.64.688H23.358V2.379H24.64a.552.552,0,0,0,.341-.119" transform="translate(2.322 0.006)" fill="#fff"/>
        <path id="Tracé_1970" data-name="Tracé 1970" d="M37.618.256A1.4,1.4,0,0,1,38.1.784a1.515,1.515,0,0,1,.182.736,1.553,1.553,0,0,1-.182.743,1.423,1.423,0,0,1-.487.539,1.207,1.207,0,0,1-.668.2H35.669V4.506a.329.329,0,0,1-.09.233.293.293,0,0,1-.224.095.3.3,0,0,1-.229-.091.336.336,0,0,1-.084-.236V.388a.318.318,0,0,1,.094-.231.316.316,0,0,1,.233-.1H36.95a1.223,1.223,0,0,1,.668.2m-.326,2a.841.841,0,0,0,.248-.316,1,1,0,0,0,.091-.423.9.9,0,0,0-.2-.59A.606.606,0,0,0,36.95.688H35.669V2.379H36.95a.558.558,0,0,0,.342-.119" transform="translate(3.579 0.006)" fill="#fff"/>
        <path id="Tracé_1971" data-name="Tracé 1971" d="M44.054,3.7a2.256,2.256,0,0,1-.821.883,2.332,2.332,0,0,1-2.372,0,2.266,2.266,0,0,1-.822-.883,2.623,2.623,0,0,1-.3-1.248,2.626,2.626,0,0,1,.3-1.248,2.266,2.266,0,0,1,.822-.883,2.339,2.339,0,0,1,2.372,0,2.256,2.256,0,0,1,.821.883,2.614,2.614,0,0,1,.3,1.248,2.61,2.61,0,0,1-.3,1.248M43.444,1.53a1.6,1.6,0,0,0-.57-.647,1.486,1.486,0,0,0-.828-.236,1.506,1.506,0,0,0-.829.233,1.564,1.564,0,0,0-.569.644,2.064,2.064,0,0,0-.2.93,2.042,2.042,0,0,0,.2.924,1.6,1.6,0,0,0,.569.648,1.572,1.572,0,0,0,1.657,0,1.592,1.592,0,0,0,.57-.648,2.042,2.042,0,0,0,.2-.924,2.048,2.048,0,0,0-.2-.924" transform="translate(4.059 0)" fill="#fff"/>
        <path id="Tracé_1972" data-name="Tracé 1972" d="M46.534,4.768a2.242,2.242,0,0,1-.73-.453.362.362,0,0,1-.143-.28.312.312,0,0,1,.1-.222.3.3,0,0,1,.225-.1.278.278,0,0,1,.2.076,1.9,1.9,0,0,0,.563.37,1.694,1.694,0,0,0,.657.12,1.276,1.276,0,0,0,.726-.2.579.579,0,0,0,.3-.5.638.638,0,0,0-.3-.549,2.643,2.643,0,0,0-.883-.324,2.349,2.349,0,0,1-1.08-.471,1.135,1.135,0,0,1-.379-.906,1.207,1.207,0,0,1,.212-.706,1.358,1.358,0,0,1,.586-.466A2.1,2.1,0,0,1,47.427,0a2.329,2.329,0,0,1,.8.136A1.671,1.671,0,0,1,48.831.5a.391.391,0,0,1,.158.293.306.306,0,0,1-.093.218.3.3,0,0,1-.222.095.225.225,0,0,1-.157-.054,1.416,1.416,0,0,0-.49-.3,1.658,1.658,0,0,0-.6-.123A1.241,1.241,0,0,0,46.7.814a.572.572,0,0,0-.27.494.574.574,0,0,0,.27.511,2.51,2.51,0,0,0,.8.3,4.15,4.15,0,0,1,.87.273,1.214,1.214,0,0,1,.521.435,1.309,1.309,0,0,1,.184.73,1.168,1.168,0,0,1-.222.7,1.459,1.459,0,0,1-.6.477,2.038,2.038,0,0,1-.839.171,2.539,2.539,0,0,1-.88-.14" transform="translate(4.664 0)" fill="#fff"/>
        <path id="Tracé_1973" data-name="Tracé 1973" d="M51.349,4.738a.338.338,0,0,1-.238.1.321.321,0,0,1-.242-.1.328.328,0,0,1-.091-.238V.389a.315.315,0,0,1,.095-.233.336.336,0,0,1,.246-.095.33.33,0,0,1,.235.095.311.311,0,0,1,.1.233V4.5a.313.313,0,0,1-.1.238" transform="translate(5.186 0.006)" fill="#fff"/>
        <path id="Tracé_1974" data-name="Tracé 1974" d="M59.278,4.738a.338.338,0,0,1-.238.1.321.321,0,0,1-.242-.1.328.328,0,0,1-.091-.238V.389A.315.315,0,0,1,58.8.157a.336.336,0,0,1,.246-.095.33.33,0,0,1,.235.095.311.311,0,0,1,.1.233V4.5a.313.313,0,0,1-.1.238" transform="translate(5.996 0.006)" fill="#fff"/>
        <path id="Tracé_1975" data-name="Tracé 1975" d="M65.32.145a.281.281,0,0,1,.1.218.41.41,0,0,1-.034.15L63.645,4.624a.35.35,0,0,1-.136.157.3.3,0,0,1-.352,0,.367.367,0,0,1-.126-.147L61.295.513A.313.313,0,0,1,61.267.37a.29.29,0,0,1,.1-.231.331.331,0,0,1,.225-.089.316.316,0,0,1,.3.218L63.38,3.779,64.785.261a.375.375,0,0,1,.126-.15.3.3,0,0,1,.174-.055.339.339,0,0,1,.235.089" transform="translate(6.258 0.005)" fill="#fff"/>
        <path id="Tracé_1976" data-name="Tracé 1976" d="M66.976.388a.312.312,0,0,1,.1-.231.312.312,0,0,1,.231-.1h2.372a.325.325,0,0,1,.236.089A.307.307,0,0,1,70,.382.29.29,0,0,1,69.911.6a.332.332,0,0,1-.236.085H67.651V2.079h1.718a.325.325,0,0,1,.235.088.3.3,0,0,1,.093.226.286.286,0,0,1-.093.225.34.34,0,0,1-.235.082H67.651V4.206h2.025A.32.32,0,0,1,70,4.527a.288.288,0,0,1-.091.22.332.332,0,0,1-.236.086H67.3a.312.312,0,0,1-.231-.1" transform="translate(6.841 0.006)" fill="#fff"/>
        <path id="Tracé_1977" data-name="Tracé 1977" d="M27.44.388a.312.312,0,0,1,.1-.231.312.312,0,0,1,.231-.1h2.372a.325.325,0,0,1,.236.089.307.307,0,0,1,.091.231A.29.29,0,0,1,30.375.6a.332.332,0,0,1-.236.085H28.115V2.079h1.718a.325.325,0,0,1,.235.088.3.3,0,0,1,.093.226.286.286,0,0,1-.093.225.34.34,0,0,1-.235.082H28.115V4.206h2.025a.32.32,0,0,1,.327.321.288.288,0,0,1-.091.22.332.332,0,0,1-.236.086H27.767a.312.312,0,0,1-.231-.1" transform="translate(2.803 0.006)" fill="#fff"/>
        <path id="Tracé_1978" data-name="Tracé 1978" d="M8.349.275A1.4,1.4,0,0,1,8.836.8a1.527,1.527,0,0,1,.181.736,1.565,1.565,0,0,1-.181.743,1.423,1.423,0,0,1-.487.539,1.207,1.207,0,0,1-.668.2H6.4V4.525a.328.328,0,0,1-.089.233.294.294,0,0,1-.225.095.3.3,0,0,1-.228-.091.337.337,0,0,1-.085-.236V.407A.319.319,0,0,1,5.867.176.316.316,0,0,1,6.1.08H7.681a1.223,1.223,0,0,1,.668.2m-.327,2a.833.833,0,0,0,.249-.316,1,1,0,0,0,.091-.423.9.9,0,0,0-.2-.59A.606.606,0,0,0,7.681.707H6.4V2.4H7.681a.552.552,0,0,0,.341-.119" transform="translate(0.59 0.008)" fill="#fff"/>
        <path id="Tracé_1979" data-name="Tracé 1979" d="M8.793,4.59h0a.312.312,0,0,1-.412-.162L7.65,2.753a.314.314,0,1,1,.575-.25l.73,1.675a.313.313,0,0,1-.162.412" transform="translate(0.779 0.236)" fill="#fff"/>
      </g>
    </g>
  </g>
</svg>
