<svg width="155" height="70" viewBox="0 0 155 70" fill="none" xmlns="http://www.w3.org/2000/svg">
<path d="M0 20.6191V0H6.86077V20.0127C6.86077 22.3172 7.94405 24.2578 11.555 24.2578C15.1659 24.2578 16.2492 22.3172 16.2492 20.0127V0H23.11V20.6191C23.11 27.1687 18.0547 31.05 11.4346 31.05C4.81457 31.05 0 27.1687 0 20.6191Z" fill="white"/>
<path d="M51.1561 19.6494C51.1561 26.0777 46.4619 31.1719 40.8048 31.1719C37.916 31.1719 35.7495 30.2016 34.4255 28.5035V38.9344H27.9258V8.85471H34.4255V10.9166C35.8698 9.21858 37.916 8.24827 40.8048 8.24827C46.5823 8.12698 51.1561 13.0998 51.1561 19.6494ZM44.7768 19.6494C44.7768 16.3746 42.6102 14.3127 39.6011 14.3127C36.592 14.3127 34.4255 16.3746 34.4255 19.6494C34.4255 22.9242 36.592 24.9861 39.6011 24.9861C42.6102 24.9861 44.7768 22.9242 44.7768 19.6494Z" fill="white"/>
<path d="M10.3528 59.3103H7.10295V69.256H0.242188V38.8125H12.2786C18.0561 38.8125 22.63 43.4215 22.63 49.2433C22.63 53.0033 20.343 56.3994 17.0932 58.0974L23.4725 69.256H16.0099L10.3528 59.3103ZM7.10295 53.2459H12.2786C14.2044 53.2459 15.7692 51.5478 15.7692 49.3646C15.7692 47.1814 14.2044 45.4834 12.2786 45.4834H7.10295V53.2459Z" fill="white"/>
<path d="M38.6368 62.5886C40.0812 61.6183 41.0441 60.1628 41.1644 58.9499L47.0623 58.5861C46.9419 62.2247 45.0161 65.257 41.6459 67.5615C35.5073 71.6853 28.8873 69.9872 25.3967 64.5292C21.9061 59.0712 23.1098 52.4003 28.7669 48.6404C34.0629 45.123 40.5626 46.6998 44.1735 52.1578C44.655 52.8855 45.0161 53.7345 45.3772 54.4623L32.6186 62.9525C34.6648 64.2867 36.711 63.9228 38.6368 62.5886ZM37.6739 53.7345C35.748 52.0365 33.5815 52.2791 32.0168 53.3707C29.9706 54.7048 29.2484 56.6455 29.9706 58.8287L37.6739 53.7345Z" fill="white"/>
<path d="M70.535 47.5469L62.591 69.2576H55.2487L47.3047 47.5469H54.4062L58.8597 61.3738L63.3131 47.5469H70.535Z" fill="white"/>
<path d="M72.8203 47.5469H79.32V69.2576H72.8203V47.5469Z" fill="white"/>
<path d="M97.3733 63.1939C98.938 62.3449 100.021 61.132 100.382 59.9191L106.28 60.283C105.678 63.9216 103.512 66.7113 99.7806 68.5306C93.1605 71.8054 86.9016 69.3796 84.0128 63.5578C81.1241 57.7359 83.1703 51.1863 89.3089 48.1541C94.966 45.3644 101.225 47.6689 104.114 53.6121C104.475 54.4611 104.836 55.3101 105.077 56.0379L91.3551 62.83C93.1605 64.4068 95.3271 64.1642 97.3733 63.1939ZM97.4936 54.3398C95.8085 52.3992 93.642 52.3992 91.8365 53.2482C89.67 54.3398 88.707 56.1592 89.1885 58.4636L97.4936 54.3398Z" fill="white"/>
<path d="M154.666 38.2058L152.139 32.5053L149.611 26.8047L143.593 30.3221L137.575 33.9607L142.389 35.1736L134.325 59.1888L130.112 47.5451H122.649L118.437 59.1888L114.585 47.5451H106.039L114.585 69.2558H122.168L126.381 57.7334L130.714 69.2558H138.176L150.092 37.1142L154.666 38.2058Z" fill="url(#paint0_linear_5475_16091)"/>
<path d="M76.0702 45.241C77.865 45.241 79.32 43.7748 79.32 41.9662C79.32 40.1576 77.865 38.6914 76.0702 38.6914C74.2753 38.6914 72.8203 40.1576 72.8203 41.9662C72.8203 43.7748 74.2753 45.241 76.0702 45.241Z" fill="white"/>
<defs>
<linearGradient id="paint0_linear_5475_16091" x1="106.039" y1="26.8047" x2="148.102" y2="74.9867" gradientUnits="userSpaceOnUse">
<stop stop-color="#9E86FF" stop-opacity="0.988235"/>
<stop offset="1" stop-color="#5418FF"/>
</linearGradient>
</defs>
</svg>
