<svg id="Layer_1" data-name="Layer 1" xmlns="http://www.w3.org/2000/svg" viewBox="0 0 142.24 35" width="142px" height="35px"><defs><style>.cls-1{fill:none;}.cls-2{fill-rule:evenodd;}.cls-3{fill:#fd354e;}.cls-4{fill:#f9dd29;}.cls-5{fill:#1741ac;}</style></defs><rect class="cls-1" width="142" height="35"/><path class="cls-2" d="M106,20.13a9.51,9.51,0,0,0-.1-1.31,3.49,3.49,0,0,0-.37-1.13,2.13,2.13,0,0,0-.73-.79,2,2,0,0,0-1.17-.31,2.1,2.1,0,0,0-1.18.32,2.3,2.3,0,0,0-.76.82,3.87,3.87,0,0,0-.4,1.13,6.88,6.88,0,0,0-.12,1.29,8.4,8.4,0,0,0,.11,1.32,3.89,3.89,0,0,0,.38,1.18,2.15,2.15,0,0,0,.74.84,2.1,2.1,0,0,0,1.18.32,2.16,2.16,0,0,0,1.21-.32,2.08,2.08,0,0,0,.74-.84,3.89,3.89,0,0,0,.37-1.18A10,10,0,0,0,106,20.13Zm3.34,0a8.93,8.93,0,0,1-.31,2.34,5.15,5.15,0,0,1-1,2,4.92,4.92,0,0,1-1.79,1.36,6.28,6.28,0,0,1-2.66.51,6.16,6.16,0,0,1-2.64-.5,4.89,4.89,0,0,1-1.77-1.34,5.47,5.47,0,0,1-1-1.95,8.44,8.44,0,0,1-.31-2.32,7.62,7.62,0,0,1,.36-2.36,5.82,5.82,0,0,1,1.09-2,5,5,0,0,1,1.81-1.32,6.19,6.19,0,0,1,2.56-.49,6.25,6.25,0,0,1,2.62.49,4.7,4.7,0,0,1,1.76,1.31,5.32,5.32,0,0,1,1,1.93A8.71,8.71,0,0,1,109.34,20.1Zm-13.43,6a2.23,2.23,0,0,1-.47.07l-.75,0a4,4,0,0,1-.79-.08,1.67,1.67,0,0,1-.67-.32,1.57,1.57,0,0,1-.47-.62,2.57,2.57,0,0,1-.17-1V8.74A1.74,1.74,0,0,1,93,8.68q.36,0,.75,0a4.11,4.11,0,0,1,.78.07A1.92,1.92,0,0,1,95.2,9a1.48,1.48,0,0,1,.51.59,2.13,2.13,0,0,1,.2,1ZM90.18,10.5a1.66,1.66,0,0,1-.52,1.27,1.91,1.91,0,0,1-2.53,0,1.69,1.69,0,0,1-.51-1.27,1.71,1.71,0,0,1,.51-1.28,1.85,1.85,0,0,1,2.53,0A1.68,1.68,0,0,1,90.18,10.5Zm0,15.58a1.77,1.77,0,0,1-.44.07l-.73,0a2.7,2.7,0,0,1-1.55-.4,1.83,1.83,0,0,1-.6-1.62V14.4s.12,0,.37-.06a6.06,6.06,0,0,1,.75,0,4.13,4.13,0,0,1,.78.08,1.76,1.76,0,0,1,.71.28,1.45,1.45,0,0,1,.51.58,2.15,2.15,0,0,1,.2,1Zm-8.87-5.81H81a2.07,2.07,0,0,0-.35,0,9.87,9.87,0,0,0-1.2.16,3.67,3.67,0,0,0-1.06.34,2.1,2.1,0,0,0-.76.62,1.65,1.65,0,0,0-.29,1,1.79,1.79,0,0,0,.39,1.16,1.64,1.64,0,0,0,1.32.47,3.1,3.1,0,0,0,.87-.12,2.87,2.87,0,0,0,.73-.32,1.79,1.79,0,0,0,.5-.42.7.7,0,0,0,.19-.43Zm3.12,2.83A5.37,5.37,0,0,0,85,25.9a4.67,4.67,0,0,1-.82.25,4.07,4.07,0,0,1-.79.07A2.16,2.16,0,0,1,82,25.88a1.53,1.53,0,0,1-.57-1,4.46,4.46,0,0,1-1.42.95,5.25,5.25,0,0,1-2.14.39,5,5,0,0,1-1.32-.19,3.49,3.49,0,0,1-1.19-.59,3.17,3.17,0,0,1-.88-1.11,3.82,3.82,0,0,1-.34-1.7,3.21,3.21,0,0,1,.6-2,4.11,4.11,0,0,1,1.5-1.23,6.64,6.64,0,0,1,2-.62,16.17,16.17,0,0,1,1.92-.22l.57,0h.53V18.1a1.58,1.58,0,0,0-.5-1.31,2.68,2.68,0,0,0-1.62-.39,4.8,4.8,0,0,0-1.87.34,16.69,16.69,0,0,0-1.59.78,3.68,3.68,0,0,1-.55-.91,2.26,2.26,0,0,1-.21-.75.9.9,0,0,1,.38-.64,3.54,3.54,0,0,1,1-.59,8.14,8.14,0,0,1,1.52-.41,9.42,9.42,0,0,1,1.8-.16,8,8,0,0,1,2.23.27,3.49,3.49,0,0,1,1.49.83,3.11,3.11,0,0,1,.81,1.4,6.76,6.76,0,0,1,.25,2ZM58.55,9.5a1.86,1.86,0,0,1,1.24.38,2.74,2.74,0,0,1,.71,1l3.7,8.72L67.93,11a2.54,2.54,0,0,1,.85-1.12A2.08,2.08,0,0,1,70,9.5a7.59,7.59,0,0,1,1,.06,2.9,2.9,0,0,1,.71.16l1.17,16.21H69.64l-.76-10.82-3.31,7.41H62.76l-3.21-7.1-.71,10.51H55.65L56.84,9.72a5.39,5.39,0,0,1,.72-.15A6.41,6.41,0,0,1,58.55,9.5Z"/><path class="cls-3" d="M45,19.27,38.31,7.72l-.2-.35c-.68-1.22-1.62-2.89-3.38-3.46a5.39,5.39,0,0,0-6.22,2.17L27.45,7.81l-1.63,3c-1.29-2.35-2.31-4.18-2.63-4.7A5.39,5.39,0,0,0,17,3.91c-1.76.57-2.7,2.24-3.38,3.46L6.72,19.27a8.07,8.07,0,0,0,3,11l.5.29a8.07,8.07,0,0,0,11-3l4.63-8.48c1.8,3.3,3.58,6.56,4.65,8.54a8.09,8.09,0,0,0,11.05,2.93l.5-.29A8.07,8.07,0,0,0,45,19.27ZM17.71,25.62a4.05,4.05,0,0,1-5.54,1.48l-.5-.28a4.07,4.07,0,0,1-1.48-5.55L16.86,9.72l.22-.39a5.72,5.72,0,0,1,1.14-1.62,1.51,1.51,0,0,1,1.57.47c.36.6,1.91,3.38,3.76,6.76ZM40,26.81l-.5.29A4.13,4.13,0,0,1,34,25.68c-.22-.4-3.11-5.73-5.86-10.75l2.77-5.07,1-1.68a1.44,1.44,0,0,1,1.55-.48,5.56,5.56,0,0,1,1.16,1.63l6.89,11.94A4.06,4.06,0,0,1,40,26.81Z"/><path class="cls-4" d="M135.9,14h0a1.48,1.48,0,0,0,0-.21,5.21,5.21,0,0,0-5.18-5.13A5.33,5.33,0,0,0,126,11.7h0a5.33,5.33,0,0,0-4.71-3.06,5.21,5.21,0,0,0-5.19,5.13c0,.07,0,.14,0,.21h0s-.29,3.27,3.34,6.83A83.45,83.45,0,0,0,126,26.52a79.88,79.88,0,0,0,6.55-5.71C136.19,17.25,135.9,14,135.9,14Z"/><path class="cls-5" d="M135.89,14a1.48,1.48,0,0,0,0-.21,5.21,5.21,0,0,0-5.18-5.13A5.33,5.33,0,0,0,126,11.7h0a5.33,5.33,0,0,0-4.71-3.06,5.21,5.21,0,0,0-5.19,5.13c0,.07,0,.14,0,.21h0a7.23,7.23,0,0,0,.92,3.59H135A7.37,7.37,0,0,0,135.9,14Z"/></svg>