<svg width="241" height="49" viewBox="0 0 241 49" fill="none" xmlns="http://www.w3.org/2000/svg">
<g clip-path="url(#clip0_2849_6952)">
<path fill-rule="evenodd" clip-rule="evenodd" d="M44.9751 18.4976L35.4563 37.2207H17.6307L20.8036 30.9798H2.97815L12.497 12.2567H30.3225L27.1498 18.4976H44.9751ZM27.1493 18.4981H16.4187L13.2458 24.7391H23.9766L20.8038 30.9797H31.5345L34.7075 24.7387H23.9766L27.1493 18.4981Z" fill="#C2CDE7"/>
</g>
<path d="M80.4609 23.4531C80.2786 21.7122 79.627 20.3359 78.5059 19.3242C77.3848 18.3125 75.9447 17.8066 74.1855 17.8066C72.2806 17.8066 70.7539 18.4082 69.6055 19.6113C68.4661 20.8053 67.8965 22.3958 67.8965 24.3828C67.8965 26.3698 68.4661 27.9648 69.6055 29.168C70.7539 30.362 72.2806 30.959 74.1855 30.959C75.9447 30.959 77.3848 30.4531 78.5059 29.4414C79.6361 28.4297 80.2878 27.0534 80.4609 25.3125H83.8242C83.6237 27.9193 82.6393 30.0247 80.8711 31.6289C79.1029 33.2331 76.8743 34.0352 74.1855 34.0352C72.8001 34.0352 71.5104 33.7982 70.3164 33.3242C69.1315 32.8503 68.1152 32.194 67.2676 31.3555C66.4199 30.5078 65.7546 29.487 65.2715 28.293C64.7975 27.0898 64.5605 25.7865 64.5605 24.3828C64.5605 22.5234 64.9707 20.86 65.791 19.3926C66.6113 17.916 67.7507 16.7676 69.209 15.9473C70.6764 15.127 72.3353 14.7168 74.1855 14.7168C76.8652 14.7168 79.0892 15.528 80.8574 17.1504C82.6348 18.7637 83.6237 20.8646 83.8242 23.4531H80.4609ZM92.4551 34.0352C90.3223 34.0352 88.5768 33.3561 87.2188 31.998C85.8607 30.64 85.1816 28.8945 85.1816 26.7617C85.1816 24.638 85.8607 22.8971 87.2188 21.5391C88.5859 20.1719 90.3314 19.4883 92.4551 19.4883C94.0319 19.4883 95.3763 19.9714 96.4883 20.9375V19.7617H99.7422V33.7617H96.4883V32.5859C95.4128 33.5521 94.0684 34.0352 92.4551 34.0352ZM92.4551 31.0684C93.6673 31.0684 94.6426 30.6764 95.3809 29.8926C96.1191 29.1087 96.4883 28.0651 96.4883 26.7617C96.4883 25.4583 96.1191 24.4147 95.3809 23.6309C94.6426 22.847 93.6673 22.4551 92.4551 22.4551C91.2246 22.4551 90.2357 22.8516 89.4883 23.6445C88.7409 24.4284 88.3672 25.4674 88.3672 26.7617C88.3672 28.056 88.7409 29.0996 89.4883 29.8926C90.2357 30.6764 91.2246 31.0684 92.4551 31.0684ZM101.797 19.7617H105.037V20.9375C106.113 19.9714 107.457 19.4883 109.07 19.4883C111.203 19.4883 112.949 20.1673 114.307 21.5254C115.665 22.8835 116.344 24.6289 116.344 26.7617C116.344 28.8854 115.66 30.6309 114.293 31.998C112.935 33.3561 111.194 34.0352 109.07 34.0352C107.493 34.0352 106.149 33.5521 105.037 32.5859V38.5195H101.797V19.7617ZM109.07 22.4551C107.867 22.4551 106.892 22.8516 106.145 23.6445C105.406 24.4284 105.037 25.4674 105.037 26.7617C105.037 28.056 105.406 29.0996 106.145 29.8926C106.892 30.6764 107.867 31.0684 109.07 31.0684C110.301 31.0684 111.29 30.6764 112.037 29.8926C112.785 29.0996 113.158 28.056 113.158 26.7617C113.158 25.4674 112.785 24.4284 112.037 23.6445C111.29 22.8516 110.301 22.4551 109.07 22.4551ZM126.15 19.7617V22.7285H121.83V28.8125C121.83 30.1341 122.505 30.7949 123.854 30.7949H126.15V33.7617H123.621C120.303 33.7617 118.645 32.112 118.645 28.8125V22.7285H117.1V19.7617H118.645V15.0039H121.83V19.7617H126.15ZM134.057 34.0352C131.924 34.0352 130.178 33.3561 128.82 31.998C127.462 30.64 126.783 28.8945 126.783 26.7617C126.783 24.638 127.462 22.8971 128.82 21.5391C130.188 20.1719 131.933 19.4883 134.057 19.4883C135.633 19.4883 136.978 19.9714 138.09 20.9375V19.7617H141.344V33.7617H138.09V32.5859C137.014 33.5521 135.67 34.0352 134.057 34.0352ZM134.057 31.0684C135.269 31.0684 136.244 30.6764 136.982 29.8926C137.721 29.1087 138.09 28.0651 138.09 26.7617C138.09 25.4583 137.721 24.4147 136.982 23.6309C136.244 22.847 135.269 22.4551 134.057 22.4551C132.826 22.4551 131.837 22.8516 131.09 23.6445C130.342 24.4284 129.969 25.4674 129.969 26.7617C129.969 28.056 130.342 29.0996 131.09 29.8926C131.837 30.6764 132.826 31.0684 134.057 31.0684ZM143.398 18.0801V15.0039H146.639V18.0801H143.398ZM143.398 33.7617V19.7617H146.639V33.7617H143.398ZM148.68 33.7617V19.7617H151.92V20.8281C152.813 19.9349 153.943 19.4883 155.311 19.4883C156.96 19.4883 158.309 20.0397 159.357 21.1426C160.415 22.2363 160.943 23.6445 160.943 25.3672V33.7617H157.717V25.3672C157.717 24.5013 157.448 23.7995 156.91 23.2617C156.382 22.724 155.689 22.4551 154.832 22.4551C153.939 22.4551 153.228 22.724 152.699 23.2617C152.18 23.7904 151.92 24.4922 151.92 25.3672V33.7617H148.68ZM168.375 15.0039H176.77C178.574 15.0039 180.192 15.4004 181.623 16.1934C183.054 16.9863 184.171 18.0983 184.973 19.5293C185.775 20.9512 186.176 22.569 186.176 24.3828C186.176 26.2148 185.775 27.8464 184.973 29.2773C184.171 30.6992 183.054 31.8021 181.623 32.5859C180.201 33.3698 178.583 33.7617 176.77 33.7617H168.375V15.0039ZM176.77 18.0801H171.725V30.6855H176.77C178.611 30.6855 180.078 30.1159 181.172 28.9766C182.266 27.8372 182.812 26.306 182.812 24.3828C182.812 22.4596 182.266 20.9284 181.172 19.7891C180.078 18.6497 178.611 18.0801 176.77 18.0801ZM194.834 34.0352C192.701 34.0352 190.956 33.3561 189.598 31.998C188.24 30.64 187.561 28.8945 187.561 26.7617C187.561 24.638 188.24 22.8971 189.598 21.5391C190.965 20.1719 192.71 19.4883 194.834 19.4883C196.411 19.4883 197.755 19.9714 198.867 20.9375V19.7617H202.121V33.7617H198.867V32.5859C197.792 33.5521 196.447 34.0352 194.834 34.0352ZM194.834 31.0684C196.046 31.0684 197.021 30.6764 197.76 29.8926C198.498 29.1087 198.867 28.0651 198.867 26.7617C198.867 25.4583 198.498 24.4147 197.76 23.6309C197.021 22.847 196.046 22.4551 194.834 22.4551C193.604 22.4551 192.615 22.8516 191.867 23.6445C191.12 24.4284 190.746 25.4674 190.746 26.7617C190.746 28.056 191.12 29.0996 191.867 29.8926C192.615 30.6764 193.604 31.0684 194.834 31.0684ZM213.021 19.7617V22.7285H208.701V28.8125C208.701 30.1341 209.376 30.7949 210.725 30.7949H213.021V33.7617H210.492C207.174 33.7617 205.516 32.112 205.516 28.8125V22.7285H203.971V19.7617H205.516V15.0039H208.701V19.7617H213.021ZM220.928 34.0352C218.795 34.0352 217.049 33.3561 215.691 31.998C214.333 30.64 213.654 28.8945 213.654 26.7617C213.654 24.638 214.333 22.8971 215.691 21.5391C217.059 20.1719 218.804 19.4883 220.928 19.4883C222.505 19.4883 223.849 19.9714 224.961 20.9375V19.7617H228.215V33.7617H224.961V32.5859C223.885 33.5521 222.541 34.0352 220.928 34.0352ZM220.928 31.0684C222.14 31.0684 223.115 30.6764 223.854 29.8926C224.592 29.1087 224.961 28.0651 224.961 26.7617C224.961 25.4583 224.592 24.4147 223.854 23.6309C223.115 22.847 222.14 22.4551 220.928 22.4551C219.697 22.4551 218.708 22.8516 217.961 23.6445C217.214 24.4284 216.84 25.4674 216.84 26.7617C216.84 28.056 217.214 29.0996 217.961 29.8926C218.708 30.6764 219.697 31.0684 220.928 31.0684Z" fill="#C2CDE7"/>
<defs>
<clipPath id="clip0_2849_6952">
<rect width="42.1875" height="42.1875" fill="white" transform="matrix(-1 0 0 -1 45.0938 45.8555)"/>
</clipPath>
</defs>
</svg>
