<?xml version="1.0" encoding="utf-8"?>
<!-- Generator: Adobe Illustrator 27.2.0, SVG Export Plug-In . SVG Version: 6.00 Build 0)  -->
<svg version="1.1" id="Calque_2_00000056410816822880548210000008471760641496809607_"
	 xmlns="http://www.w3.org/2000/svg" xmlns:xlink="http://www.w3.org/1999/xlink" x="0px" y="0px" viewBox="0 0 117.1 27.3"
	 style="enable-background:new 0 0 117.1 27.3;" xml:space="preserve">
<style type="text/css">
	.st0{fill:#FFFFFF;}
	.st1{opacity:0.7;}
</style>
<g id="Calque_1-2">
	<path class="st0" d="M36.6,1.8V1.2c0-0.6-0.5-1.1-1.1-1.1h-9.6c-0.6,0-1.1,0.4-1.1,1.1v0.7c0,0.6,0.4,1.1,1.1,1.1h3.4v1.8h0v9.7
		c0,0.6,0.4,1.1,1.1,1.1H31c0.6,0,1.1-0.4,1.1-1.1V2.9h3.4C36.1,2.9,36.6,2.5,36.6,1.8L36.6,1.8z"/>
	<path class="st0" d="M7.2,0.3C5.9,0,4.7,0.1,3.4,0.1c-0.6,0-1.3,0.1-1.9,0.4C0.8,1,0.2,1.7,0.1,2.6C0,3.1,0,3.7,0,4.2v5.5
		c0,0,0-0.1,0-0.1c0,1,0,1.9,0,2.9c0.1,1.7,1.4,2.9,3.1,2.9c1.1,0,2.3,0.1,3.4-0.1c1.7-0.2,3.3-1,4.4-2.2c1.4-1.4,2.1-3.4,2.1-5.3
		c0-1.8-0.6-3.5-1.7-4.9C10.3,1.6,8.8,0.7,7.2,0.3L7.2,0.3z M9.6,10.7c-0.7,0.9-1.7,1.8-2.8,2c-0.6,0.1-1.1,0.1-1.7,0.1
		c-0.6,0-1.3,0-2,0c-0.1,0-0.1,0-0.2,0c-0.1-0.1-0.1-0.2-0.2-0.3c0,0,0,0,0-0.1c0,0,0-0.1,0-0.1v-9c0-0.2,0.1-0.5,0.3-0.6
		c0.4,0,0.7,0,1.1,0c0.6,0,1.2,0,1.9,0c0.5,0,1,0.1,1.5,0.3C8,3.3,8.6,3.7,9,4.2C10.7,5.9,11,8.7,9.6,10.7L9.6,10.7z"/>
	<path class="st0" d="M21.9,3.7l-0.1-0.1l-0.9-2.4c-0.2-0.5-0.5-0.9-1.1-1c-0.6-0.1-1.2,0.1-1.5,0.7c-0.4,0.8-4.7,12.7-4.9,13.3l0,0
		c-0.1,0.4,0,0.8,0.2,0.9c0.2,0.3,0.5,0.4,0.9,0.4v0h0.7c0.8,0,1-0.5,1.1-0.7c0-0.1,2.4-6.7,3.3-9.2l0.7,1.8c0,0,0,0,0,0l0.7,2
		l0.7,2.1l1.1,3.2c0.2,0.6,0.6,0.9,1.2,0.9h0.7c0.5,0,0.8-0.2,0.9-0.4c0.2-0.3,0.2-0.6,0.1-0.9L21.9,3.7L21.9,3.7z"/>
	<path class="st0" d="M90,0.1h-0.7c-0.6,0-1.1,0.4-1.1,1.1v9.4c-0.8-1.3-3.4-5.4-4.9-7.7c-0.2-0.2-1-1.6-1.1-1.6
		c-0.2-0.4-0.6-0.8-1.1-1c-0.7-0.3-1.7-0.2-2.3,0.4c-0.3,0.3-0.4,0.7-0.4,1.2v0.8c0,0,0,0,0,0v11.8c0,0.6,0.4,1.1,1.1,1.1h0.7
		c0.6,0,1.1-0.4,1.1-1.1V5c1.2,1.9,5.9,9.2,5.9,9.3c0.2,0.4,0.6,0.8,1.1,1c0.7,0.3,1.7,0.2,2.3-0.4c0.3-0.3,0.4-0.7,0.4-1.2v-0.2h0
		V1.2C91.1,0.6,90.6,0.1,90,0.1L90,0.1z"/>
	<path class="st0" d="M116.1,10.8c-0.1-2.9-2.7-3.8-4.6-4.4l0,0c-2-0.7-2.8-1.1-2.8-2.1s1.2-1.6,2.3-1.6c0.7,0,1.5,0.2,2.2,0.6
		l0.4,0.3c0.5,0.3,1.1,0.2,1.4-0.3l0.3-0.5c0.3-0.5,0.1-1.1-0.4-1.4c-1.2-0.8-2.7-1.2-4-1.2c-2.8,0-5,1.8-5,4.1c0,3.2,2.8,4,4.5,4.6
		c0.6,0.2,1.1,0.4,1.5,0.6c0,0,0,0,0,0c0.2,0.1,0.4,0.2,0.6,0.4c0,0,0.1,0.1,0.1,0.1c0.9,0.7,0.7,2.2-0.3,2.7
		c-0.6,0.4-1.5,0.4-2.2,0.3c-0.9-0.1-1.8-0.6-2.6-1.2c-0.4-0.4-1.2-0.4-1.5,0.1l-0.3,0.5c-0.2,0.2-0.2,0.5-0.2,0.8
		c0,0.3,0.2,0.5,0.4,0.7c1.4,1.1,3.1,1.8,4.8,1.8c1.4,0,2.8-0.4,3.8-1.4l0,0c0,0,0,0,0,0c0.1-0.1,0.2-0.2,0.3-0.3
		c0.2-0.3,0.4-0.6,0.6-0.9c0,0,0,0,0,0c0.1-0.1,0.1-0.3,0.2-0.5C116,11.9,116.1,11.3,116.1,10.8L116.1,10.8z"/>
	<path class="st0" d="M44.2,3.7l-0.2-0.3l-0.8-2.2c-0.2-0.5-0.5-0.9-1.1-1C41.6,0,41,0.3,40.7,0.8c-0.4,0.8-4.7,12.7-4.9,13.3l0,0
		c-0.1,0.4,0,0.8,0.2,0.9c0.2,0.3,0.5,0.4,0.9,0.4v0h0.7c0.8,0,1-0.5,1.1-0.7c0-0.1,2.4-6.7,3.3-9.2l0.7,1.8c0,0,0,0,0-0.1l0.7,2
		l0.7,2.1l1.1,3.2c0.2,0.6,0.6,0.9,1.2,0.9h0.7c0.5,0,0.8-0.2,0.9-0.4c0.2-0.3,0.2-0.6,0.1-0.9L44.2,3.7L44.2,3.7z"/>
	<path class="st0" d="M72.9,3.7l-0.1-0.1l-0.9-2.4c-0.2-0.5-0.5-0.9-1.1-1c-0.6-0.1-1.2,0.1-1.5,0.7c-0.4,0.8-4.7,12.7-4.9,13.3l0,0
		c-0.1,0.4,0,0.8,0.2,0.9c0.2,0.3,0.5,0.4,0.9,0.4v0h0.7c0.8,0,1-0.5,1.1-0.7c0-0.1,2.4-6.7,3.3-9.2l0.7,1.8l0,0l0.7,2l0.7,2.1
		l1.1,3.2c0.2,0.6,0.6,0.9,1.2,0.9h0.7c0.5,0,0.8-0.2,0.9-0.4c0.2-0.3,0.2-0.6,0.1-0.9L72.9,3.7L72.9,3.7z"/>
	<path class="st0" d="M101.2,3.7l-0.1-0.1l-0.9-2.4c-0.2-0.5-0.5-0.9-1.1-1C98.7,0,98,0.3,97.7,0.8c-0.4,0.8-4.7,12.7-4.9,13.3l0,0
		c-0.1,0.4,0,0.8,0.2,0.9c0.2,0.3,0.5,0.4,0.9,0.4v0h0.7c0.8,0,1-0.5,1.1-0.7c0-0.1,2.4-6.7,3.3-9.2l0.7,1.8c0,0,0,0,0,0l0.7,2
		l0.7,2.1l1.1,3.2c0.2,0.6,0.6,0.9,1.2,0.9h0.7c0.5,0,0.8-0.2,0.9-0.4c0.2-0.3,0.2-0.6,0.1-0.9L101.2,3.7L101.2,3.7z"/>
	<path class="st0" d="M61.4,0.1h-0.7c-0.6,0-1.1,0.4-1.1,1.1v9.4c-0.8-1.3-3.4-5.4-4.9-7.7c-0.2-0.2-1-1.6-1.1-1.6
		c-0.2-0.4-0.6-0.8-1.1-1c-0.7-0.3-1.7-0.2-2.3,0.4C50,1,49.9,1.4,49.9,1.9v0.8c0,0,0,0,0,0v11.8c0,0.6,0.4,1.1,1.1,1.1h0.7
		c0.6,0,1.1-0.4,1.1-1.1V5c1.2,1.9,5.9,9.2,6,9.3c0.2,0.4,0.6,0.8,1.1,1c0.7,0.3,1.7,0.2,2.3-0.4c0.3-0.3,0.4-0.7,0.4-1.2v-0.2h0
		V1.2C62.5,0.6,62,0.1,61.4,0.1L61.4,0.1z"/>
	<g class="st1">
		<path class="st0" d="M71.5,25L71.5,25c0-0.2-0.2-0.4-0.4-0.4H70c-0.2,0-0.4-0.2-0.4-0.4v-1c0-0.2-0.2-0.4-0.4-0.4l0,0
			c-0.2,0-0.4,0.2-0.4,0.4v1.3c0,0.5,0.4,1,0.9,1h1.3C71.3,25.4,71.5,25.2,71.5,25L71.5,25z"/>
		<path class="st0" d="M66.9,25L66.9,25c0,0.2,0.2,0.4,0.4,0.4h1.1c0.2,0,0.4,0.2,0.4,0.4v1c0,0.2,0.2,0.4,0.4,0.4l0,0
			c0.2,0,0.4-0.2,0.4-0.4v-1.3c0-0.5-0.4-1-0.9-1h-1.3C67.1,24.6,66.9,24.7,66.9,25L66.9,25z"/>
		<path class="st0" d="M93.7,24.9c0.1,0.1,0.1,0.1,0.1,0.2v1.5c0,0.1-0.1,0.2-0.2,0.3c-0.2,0.1-0.4,0.2-0.7,0.3s-0.5,0.1-0.7,0.1
			c-0.4,0-0.8-0.1-1.2-0.3c-0.4-0.2-0.7-0.5-0.9-0.9s-0.3-0.8-0.3-1.2s0.1-0.8,0.3-1.2s0.5-0.6,0.9-0.9c0.4-0.2,0.8-0.3,1.2-0.3
			c0.2,0,0.4,0,0.6,0.1s0.4,0.1,0.6,0.2c0.1,0,0.1,0.1,0.1,0.1s0,0.1,0,0.1c0,0.1,0,0.2-0.1,0.2c-0.1,0.1-0.1,0.1-0.2,0.1
			c-0.1,0-0.1,0-0.2,0c-0.3-0.1-0.6-0.2-0.9-0.2c-0.3,0-0.6,0.1-0.9,0.2s-0.5,0.4-0.6,0.6c-0.2,0.3-0.2,0.6-0.2,0.9s0.1,0.6,0.2,0.9
			c0.2,0.3,0.4,0.5,0.6,0.6c0.3,0.2,0.6,0.2,0.9,0.2c0.2,0,0.3,0,0.5,0c0.2,0,0.3-0.1,0.4-0.1v-1h-0.8c-0.1,0-0.2,0-0.2-0.1
			S92,25.3,92,25.2s0-0.2,0.1-0.2s0.1-0.1,0.2-0.1h1.2C93.5,24.9,93.6,24.9,93.7,24.9L93.7,24.9z"/>
		<path class="st0" d="M105.5,26.2c-0.2,0.4-0.4,0.6-0.8,0.9c-0.3,0.2-0.7,0.3-1.1,0.3s-0.8-0.1-1.1-0.3s-0.6-0.5-0.8-0.9
			s-0.3-0.8-0.3-1.2s0.1-0.8,0.3-1.2s0.4-0.6,0.8-0.9s0.7-0.3,1.1-0.3s0.8,0.1,1.1,0.3c0.3,0.2,0.6,0.5,0.8,0.9s0.3,0.8,0.3,1.2
			S105.7,25.8,105.5,26.2z M105,24.1c-0.1-0.3-0.3-0.5-0.6-0.6c-0.2-0.1-0.5-0.2-0.8-0.2s-0.6,0.1-0.8,0.2c-0.2,0.1-0.4,0.4-0.6,0.6
			c-0.1,0.3-0.2,0.6-0.2,0.9s0.1,0.6,0.2,0.9c0.1,0.3,0.3,0.5,0.6,0.6c0.2,0.1,0.5,0.2,0.8,0.2s0.6-0.1,0.8-0.2
			c0.2-0.1,0.4-0.4,0.6-0.6c0.1-0.3,0.2-0.6,0.2-0.9S105.1,24.4,105,24.1z"/>
		<path class="st0" d="M111.4,22.8c0.1,0.1,0.1,0.1,0.1,0.2v2.5c0,0.4-0.1,0.7-0.2,0.9c-0.2,0.3-0.4,0.5-0.6,0.6s-0.6,0.2-0.9,0.2
			s-0.7-0.1-0.9-0.2s-0.5-0.4-0.6-0.6c-0.2-0.3-0.2-0.6-0.2-0.9V23c0-0.1,0-0.2,0.1-0.2s0.1-0.1,0.2-0.1c0.1,0,0.2,0,0.2,0.1
			s0.1,0.1,0.1,0.2v2.5c0,0.2,0.1,0.4,0.2,0.6s0.2,0.3,0.4,0.4c0.2,0.1,0.4,0.1,0.6,0.1s0.4,0,0.6-0.1c0.2-0.1,0.3-0.2,0.4-0.4
			s0.2-0.4,0.2-0.6V23c0-0.1,0-0.2,0.1-0.2s0.1-0.1,0.2-0.1S111.4,22.7,111.4,22.8L111.4,22.8z"/>
		<path class="st0" d="M116.4,22.9c0.2,0.1,0.3,0.3,0.5,0.5c0.1,0.2,0.2,0.5,0.2,0.7s-0.1,0.5-0.2,0.7c-0.1,0.2-0.3,0.4-0.5,0.5
			c-0.2,0.1-0.4,0.2-0.6,0.2h-1.2V27c0,0.1,0,0.2-0.1,0.2s-0.1,0.1-0.2,0.1s-0.2,0-0.2-0.1s-0.1-0.1-0.1-0.2v-4c0-0.1,0-0.2,0.1-0.2
			s0.1-0.1,0.2-0.1h1.5C116,22.7,116.2,22.7,116.4,22.9L116.4,22.9z M116.1,24.8c0.1-0.1,0.2-0.2,0.2-0.3s0.1-0.3,0.1-0.4
			c0-0.2-0.1-0.4-0.2-0.6c-0.1-0.2-0.3-0.2-0.5-0.2h-1.2v1.6h1.2C115.9,24.9,116,24.9,116.1,24.8L116.1,24.8z"/>
		<path class="st0" d="M50.4,22.9c0.2,0.1,0.3,0.3,0.5,0.5c0.1,0.2,0.2,0.5,0.2,0.7s-0.1,0.5-0.2,0.7c-0.1,0.2-0.3,0.4-0.5,0.5
			c-0.2,0.1-0.4,0.2-0.6,0.2h-1.2V27c0,0.1,0,0.2-0.1,0.2s-0.1,0.1-0.2,0.1s-0.2,0-0.2-0.1c0-0.1-0.1-0.1-0.1-0.2v-4
			c0-0.1,0-0.2,0.1-0.2s0.1-0.1,0.2-0.1h1.5C50,22.7,50.2,22.7,50.4,22.9L50.4,22.9z M50.1,24.8c0.1-0.1,0.2-0.2,0.2-0.3
			s0.1-0.3,0.1-0.4c0-0.2-0.1-0.4-0.2-0.6c-0.1-0.2-0.3-0.2-0.5-0.2h-1.2v1.6h1.2C49.9,24.9,50,24.9,50.1,24.8L50.1,24.8z"/>
		<path class="st0" d="M57.1,26.2c-0.2,0.4-0.5,0.6-0.8,0.9c-0.3,0.2-0.7,0.3-1.1,0.3S54.3,27.2,54,27s-0.6-0.5-0.8-0.9
			s-0.3-0.8-0.3-1.2s0.1-0.8,0.3-1.2c0.2-0.4,0.5-0.6,0.8-0.9s0.7-0.3,1.1-0.3s0.8,0.1,1.1,0.3c0.3,0.2,0.6,0.5,0.8,0.9
			c0.2,0.4,0.3,0.8,0.3,1.2S57.3,25.8,57.1,26.2z M56.5,24.1c-0.1-0.3-0.3-0.5-0.5-0.6c-0.2-0.1-0.5-0.2-0.8-0.2s-0.6,0.1-0.8,0.2
			c-0.2,0.1-0.4,0.4-0.5,0.6c-0.1,0.3-0.2,0.6-0.2,0.9s0.1,0.6,0.2,0.9c0.1,0.3,0.3,0.5,0.5,0.6c0.2,0.1,0.5,0.2,0.8,0.2
			s0.6-0.1,0.8-0.2c0.2-0.1,0.4-0.4,0.5-0.6s0.2-0.6,0.2-0.9S56.6,24.4,56.5,24.1z"/>
		<path class="st0" d="M60,27.2c-0.2-0.1-0.5-0.2-0.7-0.4c-0.1-0.1-0.1-0.2-0.1-0.3c0-0.1,0-0.1,0.1-0.2s0.1-0.1,0.2-0.1
			c0.1,0,0.1,0,0.2,0.1c0.2,0.2,0.4,0.3,0.5,0.4c0.2,0.1,0.4,0.1,0.6,0.1c0.3,0,0.5-0.1,0.7-0.2c0.2-0.1,0.3-0.3,0.3-0.5
			c0-0.2-0.1-0.4-0.3-0.5c-0.2-0.1-0.5-0.2-0.8-0.3c-0.5-0.1-0.8-0.2-1-0.5c-0.2-0.2-0.4-0.5-0.4-0.9c0-0.3,0.1-0.5,0.2-0.7
			c0.1-0.2,0.3-0.3,0.6-0.5c0.2-0.1,0.5-0.2,0.8-0.2c0.3,0,0.5,0,0.8,0.1c0.2,0.1,0.4,0.2,0.6,0.4c0.1,0.1,0.2,0.2,0.2,0.3
			c0,0.1,0,0.1-0.1,0.2s-0.1,0.1-0.2,0.1c-0.1,0-0.1,0-0.2,0c-0.1-0.1-0.3-0.2-0.5-0.3c-0.2-0.1-0.4-0.1-0.6-0.1
			c-0.3,0-0.5,0.1-0.7,0.2c-0.2,0.1-0.3,0.3-0.3,0.5c0,0.2,0.1,0.4,0.3,0.5s0.4,0.2,0.8,0.3c0.3,0.1,0.6,0.2,0.8,0.3
			s0.4,0.2,0.5,0.4s0.2,0.4,0.2,0.7c0,0.2-0.1,0.5-0.2,0.7s-0.3,0.4-0.6,0.5c-0.2,0.1-0.5,0.2-0.8,0.2C60.6,27.3,60.3,27.3,60,27.2
			L60,27.2z"/>
		<path class="st0" d="M65.2,27.2c-0.1,0.1-0.1,0.1-0.2,0.1c-0.1,0-0.2,0-0.2-0.1c-0.1-0.1-0.1-0.1-0.1-0.2v-4c0-0.1,0-0.2,0.1-0.2
			s0.1-0.1,0.2-0.1c0.1,0,0.2,0,0.2,0.1c0.1,0.1,0.1,0.1,0.1,0.2v4C65.3,27,65.3,27.1,65.2,27.2L65.2,27.2z"/>
		<path class="st0" d="M73.6,27.2c-0.1,0.1-0.1,0.1-0.2,0.1c-0.1,0-0.2,0-0.2-0.1C73.1,27.1,73,27,73,26.9v-4c0-0.1,0-0.2,0.1-0.2
			s0.1-0.1,0.2-0.1c0.1,0,0.2,0,0.2,0.1c0.1,0.1,0.1,0.1,0.1,0.2v4C73.7,27,73.7,27.1,73.6,27.2L73.6,27.2z"/>
		<path class="st0" d="M79.7,22.8c0.1,0.1,0.1,0.1,0.1,0.2c0,0,0,0.1,0,0.1l-1.7,4c0,0.1-0.1,0.1-0.1,0.1c-0.1,0-0.1,0-0.2,0
			s-0.1,0-0.2-0.1c-0.1,0-0.1-0.1-0.1-0.1l-1.7-4c0,0,0-0.1,0-0.1c0-0.1,0-0.2,0.1-0.2c0.1-0.1,0.1-0.1,0.2-0.1
			c0.1,0,0.2,0.1,0.3,0.2l1.4,3.4l1.3-3.4c0-0.1,0.1-0.1,0.1-0.1c0.1,0,0.1,0,0.2,0C79.5,22.7,79.6,22.7,79.7,22.8L79.7,22.8z"/>
		<path class="st0" d="M81.8,23c0-0.1,0-0.2,0.1-0.2s0.1-0.1,0.2-0.1h2.3c0.1,0,0.2,0,0.2,0.1c0.1,0.1,0.1,0.1,0.1,0.2
			s0,0.2-0.1,0.2c-0.1,0.1-0.1,0.1-0.2,0.1h-1.9v1.3h1.7c0.1,0,0.2,0,0.2,0.1c0.1,0.1,0.1,0.1,0.1,0.2s0,0.2-0.1,0.2
			c-0.1,0-0.1,0.1-0.2,0.1h-1.7v1.5h1.9c0.1,0,0.2,0,0.2,0.1c0.1,0.1,0.1,0.1,0.1,0.2s0,0.2-0.1,0.2c-0.1,0.1-0.1,0.1-0.2,0.1h-2.3
			c-0.1,0-0.2,0-0.2-0.1"/>
		<path class="st0" d="M98.4,22.9c0.2,0.1,0.3,0.3,0.5,0.5c0.1,0.2,0.2,0.5,0.2,0.7s-0.1,0.5-0.2,0.7c-0.1,0.2-0.3,0.4-0.5,0.5
			c-0.2,0.1-0.4,0.2-0.6,0.2h-1.2V27c0,0.1,0,0.2-0.1,0.2s-0.1,0.1-0.2,0.1s-0.2,0-0.2-0.1s-0.1-0.1-0.1-0.2v-4c0-0.1,0-0.2,0.1-0.2
			s0.1-0.1,0.2-0.1h1.5C98,22.7,98.2,22.8,98.4,22.9L98.4,22.9z M98.1,24.8c0.1-0.1,0.2-0.2,0.2-0.3s0.1-0.3,0.1-0.4
			c0-0.2-0.1-0.4-0.2-0.6c-0.1-0.2-0.3-0.2-0.5-0.2h-1.2v1.6h1.2C97.9,24.9,98,24.9,98.1,24.8L98.1,24.8z"/>
		<path class="st0" d="M98.1,25.1L98.1,25.1c0.2-0.1,0.3,0,0.4,0.2l0.7,1.6c0.1,0.2,0,0.3-0.2,0.4l0,0c-0.2,0.1-0.3,0-0.4-0.2
			l-0.7-1.6C97.8,25.3,97.9,25.2,98.1,25.1z"/>
	</g>
</g>
</svg>
