<?xml version="1.0" encoding="utf-8"?>
<!-- Generator: Adobe Illustrator 27.9.0, SVG Export Plug-In . SVG Version: 6.00 Build 0)  -->
<svg version="1.1" id="Layer_1" xmlns="http://www.w3.org/2000/svg" xmlns:xlink="http://www.w3.org/1999/xlink" x="0px" y="0px"
	width="180" height="59" viewBox="0 0 839 275" style="enable-background:new 0 0 839 275;" xml:space="preserve">
<style type="text/css">
	.st0{fill:#112033;}
	.st1{fill:#21B7B3;}
	.st2{fill:#FDCE0D;}
</style>
<g>
	<g>
		<path class="st0" d="M324.1,131.6c-6.9-1.6-12.3-3.4-16.2-5.4l2.3-20.9c13.6,6.6,25.5,9.9,35.7,9.9c5.4,0,9.7-1.1,12.8-3.2
			c3.1-2.1,4.6-5.2,4.6-9.3c0-3.1-0.8-5.6-2.5-7.6s-4.1-3.7-7.3-5.1c-3.2-1.4-8.3-3.3-15.2-5.8c-6.6-2.3-12-4.6-16.3-7.2
			c-4.3-2.5-7.7-5.7-10.2-9.7c-2.5-4-3.8-8.8-3.8-14.6c0-9.2,3.4-16.7,10.2-22.3c6.8-5.6,16.5-8.5,29.1-8.5c6,0,11.9,0.7,17.8,2
			c5.9,1.3,11.3,3,16.2,4.9l-2,20.2c-6.4-2.8-12.2-4.9-17.5-6.2c-5.3-1.4-10.5-2.1-15.8-2.1c-5.9,0-10.3,1-13.4,2.9
			c-3.1,2-4.6,4.8-4.6,8.5c0,2.9,0.8,5.2,2.5,7.1c1.6,1.8,3.9,3.4,6.7,4.6c2.8,1.2,7,2.7,12.6,4.5c12.4,3.9,21.5,8.4,27.2,13.5
			c5.7,5.1,8.5,12,8.5,20.9c0,8.4-2.9,15.8-8.8,22c-5.9,6.3-16.8,9.4-33,9.4C337.5,134,331,133.2,324.1,131.6z"/>
		<path class="st0" d="M491.7,24.1l-37.9,64.2v43.6h-19.7V88.3l-37.9-64.2h21.6L444,70.6l26.2-46.5H491.7z"/>
		<path class="st0" d="M510.1,24.1h19.7v90.2h44.4v17.6h-64.1V24.1z"/>
		<path class="st0" d="M614.1,127c-8.1-4.7-14.4-11.2-18.9-19.7c-4.6-8.5-6.9-18.2-6.9-29.3s2.3-20.9,6.9-29.3
			c4.6-8.5,10.9-15,18.9-19.7c8.1-4.7,17.2-7,27.3-7c10.2,0,19.3,2.3,27.3,7c8.1,4.7,14.4,11.2,18.9,19.7c4.6,8.5,6.9,18.2,6.9,29.3
			s-2.3,20.9-6.9,29.3c-4.6,8.5-10.9,15-18.9,19.7c-8.1,4.7-17.2,7-27.3,7C631.3,134,622.1,131.7,614.1,127z M665.5,104.8
			c5.6-6.8,8.4-15.7,8.4-26.8s-2.8-20-8.4-26.8c-5.6-6.8-13.6-10.2-24.1-10.2c-10.5,0-18.5,3.4-24.1,10.2
			c-5.6,6.8-8.4,15.7-8.4,26.8s2.8,20,8.4,26.8c5.6,6.8,13.6,10.2,24.1,10.2C651.9,114.9,659.9,111.6,665.5,104.8z"/>
		<path class="st0" d="M799.6,101.2c0,9.7-3.1,17.2-9.4,22.6c-6.3,5.4-14.8,8.1-25.7,8.1h-45V24.1h40.7c20.5,0,30.8,8.7,30.8,26
			c0,10.7-4,18.3-11.9,22.8C792.8,77.3,799.6,86.8,799.6,101.2z M739.2,66.4h18c4.8,0,8.4-1,10.8-3c2.4-2,3.5-5.1,3.5-9.3
			c0-4.4-1.2-7.6-3.5-9.5c-2.4-1.9-6-2.9-10.8-2.9h-18V66.4z M774.7,110.9c3-2.3,4.5-6.2,4.5-11.8c0-5.4-1.6-9.3-4.7-11.6
			c-3.1-2.3-7.5-3.5-13-3.5h-22.3v30.3h22.3C767.3,114.3,771.7,113.2,774.7,110.9z"/>
		<path class="st0" d="M308.6,179.2h43.6v8.8h-33.9v20.9h26.1v8.8h-26.1v32.9h-9.7V179.2z"/>
		<path class="st0" d="M377.4,247.5c-5.3-3.1-9.5-7.4-12.5-13c-3-5.6-4.5-12.1-4.5-19.5c0-7.4,1.5-13.9,4.5-19.5
			c3-5.6,7.2-9.9,12.5-13c5.3-3.1,11.4-4.6,18.2-4.6s12.9,1.5,18.2,4.6c5.3,3.1,9.5,7.4,12.5,13c3,5.6,4.5,12.1,4.5,19.5
			c0,7.4-1.5,13.9-4.5,19.5c-3,5.6-7.2,9.9-12.5,13c-5.3,3.1-11.4,4.6-18.2,4.6S382.8,250.5,377.4,247.5z M409.2,239
			c3.7-2.4,6.5-5.7,8.4-9.9c1.9-4.2,2.8-8.9,2.8-14.2s-0.9-10-2.8-14.2c-1.9-4.2-4.7-7.5-8.4-9.9c-3.7-2.4-8.3-3.6-13.6-3.6
			c-5.3,0-9.8,1.2-13.6,3.6c-3.7,2.4-6.5,5.7-8.4,9.9c-1.9,4.2-2.8,8.9-2.8,14.2s0.9,10,2.8,14.2c1.9,4.2,4.7,7.5,8.4,9.9
			c3.7,2.4,8.3,3.6,13.6,3.6C400.9,242.7,405.5,241.5,409.2,239z"/>
		<path class="st0" d="M445.6,179.2h23.2c7.8,0,13.8,1.8,18.2,5.4c4.4,3.6,6.5,9,6.5,16.4c0,9.5-4.1,16.2-12.4,20.1l16,29.6h-11.8
			l-14.5-27.8h-0.5h-14.4v27.8h-10.2V179.2z M468.7,214.1c4.8,0,8.4-1.2,10.9-3.5c2.5-2.3,3.8-5.5,3.8-9.7c0-4.1-1.2-7.4-3.7-9.6
			c-2.5-2.3-6.1-3.4-11-3.4h-12.9v26.2H468.7z"/>
		<path class="st0" d="M523.9,188H503v-8.8h51.3v8.8h-20.8v62.6h-9.7V188z"/>
		<path class="st0" d="M566.6,179.2h43.6v8.8h-33.9v20.9h26.9v8.8h-26.9v24.2h34.8v8.8h-44.5V179.2z"/>
		<path class="st0" d="M625.6,179.2h23.2c7.8,0,13.8,1.8,18.2,5.4c4.4,3.6,6.5,9,6.5,16.4c0,9.5-4.1,16.2-12.4,20.1l16,29.6h-11.8
			l-14.5-27.8h-0.5h-14.4v27.8h-10.2V179.2z M648.7,214.1c4.8,0,8.4-1.2,10.9-3.5c2.5-2.3,3.8-5.5,3.8-9.7c0-4.1-1.2-7.4-3.7-9.6
			c-2.5-2.3-6.1-3.4-11-3.4h-12.9v26.2H648.7z"/>
		<path class="st0" d="M689.7,179.2h23.2c7.8,0,13.8,1.8,18.2,5.4c4.4,3.6,6.5,9,6.5,16.4c0,9.5-4.1,16.2-12.4,20.1l16,29.6h-11.8
			l-14.5-27.8h-0.5h-14.4v27.8h-10.2V179.2z M712.8,214.1c4.8,0,8.4-1.2,10.9-3.5c2.5-2.3,3.8-5.5,3.8-9.7c0-4.1-1.2-7.4-3.7-9.6
			c-2.5-2.3-6.1-3.4-11-3.4h-12.9v26.2H712.8z"/>
		<path class="st0" d="M766.7,247.5c-5.3-3.1-9.5-7.4-12.5-13c-3-5.6-4.5-12.1-4.5-19.5c0-7.4,1.5-13.9,4.5-19.5
			c3-5.6,7.2-9.9,12.5-13c5.3-3.1,11.4-4.6,18.2-4.6s12.9,1.5,18.2,4.6c5.3,3.1,9.5,7.4,12.5,13c3,5.6,4.5,12.1,4.5,19.5
			c0,7.4-1.5,13.9-4.5,19.5c-3,5.6-7.2,9.9-12.5,13c-5.3,3.1-11.4,4.6-18.2,4.6S772,250.5,766.7,247.5z M798.4,239
			c3.7-2.4,6.5-5.7,8.4-9.9c1.9-4.2,2.8-8.9,2.8-14.2s-0.9-10-2.8-14.2c-1.9-4.2-4.7-7.5-8.4-9.9c-3.7-2.4-8.3-3.6-13.6-3.6
			c-5.3,0-9.8,1.2-13.6,3.6c-3.7,2.4-6.5,5.7-8.4,9.9c-1.9,4.2-2.8,8.9-2.8,14.2s0.9,10,2.8,14.2c1.9,4.2,4.7,7.5,8.4,9.9
			c3.7,2.4,8.3,3.6,13.6,3.6C790.2,242.7,794.7,241.5,798.4,239z"/>
	</g>
</g>
<g>
	<path class="st1" d="M187.5,164l-24.6-24.6l-0.4,0.4l-56.2,56.2l-0.4,0.4c-13.6,13.6-13.6,35.6,0,49.2l0,0
		c13.6,13.6,35.6,13.6,49.2,0l32-32c0,0,0,0,0,0l0.4-0.4C201.1,199.7,201.1,177.6,187.5,164z"/>
	<path class="st0" d="M236.3,115.3L236.3,115.3l-81.2-81.2c-13.6-13.6-35.6-13.6-49.2,0l0,0c-13.6,13.6-13.6,35.6,0,49.2l81.2,81.2
		c13.6,13.6,13.6,35.6,0,49.2l49.2-49.2l0,0C249.8,150.9,249.8,128.9,236.3,115.3z"/>
	<ellipse class="st2" cx="48.7" cy="139.9" rx="34.4" ry="34.4"/>
</g>
</svg>
