<?xml version="1.0" encoding="UTF-8" standalone="no"?> <svg xmlns:dc="http://purl.org/dc/elements/1.1/" xmlns:cc="http://creativecommons.org/ns#" xmlns:rdf="http://www.w3.org/1999/02/22-rdf-syntax-ns#" xmlns:svg="http://www.w3.org/2000/svg" xmlns="http://www.w3.org/2000/svg" viewBox="0 0 1756.3203 232.60946" height="232.60947" width="1756.3203" xml:space="preserve" id="svg2" version="1.1"><metadata id="metadata8"><rdf:RDF><cc:Work rdf:about=""><dc:format>image/svg+xml</dc:format><dc:type rdf:resource="http://purl.org/dc/dcmitype/StillImage" /><dc:title></dc:title></cc:Work></rdf:RDF></metadata><defs id="defs6"><clipPath id="clipPath18" clipPathUnits="userSpaceOnUse"><path id="path16" d="M 0,2000 H 2000 V 0 H 0 Z" /></clipPath></defs><g transform="matrix(1.3333333,0,0,-1.3333333,-455.17346,1449.6381)" id="g10"><g id="g12"><g clip-path="url(#clipPath18)" id="g14"><g transform="translate(444.0001,1078.4041)" id="g20"><path id="path22" style="fill:#306d88;fill-opacity:1;fill-rule:nonzero;stroke:none" d="m 0,0 c 0.905,1.357 2.224,2.524 3.96,3.507 1.732,0.979 3.429,1.471 5.091,1.471 h 53.853 c 1.506,0 2.263,-0.679 2.263,-2.037 C 65.315,2.185 64.94,1.205 64.035,0 l -46.386,-74.897 47.744,-83.494 c 0.601,-1.51 0.905,-2.415 0.905,-2.716 0,-1.51 -0.905,-2.263 -2.715,-2.263 H 12.445 c -1.662,0 -3.32,0.489 -4.978,1.471 -1.662,0.98 -2.942,2.15 -3.846,3.508 l -36.883,65.166 -7.355,13.312 c -1.765,3.195 -1.765,7.073 10e-4,10.267 l 7.354,13.304 z" /></g><g transform="translate(685.2042,1025.9084)" id="g24"><path id="path26" style="fill:#306d88;fill-opacity:1;fill-rule:nonzero;stroke:none" d="m 0,0 c 0,3.921 -1.057,7.654 -3.168,11.2 -2.114,3.543 -5.582,5.318 -10.408,5.318 h -19.686 v -32.81 h 19.686 c 4.826,0 8.294,1.619 10.408,4.865 C -1.057,-8.185 0,-4.377 0,0 m -87.567,52.269 c 0,1.357 0.413,2.524 1.244,3.507 0.827,0.979 2.072,1.472 3.734,1.472 h 81.005 c 7.842,0 14.97,-1.698 21.383,-5.092 6.41,-3.394 11.914,-7.807 16.518,-13.237 4.6,-5.431 8.145,-11.579 10.635,-18.441 2.488,-6.867 3.733,-13.768 3.733,-20.705 0,-6.788 -1.209,-13.576 -3.62,-20.364 -2.415,-6.788 -5.883,-12.862 -10.409,-18.215 -4.525,-5.356 -9.956,-9.73 -16.291,-13.124 -6.336,-3.394 -13.35,-5.091 -21.044,-5.091 h -32.583 v -48.649 c 0,-3.319 -1.81,-4.977 -5.43,-4.977 h -43.897 c -3.32,0 -4.978,1.658 -4.978,4.977 z" /></g><g transform="translate(925.5035,1078.1775)" id="g28"><path id="path30" style="fill:#306d88;fill-opacity:1;fill-rule:nonzero;stroke:none" d="m 0,0 c 0,1.357 0.414,2.524 1.245,3.507 0.827,0.979 2.071,1.472 3.733,1.472 h 43.67 c 2.111,0 3.543,-0.532 4.3,-1.584 C 53.701,2.337 54.079,1.206 54.079,0 v -96.167 c 0,-13.123 -2.114,-24.136 -6.335,-33.035 -4.225,-8.902 -9.843,-16.03 -16.858,-21.382 -7.014,-5.357 -15.011,-9.165 -23.985,-11.427 -8.976,-2.263 -18.214,-3.395 -27.718,-3.395 -9.503,0 -18.781,1.132 -27.831,3.395 -9.051,2.262 -17.084,6.07 -24.099,11.427 -7.014,5.352 -12.635,12.48 -16.857,21.382 -4.225,8.899 -6.335,19.912 -6.335,33.035 V 0 c 0.3,3.168 1.658,4.826 4.072,4.979 h 44.576 c 1.206,0 2.45,-0.454 3.734,-1.359 1.28,-0.905 1.923,-2.114 1.923,-3.62 v -92.999 c 0,-3.923 0.679,-7.205 2.036,-9.842 1.358,-2.641 3.055,-4.752 5.092,-6.336 2.036,-1.583 4.26,-2.715 6.674,-3.394 2.412,-0.679 4.752,-1.018 7.015,-1.018 2.263,0 4.639,0.453 7.128,1.357 2.489,0.905 4.751,2.225 6.788,3.96 2.036,1.732 3.694,3.882 4.978,6.449 1.279,2.564 1.923,5.505 1.923,8.824 z" /></g><g transform="translate(1203.3634,963.4573)" id="g32"><path id="path34" style="fill:#306d88;fill-opacity:1;fill-rule:nonzero;stroke:none" d="m 0,0 c 1.357,0 2.524,-0.417 3.508,-1.245 0.978,-0.83 1.471,-2.075 1.471,-3.734 v -37.787 c 0,-1.209 -0.454,-2.415 -1.358,-3.62 -0.905,-1.21 -2.114,-1.81 -3.621,-1.81 h -117.888 c -3.319,0 -4.977,1.658 -4.977,4.977 V 114.72 c 0,1.358 0.413,2.525 1.244,3.507 0.827,0.98 2.072,1.472 3.733,1.472 h 41.634 c 1.206,0 2.411,-0.453 3.621,-1.359 1.205,-0.905 1.81,-2.114 1.81,-3.62 V 0 Z" /></g><g transform="translate(1332.337,977.4856)" id="g36"><path id="path38" style="fill:#306d88;fill-opacity:1;fill-rule:nonzero;stroke:none" d="m 0,0 c 3.016,-2.114 5.883,-4.225 8.599,-6.335 2.714,-2.114 5.352,-4.038 7.919,-5.77 2.563,-1.736 5.166,-3.132 7.806,-4.186 2.638,-1.058 5.318,-1.584 8.033,-1.584 7.389,0 11.087,2.941 11.087,8.824 0,1.959 -1.244,4.109 -3.733,6.449 -2.489,2.337 -7.279,4.487 -14.368,6.449 h 0.452 c -10.861,2.864 -19.764,6.297 -26.7,10.296 -6.941,3.995 -12.37,8.446 -16.291,13.349 -3.925,4.901 -6.64,10.183 -8.147,15.839 -1.51,5.657 -2.262,11.653 -2.262,17.989 0,7.241 1.506,13.838 4.525,19.799 3.016,5.957 7.241,11.048 12.672,15.274 5.43,4.221 11.992,7.502 19.685,9.843 7.694,2.337 16.214,3.507 25.569,3.507 11.313,0 21.871,-1.51 31.678,-4.526 9.804,-3.019 19.007,-8.902 27.605,-17.65 1.206,-2.114 1.545,-4.111 1.018,-5.996 -0.53,-1.887 -1.697,-3.885 -3.506,-5.996 L 72.634,53.854 c -1.811,-2.115 -3.698,-2.869 -5.657,-2.263 -1.962,0.6 -3.925,1.731 -5.883,3.393 -3.472,3.016 -7.393,5.505 -11.767,7.467 -4.377,1.959 -8.223,2.942 -11.54,2.942 -2.867,0 -5.543,-0.566 -8.032,-1.697 -2.489,-1.132 -3.734,-3.359 -3.734,-6.675 0,-1.81 0.601,-3.359 1.81,-4.639 1.206,-1.283 2.716,-2.34 4.526,-3.167 1.81,-0.831 3.846,-1.549 6.109,-2.151 2.263,-0.604 4.448,-1.209 6.562,-1.809 8.146,-2.567 15.575,-5.204 22.288,-7.92 6.71,-2.715 12.519,-6.074 17.423,-10.069 4.901,-3.998 8.711,-8.903 11.427,-14.707 2.715,-5.809 4.072,-13.011 4.072,-21.61 0,-8.75 -1.774,-16.556 -5.317,-23.419 -3.546,-6.866 -8.41,-12.671 -14.594,-17.423 -6.187,-4.752 -13.464,-8.336 -21.836,-10.748 -8.372,-2.411 -17.462,-3.62 -27.265,-3.62 -5.735,0 -11.54,0.756 -17.423,2.263 -5.883,1.506 -11.579,3.542 -17.084,6.109 -5.508,2.563 -10.712,5.543 -15.613,8.938 -4.904,3.393 -9.242,6.901 -13.01,10.521 -2.567,2.564 -3.925,4.412 -4.074,5.544 -0.151,1.131 0.753,2.75 2.716,4.865 l 22.854,26.248 c 2.11,1.658 3.655,2.489 4.638,2.489 C -4.791,2.716 -2.867,1.811 0,0" /></g><g transform="translate(1651.1534,1083.156)" id="g40"><path id="path42" style="fill:#306d88;fill-opacity:1;fill-rule:nonzero;stroke:none" d="M 0,0 C 1.357,0 2.523,-0.418 3.507,-1.245 4.486,-2.076 4.978,-3.32 4.978,-4.979 v -31.226 c 0,-1.209 -0.417,-2.453 -1.245,-3.733 C 2.902,-41.221 1.657,-41.862 0,-41.862 h -68.335 v -23.079 h 46.612 c 1.358,0 2.525,-0.34 3.507,-1.018 0.98,-0.679 1.472,-1.624 1.472,-2.829 v -30.546 c 0,-0.757 -0.418,-1.624 -1.245,-2.603 -0.831,-0.982 -2.075,-1.471 -3.734,-1.471 h -46.612 v -21.948 H 2.488 c 1.358,0 2.525,-0.417 3.508,-1.244 0.979,-0.831 1.471,-2.075 1.471,-3.733 v -31.905 c 0,-1.358 -0.53,-2.716 -1.584,-4.073 -0.905,-1.058 -2.341,-1.584 -4.3,-1.584 h -116.982 c -3.32,0 -4.978,1.658 -4.978,4.978 V -4.979 c 0,1.358 0.413,2.525 1.244,3.507 0.827,0.98 2.072,1.472 3.734,1.472 z" /></g><g transform="translate(373.7131,915)" id="g44"><path id="path46" style="fill:#306d88;fill-opacity:1;fill-rule:nonzero;stroke:none" d="m 0,0 h -27.333 c -2.75,0 -5,2.25 -5,5 v 27.333 c 0,2.75 2.25,5 5,5 H 0 c 2.75,0 5,-2.25 5,-5 V 5 C 5,2.25 2.75,0 0,0" /></g></g></g></g></svg>