<?xml version="1.0" encoding="UTF-8"?> <svg xmlns="http://www.w3.org/2000/svg" width="140" height="28" viewBox="0 0 140 28" fill="none"><path d="M16.6335 28C14.482 28 12.4611 27.1748 10.9383 25.6734L0.633822 15.5135C-0.211274 14.6803 -0.211274 13.3298 0.633822 12.4966L9.35219 3.90052C10.1973 3.06728 11.567 3.06728 12.4121 3.90052C13.2572 4.73375 13.2572 6.08424 12.4121 6.91748L5.22469 14.004L14.0002 22.6564C14.7045 23.3508 15.6394 23.7332 16.6355 23.7332C17.6317 23.7332 18.5666 23.3508 19.2708 22.6564C20.0792 21.8594 20.5242 20.8007 20.5242 19.6757C20.5242 18.5486 20.0792 17.4899 19.2708 16.6949L16.2456 13.7122C13.1061 10.6167 13.1061 5.57907 16.2456 2.48361C17.8705 0.88154 20.0302 0 22.3287 0C24.6272 0 26.7869 0.88154 28.4118 2.48361L38.5672 12.4966C38.9734 12.8971 39.2 13.4385 39.2 14.004C39.2 14.5696 38.9714 15.113 38.5672 15.5115L29.8488 24.1075C29.0037 24.9408 27.634 24.9408 26.7889 24.1075C25.9438 23.2743 25.9438 21.9238 26.7889 21.0906L33.9763 14.004L25.3498 5.49856C24.5415 4.70155 23.4677 4.26279 22.3267 4.26279C21.1856 4.26279 20.1119 4.70155 19.3035 5.49856C17.8501 6.93157 17.8501 9.26222 19.3035 10.6952L22.3287 13.678C25.6825 16.9848 25.6825 22.3666 22.3287 25.6734C20.8079 27.1748 18.785 28 16.6335 28Z" fill="#6EE691"></path><path fill-rule="evenodd" clip-rule="evenodd" d="M85.305 7C86.6778 7 87.9029 7.29115 88.9763 7.87344C90.0497 8.45573 90.8879 9.27302 91.4865 10.3253C92.0852 11.3776 92.3846 12.59 92.3846 13.9605V13.9771C92.3824 14.7653 91.7153 15.3996 90.905 15.3996H81.1591C81.2468 16.5309 81.6787 17.4397 82.4527 18.1239C83.2267 18.8081 84.1782 19.1512 85.305 19.1512C86.9258 19.1512 88.0697 18.492 88.739 17.1735H91.989C91.5486 18.4753 90.751 19.5422 89.5985 20.372C88.446 21.2017 87.0156 21.6176 85.3072 21.6176C83.9152 21.6176 82.6708 21.3119 81.5696 20.7047C80.4685 20.0974 79.6046 19.2406 78.9803 18.1364C78.3538 17.0321 78.0416 15.751 78.0416 14.2953C78.0416 12.8396 78.3452 11.5585 78.9525 10.4542C79.5597 9.34997 80.4129 8.49733 81.514 7.8984C82.6152 7.29947 83.8789 7 85.305 7ZM82.6409 10.4709C81.9374 11.0802 81.5183 11.9058 81.3857 12.9477H89.0383C89.0212 11.9225 88.6449 11.101 87.9094 10.4834C87.1738 9.86572 86.2608 9.55585 85.1746 9.55585C84.1889 9.55585 83.3443 9.86156 82.6409 10.4709ZM54.3547 13.1661C55.411 13.4386 56.2791 13.7172 56.9569 14.0001C57.6347 14.2829 58.2206 14.6988 58.7145 15.2478C59.2063 15.7969 59.4629 16.5247 59.48 17.4314C59.48 18.2363 59.2512 18.9558 58.7936 19.5901C58.336 20.2244 57.6882 20.7214 56.8521 21.0812C56.0161 21.4389 55.0347 21.6198 53.9079 21.6198C52.7639 21.6198 51.7376 21.4181 50.831 21.0167C49.9244 20.6133 49.206 20.0642 48.6778 19.3717C48.1497 18.6771 47.8675 17.9035 47.8333 17.0467H50.9507C51.0042 17.6477 51.2993 18.1489 51.8359 18.5503C52.3726 18.9516 53.0462 19.1534 53.8565 19.1534C54.7011 19.1534 55.3575 18.9932 55.8237 18.6771C56.2898 18.361 56.5229 17.9534 56.5229 17.4564C56.5229 16.9261 56.2641 16.5331 55.7446 16.2752C55.225 16.0173 54.4018 15.7345 53.2749 15.4267C52.1823 15.1355 51.2928 14.8527 50.6065 14.5782C49.9201 14.3058 49.3257 13.8857 48.8232 13.32C48.3208 12.7544 48.0706 12.0099 48.0706 11.0844C48.0706 10.3316 48.2994 9.64327 48.757 9.0173C49.2145 8.39342 49.8688 7.90055 50.7241 7.54077C51.5772 7.181 52.5587 7.00215 53.6684 7.00215C55.3233 7.00215 56.6576 7.40976 57.6711 8.22289C58.1778 8.6305 58.567 9.11297 58.8385 9.67031C59.2619 10.5437 58.5777 11.5482 57.5834 11.5482C56.9334 11.5482 56.3304 11.2071 56.0225 10.6519C55.8921 10.4169 55.7146 10.211 55.4901 10.0322C55.0133 9.65575 54.3718 9.4665 53.5615 9.4665C52.7703 9.4665 52.1631 9.61208 51.7397 9.90322C51.156 10.3046 50.9764 10.8848 51.1966 11.6439C51.5238 12.0806 51.9771 12.405 52.5587 12.613C52.9628 12.7585 53.5615 12.9436 54.3547 13.1661ZM104.38 7.87344C103.306 7.29115 102.081 7 100.709 7C99.2824 7 98.0187 7.29947 96.9175 7.8984C95.8164 8.49733 94.9632 9.34997 94.356 10.4542C93.7488 11.5585 93.4451 12.8396 93.4451 14.2953C93.4451 15.751 93.7573 17.0321 94.3838 18.1364C95.0081 19.2406 95.872 20.0974 96.9731 20.7047C98.0743 21.3119 99.3187 21.6176 100.711 21.6176C102.419 21.6176 103.85 21.2017 105.004 20.372C106.157 19.5422 106.954 18.4753 107.395 17.1735H104.145C103.475 18.492 102.331 19.1512 100.711 19.1512C99.5839 19.1512 98.6324 18.8081 97.8584 18.1239C97.0843 17.4397 96.6524 16.5309 96.5647 15.3996H106.328C107.136 15.3996 107.79 14.7632 107.792 13.9771V13.9605C107.792 12.59 107.493 11.3776 106.894 10.3253C106.291 9.27302 105.453 8.45573 104.38 7.87344ZM96.7893 12.9477C96.9218 11.9058 97.3409 11.0802 98.0444 10.4709C98.7478 9.86156 99.5924 9.55585 100.578 9.55585C101.666 9.55585 102.577 9.86572 103.313 10.4834C104.048 11.101 104.425 11.9225 104.442 12.9477H96.7893ZM123.88 14.2953C123.88 15.7344 123.547 17.0113 122.877 18.1239C122.516 18.7249 122.082 19.249 121.575 19.7023C122.841 20.6028 123.63 22.1001 123.502 23.7638C123.316 26.172 121.182 28 118.699 28H111.139V26.9747C111.139 26.016 111.938 25.2383 112.924 25.2383H118.744C119.67 25.2383 120.497 24.6061 120.647 23.7181C120.84 22.5743 119.933 21.5802 118.793 21.5802H117.102C116.845 21.6031 116.587 21.6176 116.322 21.6176C116.061 21.6176 115.804 21.6031 115.552 21.5802L115.242 21.549C114.29 21.4284 113.409 21.1497 112.599 20.7047C111.489 20.0974 110.617 19.2406 109.984 18.1364C109.349 17.0321 109.033 15.751 109.033 14.2953C109.033 12.8562 109.358 11.5793 110.01 10.4667C110.662 9.35413 111.551 8.49733 112.678 7.8984C113.805 7.29947 115.064 7 116.456 7C117.848 7 119.108 7.29947 120.234 7.8984C121.361 8.49733 122.251 9.35413 122.903 10.4667C123.555 11.5814 123.88 12.8562 123.88 14.2953ZM112.868 11.8206C112.501 12.4964 112.317 13.322 112.317 14.2974C112.317 15.7448 112.697 16.8636 113.459 17.6518C114.128 18.3464 114.949 18.7353 115.922 18.8185H116.715C117.307 18.7686 117.87 18.6043 118.4 18.3235C119.044 17.9825 119.565 17.4709 119.967 16.7867C120.369 16.1025 120.57 15.2727 120.57 14.2974C120.57 13.322 120.378 12.4964 119.993 11.8206C119.608 11.1447 119.097 10.6352 118.462 10.2941C117.827 9.95306 117.141 9.78253 116.405 9.78253C115.669 9.78253 114.987 9.95306 114.361 10.2941C113.734 10.6373 113.236 11.1447 112.868 11.8206ZM139.025 10.4689C138.373 9.35627 137.483 8.49946 136.356 7.90053C135.23 7.3016 133.97 7.00214 132.578 7.00214C131.186 7.00214 129.927 7.3016 128.8 7.90053C127.673 8.49946 126.784 9.35627 126.132 10.4689C125.479 11.5815 125.154 12.8583 125.154 14.2974C125.154 15.7532 125.471 17.0342 126.106 18.1385C126.739 19.2428 127.611 20.0996 128.721 20.7068C129.831 21.3141 131.071 21.6198 132.446 21.6198C133.838 21.6198 135.11 21.3162 136.262 20.7068C137.415 20.0996 138.328 19.2386 138.997 18.1239C139.666 17.0113 140 15.7345 140 14.2954C140 12.8563 139.675 11.5815 139.025 10.4689ZM136.091 16.7867C135.689 17.4709 135.168 17.9825 134.524 18.3236C133.88 18.6646 133.19 18.8352 132.454 18.8352C131.3 18.8352 130.342 18.44 129.581 17.6519C128.819 16.8637 128.439 15.7449 128.439 14.2954C128.439 13.32 128.623 12.4944 128.99 11.8185C129.358 11.1427 129.856 10.6352 130.483 10.2921C131.109 9.95104 131.791 9.78051 132.527 9.78051C133.262 9.78051 133.949 9.95104 134.584 10.2921C135.219 10.6332 135.73 11.1427 136.115 11.8185C136.5 12.4944 136.692 13.32 136.692 14.2954C136.694 15.2728 136.493 16.1026 136.091 16.7867ZM73.979 7H75.0332C76.0189 7 76.8186 7.77778 76.8207 8.73648V16.9323C76.8207 19.434 74.8044 21.5511 72.2321 21.6197C70.8979 21.6551 69.6834 21.1497 68.8025 20.3137C67.9216 21.1497 66.7071 21.6551 65.3728 21.6197C62.8006 21.5511 60.7843 19.434 60.7843 16.9323V7H61.8384C62.8241 7 63.6238 7.77778 63.6238 8.73648V16.9759C63.6238 17.9159 64.3315 18.7436 65.2937 18.8455C66.3906 18.962 67.3229 18.153 67.3784 17.1236C67.3784 17.1067 67.3779 17.0903 67.3773 17.0742C67.3768 17.0586 67.3763 17.0433 67.3763 17.0279V13.5716L67.3849 7H68.4347C69.4204 7 70.218 7.7757 70.2201 8.7344L70.2265 13.5716V17.0279C70.2265 17.0448 70.226 17.0612 70.2254 17.0773C70.2249 17.0929 70.2244 17.1082 70.2244 17.1236C70.28 18.153 71.2122 18.962 72.3091 18.8455C73.2713 18.7436 73.979 17.9159 73.979 16.9759V7Z" fill="#141446"></path></svg> 