<?xml version="1.0" encoding="utf-8"?>
<!-- Generator: Adobe Illustrator 26.3.1, SVG Export Plug-In . SVG Version: 6.00 Build 0)  -->
<svg version="1.1" xmlns="http://www.w3.org/2000/svg" xmlns:xlink="http://www.w3.org/1999/xlink" x="0px" y="0px"
	 viewBox="0 0 149 50" style="enable-background:new 0 0 149 50;" xml:space="preserve">
<style type="text/css">
	.st0{fill:#1A171B;}
	.st1{fill:#F5A119;}
	.st2{fill:#E9A63E;}
	.st3{fill:#B6622C;}
	.st4{fill:#6D412F;}
	.st5{fill:#FCF2E9;}
	.st6{fill:#E8CDB3;}
	.st7{fill:#F3D4D6;}
	.st8{fill:#E8ABAC;}
	.st9{opacity:0.5;}
	.st10{clip-path:url(#SVGID_00000030477165985486645390000016946351567389063851_);}
	.st11{fill:#292529;}
	.st12{fill:#FFFFFF;}
	.st13{fill:#50A6DC;}
	.st14{fill:#1C2F37;}
	.st15{clip-path:url(#SVGID_00000011016048707337370300000010271543639801831853_);}
</style>
<g id="Calque_1">
	<path class="st0" d="M67.2,6.4c1.7,0,3,0.2,4.1,0.5c1.1,0.4,1.9,0.8,2.5,1.4c0.6,0.5,1,1.2,1.3,1.9c0.2,0.7,0.4,1.3,0.4,2
		c0,1-0.2,1.9-0.6,2.5c-0.4,0.7-0.9,1.3-1.6,1.9c1.2,0.4,2.1,1,2.8,1.9c0.7,0.9,1,2.1,1,3.6c0,0.9-0.2,1.8-0.6,2.6
		c-0.4,0.8-0.9,1.4-1.7,1.9c-0.7,0.5-1.6,0.9-2.5,1.2c-1,0.3-2.1,0.4-3.3,0.4H62v-22H67.2z M66.2,15.5H67c1.5,0,2.5-0.3,3.2-0.8
		c0.6-0.5,0.9-1.2,0.9-2.1c0-0.5-0.1-0.9-0.3-1.3c-0.2-0.4-0.5-0.6-0.8-0.8c-0.4-0.2-0.8-0.4-1.3-0.4c-0.5-0.1-1.1-0.1-1.7-0.1h-0.7
		L66.2,15.5L66.2,15.5z M66.2,24.9h2.3c0.8,0,1.6-0.1,2.1-0.3c0.5-0.2,1-0.4,1.3-0.7c0.3-0.3,0.6-0.6,0.7-0.9c0.1-0.4,0.2-0.7,0.2-1
		c0-0.4,0-0.7-0.2-1c-0.1-0.4-0.4-0.7-0.7-0.9c-0.3-0.3-0.8-0.5-1.4-0.7s-1.3-0.3-2.3-0.3h-2.1L66.2,24.9L66.2,24.9z"/>
	<path class="st0" d="M94.7,24.1c-0.4,1-1,1.8-1.7,2.5c-0.7,0.7-1.6,1.2-2.5,1.7c-1,0.4-2.1,0.6-3.2,0.6c-1.1,0-2.2-0.2-3.2-0.6
		c-1-0.4-1.8-0.9-2.5-1.7c-0.7-0.7-1.3-1.6-1.7-2.5c-0.4-1-0.6-2-0.6-3.1c0-1.1,0.2-2.2,0.6-3.2c0.4-1,1-1.8,1.7-2.5
		c0.7-0.7,1.6-1.2,2.5-1.7c1-0.4,2-0.6,3.2-0.6c1.2,0,2.2,0.2,3.2,0.6c1,0.4,1.8,1,2.5,1.7c0.7,0.7,1.3,1.6,1.7,2.5
		c0.4,1,0.6,2,0.6,3.2C95.3,22,95.2,23.1,94.7,24.1z M90.9,19.2c-0.2-0.5-0.4-1-0.8-1.4c-0.4-0.4-0.8-0.7-1.2-0.9
		c-0.4-0.2-1-0.4-1.5-0.4c-0.5,0-1,0.1-1.5,0.3c-0.5,0.2-0.9,0.5-1.2,0.9c-0.4,0.4-0.6,0.8-0.8,1.4c-0.2,0.5-0.3,1.1-0.3,1.7
		c0,0.6,0.1,1.2,0.3,1.7c0.2,0.5,0.5,1,0.8,1.3c0.4,0.4,0.8,0.7,1.2,0.9c0.5,0.2,1,0.3,1.5,0.3c0.6,0,1.1-0.1,1.5-0.3
		c0.4-0.2,0.9-0.5,1.2-0.9c0.4-0.4,0.6-0.8,0.8-1.3c0.2-0.5,0.3-1.1,0.3-1.7C91.1,20.3,91,19.7,90.9,19.2z"/>
	<path class="st0" d="M112.8,24.1c-0.4,1-1,1.8-1.7,2.5c-0.7,0.7-1.6,1.2-2.5,1.7c-1,0.4-2.1,0.6-3.2,0.6c-1.1,0-2.2-0.2-3.2-0.6
		c-1-0.4-1.8-0.9-2.5-1.7c-0.7-0.7-1.3-1.6-1.7-2.5c-0.4-1-0.6-2-0.6-3.1c0-1.1,0.2-2.2,0.6-3.2c0.4-1,1-1.8,1.7-2.5
		c0.7-0.7,1.6-1.2,2.5-1.7c1-0.4,2.1-0.6,3.2-0.6c1.2,0,2.2,0.2,3.2,0.6c1,0.4,1.8,1,2.5,1.7c0.7,0.7,1.3,1.6,1.7,2.5
		c0.4,1,0.6,2,0.6,3.2C113.4,22,113.2,23.1,112.8,24.1z M108.9,19.2c-0.2-0.5-0.5-1-0.8-1.4c-0.4-0.4-0.8-0.7-1.2-0.9
		c-0.4-0.2-1-0.4-1.6-0.4c-0.5,0-1,0.1-1.5,0.3c-0.5,0.2-0.9,0.5-1.2,0.9c-0.4,0.4-0.6,0.8-0.8,1.4c-0.2,0.5-0.3,1.1-0.3,1.7
		c0,0.6,0.1,1.2,0.3,1.7c0.2,0.5,0.5,1,0.8,1.3c0.4,0.4,0.8,0.7,1.2,0.9c0.5,0.2,1,0.3,1.5,0.3c0.6,0,1.1-0.1,1.6-0.3
		c0.4-0.2,0.9-0.5,1.2-0.9c0.4-0.4,0.6-0.8,0.8-1.3c0.2-0.5,0.3-1.1,0.3-1.7C109.3,20.3,109.2,19.7,108.9,19.2z"/>
	<path class="st0" d="M121.1,13.1c0.8-0.1,1.5-0.2,2.4-0.2c1.9,0,3.4,0.5,4.6,1.6c1.2,1.1,1.7,2.7,1.7,4.9v9.1h-4v-8.6
		c0-1.1-0.2-2-0.7-2.5c-0.4-0.6-1.1-0.9-1.8-0.9c-1.2,0-2.2,0.2-2.9,0.5v11.5h-4V12.2l2.8,1.5C119,13.7,120.3,13.2,121.1,13.1z"/>
	<path class="st0" d="M147.1,29.1l-2.8-1.1c-0.7,0.2-1.3,0.3-1.9,0.5c-0.6,0.1-1.2,0.2-1.9,0.2c-1.1,0-2.1-0.2-3.1-0.6
		c-0.9-0.4-1.8-1-2.5-1.7c-0.7-0.7-1.3-1.6-1.7-2.5c-0.4-1-0.6-2-0.6-3.1c0-1.2,0.2-2.3,0.6-3.2c0.4-1,0.9-1.8,1.7-2.5
		c0.7-0.7,1.5-1.2,2.5-1.7s2-0.6,3.2-0.6c1,0,1.9,0.1,2.6,0.4V6.7l4.1-1.2V29.1z M143,17.2c-0.4-0.3-0.9-0.4-1.2-0.5
		c-0.4-0.1-0.8-0.1-1.2-0.1c-0.6,0-1.1,0.1-1.5,0.3c-0.4,0.2-0.9,0.5-1.2,0.9c-0.4,0.4-0.6,0.8-0.8,1.3c-0.2,0.5-0.3,1.1-0.3,1.7
		c0,0.6,0.1,1.2,0.3,1.7c0.2,0.5,0.5,1,0.8,1.4c0.4,0.4,0.8,0.7,1.3,0.9c0.5,0.2,1,0.4,1.7,0.4c0.4,0,0.8-0.1,1.2-0.2
		c0.3-0.1,0.7-0.4,1.1-0.6L143,17.2L143,17.2z"/>
	<path class="st1" d="M83.8,40.7l0.2-1.5l0.5-5.9l0.2-3.4c0.4,0,0.8,0,1,0c0.3,0,0.6,0,1,0l0.2,0.7c0,0.2,0.1,0.4,0.2,0.7
		c0.1,0.3,0.2,0.7,0.4,1.2l1,2.8l1.2,3.7l1.6-3.7l1.8-4.1c0-0.1,0.1-0.3,0.2-0.5c0-0.2,0.2-0.4,0.3-0.8c0.4,0,0.7,0,1.1,0
		c0.3,0,0.6,0,1,0l-0.1,3.7l0,2.5c0,0.2,0,0.4,0,0.7v1.8v1c0,0.1,0,0.4,0,1c-0.4,0-0.6,0-0.7,0c-0.2,0-0.4,0-0.7,0l0-1l0.2-5.7
		c0-0.6,0-1.3,0-2.1v-0.7l-3.5,8.3l-0.4,1.2c-0.4,0-0.6,0-0.7,0c-0.2,0-0.4,0-0.8,0l-0.9-3l-1-2.9l-1-2.8c0-0.1-0.1-0.4-0.2-0.7
		l-0.1,1L85.2,39c0,0.2,0,0.4,0,0.7c0,0.2,0,0.6,0,1h-0.7C84.4,40.6,84.1,40.7,83.8,40.7z"/>
	<path class="st1" d="M98.2,33.9c0-0.2,0.1-0.6,0.1-1c0.6-0.2,1.2-0.3,1.7-0.4c0.4,0,0.9-0.1,1.4-0.1c0.5,0,0.9,0,1.3,0.1
		c0.4,0.1,0.8,0.2,1,0.4c0.3,0.2,0.4,0.4,0.5,0.7c0.1,0.3,0.1,0.5,0.1,0.8c0,0.4,0,1-0.1,1.8c0,0.8-0.1,1.7-0.1,2.4c0,0.7,0,1.4,0,2
		c-0.3,0-0.5,0-0.7,0c-0.2,0-0.4,0-0.7,0l0.2-2.1l0.1-2.5c-0.2,0.1-0.3,0.2-0.4,0.3c-0.1,0-0.2,0.1-0.3,0.2c-0.1,0-0.2,0.1-0.4,0.1
		c-0.1,0-0.4,0.1-0.8,0.2c-0.4,0.1-0.7,0.2-0.8,0.3c-0.4,0.1-0.7,0.2-0.8,0.4c-0.2,0.1-0.4,0.2-0.5,0.4c-0.1,0.1-0.2,0.3-0.3,0.4
		c-0.1,0.2-0.1,0.4-0.1,0.5c0,0.3,0.1,0.5,0.3,0.8c0.2,0.2,0.4,0.4,0.6,0.4c0.3,0.1,0.6,0.1,0.9,0.1c0.2,0,0.4,0,0.7,0
		c0.2,0,0.6-0.1,1-0.2c-0.1,0.2-0.2,0.5-0.3,0.9c-0.4,0.1-0.7,0.1-0.9,0.1s-0.5,0-0.7,0c-0.7,0-1.3-0.1-1.7-0.3
		c-0.4-0.2-0.7-0.4-0.9-0.8c-0.2-0.4-0.3-0.7-0.3-1.1c0-0.2,0-0.4,0.1-0.7c0.1-0.2,0.2-0.4,0.3-0.5c0.1-0.2,0.3-0.3,0.5-0.5
		c0.2-0.2,0.4-0.3,0.7-0.4c0.2-0.1,0.5-0.2,0.8-0.3c0.3-0.1,0.8-0.2,1.6-0.4c0.2,0,0.4-0.1,0.6-0.2c0.2,0,0.3-0.1,0.4-0.2
		c0.1,0,0.2-0.1,0.3-0.2c0.1-0.1,0.2-0.2,0.3-0.3c0.1-0.1,0.1-0.2,0.2-0.3c0-0.1,0-0.2,0-0.3c0-0.3-0.1-0.5-0.3-0.7
		c-0.2-0.2-0.4-0.3-0.7-0.4c-0.3-0.1-0.6-0.1-1-0.1c-0.4,0-0.7,0-1.1,0.1c-0.4,0-0.7,0.1-0.9,0.2C98.9,33.7,98.6,33.8,98.2,33.9z"/>
	<path class="st1" d="M106.4,40.7c0.3-3.3,0.4-6,0.4-8h0.7c0.2,0,0.4,0,0.7,0l-0.1,1.6c0.1-0.2,0.2-0.4,0.3-0.5
		c0.1-0.1,0.2-0.2,0.3-0.4c0.1-0.1,0.3-0.3,0.4-0.4c0.2-0.1,0.4-0.2,0.6-0.3c0.2-0.1,0.5-0.1,0.8-0.2c0.3,0,0.5,0,0.8,0
		c0.4,0,0.9,0,1.3,0.2c0.4,0.1,0.8,0.3,1,0.5c0.3,0.3,0.4,0.5,0.5,0.8c0.1,0.3,0.1,0.6,0.1,1c0,0.1,0,0.2,0,0.4c0,0.2,0,0.4,0,0.8
		l-0.2,3.3c0,0.3,0,0.7,0,1.2c-0.2,0-0.4,0-0.7,0c-0.3,0-0.5,0-0.7,0c0-0.6,0.1-1.2,0.1-1.8l0.1-1.8c0-0.6,0-1.1,0-1.4
		c0-0.4-0.1-0.8-0.2-1.1c-0.2-0.3-0.4-0.5-0.8-0.6c-0.4-0.1-0.8-0.2-1.2-0.2c-0.6,0-1.1,0.1-1.6,0.4c-0.4,0.3-0.7,0.7-0.9,1.2
		c-0.1,0.4-0.3,0.9-0.3,1.6c-0.1,0.8-0.1,2.1-0.2,3.9c-0.3,0-0.5,0-0.7,0C107,40.6,106.7,40.7,106.4,40.7z"/>
	<path class="st1" d="M116.8,33.9c0-0.2,0.1-0.6,0.1-1c0.6-0.2,1.2-0.3,1.7-0.4c0.4,0,0.9-0.1,1.4-0.1c0.5,0,0.9,0,1.3,0.1
		c0.4,0.1,0.8,0.2,1,0.4c0.3,0.2,0.4,0.4,0.5,0.7c0.1,0.3,0.1,0.5,0.1,0.8c0,0.4,0,1-0.1,1.8c0,0.8-0.1,1.7-0.1,2.4c0,0.7,0,1.4,0,2
		c-0.3,0-0.5,0-0.7,0c-0.2,0-0.4,0-0.7,0l0.2-2.1l0.1-2.5c-0.2,0.1-0.3,0.2-0.4,0.3c-0.1,0-0.2,0.1-0.3,0.2c-0.1,0-0.2,0.1-0.4,0.1
		c-0.1,0-0.4,0.1-0.8,0.2c-0.4,0.1-0.7,0.2-0.8,0.3c-0.4,0.1-0.7,0.2-0.8,0.4c-0.2,0.1-0.4,0.2-0.5,0.4c-0.1,0.1-0.2,0.3-0.3,0.4
		c-0.1,0.2-0.1,0.4-0.1,0.5c0,0.3,0.1,0.5,0.3,0.8c0.2,0.2,0.4,0.4,0.6,0.4c0.3,0.1,0.6,0.1,0.9,0.1c0.2,0,0.4,0,0.7,0
		c0.2,0,0.6-0.1,1-0.2c-0.1,0.2-0.2,0.5-0.3,0.9c-0.4,0.1-0.7,0.1-0.9,0.1s-0.5,0-0.7,0c-0.7,0-1.3-0.1-1.7-0.3
		c-0.4-0.2-0.7-0.4-0.9-0.8c-0.2-0.4-0.3-0.7-0.3-1.1c0-0.2,0-0.4,0.1-0.7c0.1-0.2,0.2-0.4,0.3-0.5c0.1-0.2,0.3-0.3,0.5-0.5
		c0.2-0.2,0.4-0.3,0.7-0.4c0.2-0.1,0.5-0.2,0.8-0.3c0.3-0.1,0.8-0.2,1.6-0.4c0.2,0,0.4-0.1,0.6-0.2c0.2,0,0.3-0.1,0.4-0.2
		c0.1,0,0.2-0.1,0.3-0.2c0.1-0.1,0.2-0.2,0.3-0.3c0.1-0.1,0.1-0.2,0.2-0.3c0-0.1,0-0.2,0-0.3c0-0.3-0.1-0.5-0.3-0.7
		c-0.2-0.2-0.4-0.3-0.7-0.4c-0.3-0.1-0.6-0.1-1-0.1c-0.4,0-0.7,0-1.1,0.1c-0.4,0-0.7,0.1-0.9,0.2C117.5,33.7,117.2,33.8,116.8,33.9z
		"/>
	<path class="st1" d="M125.5,43c0.7,0.2,1.3,0.4,1.7,0.4c0.4,0.1,0.9,0.1,1.3,0.1c0.4,0,0.8,0,1.2-0.2c0.3-0.1,0.6-0.2,0.8-0.4
		c0.2-0.1,0.3-0.3,0.4-0.5c0.1-0.3,0.2-0.7,0.3-1.2c0-0.4,0.1-1.1,0.1-2.2c-0.1,0.2-0.2,0.4-0.4,0.6c-0.1,0.1-0.2,0.3-0.4,0.4
		c-0.2,0.1-0.4,0.3-0.6,0.4c-0.2,0.1-0.5,0.2-0.8,0.3c-0.3,0.1-0.6,0.1-0.9,0.1c-0.5,0-0.9,0-1.3-0.2c-0.4-0.1-0.8-0.4-1.1-0.7
		c-0.3-0.3-0.6-0.7-0.8-1.2c-0.2-0.5-0.3-1-0.3-1.5c0-0.7,0.1-1.4,0.4-2s0.6-1.2,1.1-1.6c0.5-0.4,1-0.8,1.7-0.9
		c0.6-0.2,1.3-0.3,2.1-0.3c0.8,0,1.8,0.1,3,0.3l-0.1,1l-0.2,4.4c0,0.1,0,0.6,0,1.6l0,1.7c0,0.4-0.1,0.7-0.1,0.9
		c0,0.2-0.1,0.4-0.3,0.6c-0.1,0.2-0.2,0.4-0.4,0.5c-0.1,0.1-0.3,0.3-0.5,0.4c-0.2,0.1-0.4,0.2-0.6,0.3c-0.3,0.1-0.6,0.2-0.9,0.2
		c-0.4,0-0.7,0.1-1.1,0.1c-0.5,0-1,0-1.5-0.1c-0.5,0-1.1-0.1-1.7-0.3l0-0.4C125.5,43.6,125.5,43.3,125.5,43z M131.6,33.7
		c-0.6-0.1-1.2-0.2-1.7-0.2c-0.5,0-1,0-1.4,0.2c-0.4,0.1-0.8,0.4-1.2,0.7c-0.4,0.3-0.7,0.8-0.8,1.2c-0.2,0.5-0.3,1-0.3,1.6
		c0,0.5,0.1,1,0.3,1.4c0.2,0.4,0.5,0.8,0.8,0.9c0.4,0.2,0.8,0.3,1.3,0.3c0.4,0,0.8-0.1,1.2-0.2c0.3-0.1,0.6-0.4,0.9-0.7
		c0.3-0.3,0.4-0.7,0.6-1.1c0.1-0.3,0.2-0.7,0.2-1.3C131.5,36,131.5,35.1,131.6,33.7z"/>
	<path class="st1" d="M141.4,39.4c0,0.3-0.1,0.7-0.2,1.1c-0.5,0.1-0.9,0.2-1.3,0.3s-0.8,0.1-1.1,0.1c-0.7,0-1.2-0.1-1.8-0.2
		c-0.5-0.2-1-0.4-1.3-0.8c-0.4-0.4-0.6-0.8-0.8-1.3c-0.2-0.5-0.2-1-0.2-1.6c0-0.8,0.1-1.5,0.4-2.2c0.3-0.7,0.8-1.2,1.3-1.6
		c0.6-0.4,1.4-0.6,2.3-0.6c0.5,0,0.9,0.1,1.4,0.2s0.8,0.4,1.1,0.6c0.3,0.3,0.5,0.6,0.7,1.1c0.2,0.4,0.2,0.9,0.2,1.4
		c0,0.2,0,0.4,0,0.5h-6c0,0.3,0,0.5,0,0.7c0,0.5,0.1,1.1,0.4,1.5c0.2,0.4,0.6,0.8,1,1.1c0.4,0.2,1,0.4,1.6,0.4
		C139.6,39.9,140.4,39.7,141.4,39.4z M136.1,35.6h4.7c0-0.3,0-0.6,0-0.8c0-0.2-0.1-0.4-0.2-0.6c-0.1-0.2-0.2-0.4-0.4-0.5
		c-0.2-0.1-0.4-0.3-0.6-0.3c-0.2-0.1-0.5-0.1-0.8-0.1c-0.3,0-0.6,0-0.8,0.1c-0.3,0.1-0.5,0.2-0.7,0.4c-0.2,0.1-0.4,0.3-0.5,0.5
		c-0.1,0.2-0.3,0.4-0.3,0.6C136.3,35.1,136.2,35.3,136.1,35.6z"/>
	<path class="st1" d="M143.5,40.7c0.2-3,0.3-5.4,0.3-7.3v-0.7c0.3,0,0.5,0,0.7,0c0.2,0,0.4,0,0.7,0l0,1.3c0.2-0.3,0.4-0.6,0.5-0.8
		c0.1-0.2,0.3-0.3,0.5-0.4c0.2-0.1,0.4-0.2,0.6-0.3c0.2,0,0.5-0.1,0.8-0.1c0.2,0,0.4,0,0.7,0.1c0,0.4,0,0.8,0,1.2
		c-0.3-0.1-0.6-0.1-0.9-0.1c-0.3,0-0.6,0-0.8,0.1c-0.3,0.1-0.5,0.3-0.7,0.4c-0.2,0.2-0.4,0.4-0.5,0.8c-0.1,0.2-0.2,0.5-0.2,0.9
		c0,0.4-0.1,1-0.1,2c0,0.7,0,1.5,0,2.3v0.6c-0.3,0-0.5,0-0.7,0C144.1,40.6,143.9,40.7,143.5,40.7z"/>
</g>
<g id="Calque_2">
	<g>
		<g id="Calque_1_00000026874060303432529280000010808271654722505917_">
			<path class="st2" d="M35.8,22.2c2.2-5.4-1.1-11.5-0.8-12.9c0.3-1.2-1-1.8-1.7-0.7c-1,1.5-9.5,6.6-6.2,15.6"/>
			<path class="st3" d="M27.1,24.4c-0.1,0-0.2-0.1-0.2-0.2c-2.7-7.5,2.6-12.3,5.1-14.6c0.6-0.5,1-0.9,1.2-1.2
				c0.5-0.7,1.1-0.8,1.5-0.6c0.5,0.2,0.8,0.8,0.6,1.5c-0.1,0.4,0.2,1.3,0.4,2.4c0.7,2.7,1.8,6.8,0.3,10.6c-0.1,0.1-0.2,0.2-0.3,0.1
				c-0.1-0.1-0.2-0.2-0.1-0.3c1.5-3.6,0.4-7.6-0.3-10.2c-0.3-1.2-0.6-2.1-0.4-2.6c0.1-0.5-0.1-0.8-0.3-0.9c-0.2-0.1-0.6,0-0.9,0.4
				C33.4,9.1,33,9.5,32.3,10c-2.5,2.2-7.6,6.9-5,14.1C27.4,24.2,27.3,24.4,27.1,24.4C27.2,24.4,27.2,24.4,27.1,24.4"/>
			<path class="st4" d="M35.8,13c-0.4-1.7-0.9-3.1-0.8-3.8c0.3-1.2-1-1.8-1.7-0.7c-0.4,0.6-1.7,1.6-3.1,3.1
				C30.7,13.9,35.2,13.9,35.8,13"/>
			<path class="st4" d="M33.8,13.8c-0.4,0-0.9,0-1.3-0.1c-1.4-0.3-2.3-1-2.5-2c0-0.1,0-0.2,0.1-0.2c0.7-0.8,1.4-1.4,2-1.9
				s1-0.9,1.2-1.2c0.5-0.7,1.1-0.8,1.5-0.6c0.5,0.2,0.8,0.8,0.6,1.5c-0.1,0.4,0.2,1.5,0.5,2.7c0.1,0.3,0.2,0.6,0.2,0.9
				c0,0.1,0,0.1,0,0.2C35.7,13.6,34.8,13.8,33.8,13.8 M30.5,11.8c0.3,0.9,1.4,1.3,2.1,1.5c1.2,0.3,2.5,0.1,2.9-0.3
				c-0.1-0.3-0.1-0.5-0.2-0.8c-0.4-1.4-0.7-2.4-0.5-3c0.1-0.5-0.1-0.8-0.3-0.9c-0.2-0.1-0.6,0-0.9,0.4C33.4,9.1,33,9.5,32.3,10
				C31.8,10.5,31.2,11.1,30.5,11.8"/>
			<path class="st3" d="M33.8,12.1c-0.4,0.9-2.8,2.6-2.9,5.3c0.5,0.3,2.6,3.5,2.7,4.1c0.4-0.1,2.4-4.3-0.1-8.5
				C33.5,12.9,33.9,11.8,33.8,12.1"/>
			<path class="st3" d="M33.6,21.7c-0.1,0-0.2-0.1-0.3-0.2c-0.1-0.5-2.1-3.6-2.5-3.9c-0.1,0-0.1-0.1-0.1-0.2c0-2,1.3-3.5,2.2-4.5
				c0.3-0.4,0.6-0.7,0.7-0.9c0.1-0.3,0.3-0.2,0.4-0.2c0.2,0.1,0.1,0.3,0.1,0.4c-0.1,0.3-0.2,0.5-0.2,0.6c1.9,3.3,1.1,6.6,0.4,8.1
				C33.9,21.7,33.7,21.7,33.6,21.7C33.6,21.7,33.6,21.7,33.6,21.7 M31.2,17.3c0.6,0.5,2,2.7,2.5,3.7c0.5-1,1.6-4.4-0.3-7.8
				c0,0-0.1,0.1-0.1,0.1C32.4,14.2,31.3,15.5,31.2,17.3"/>
			<path class="st5" d="M31.5,16.3c0-1.2,0.8-1.6,1-1.6c0.2,0-0.3,0.9-0.3,1c0,0.1,0.3,0,0.7,0c0.2,0-0.5,0.4-0.3,0.7
				c0.3,0.3,0.5,0.7,1,1.7C32.9,17.4,32.1,16.8,31.5,16.3"/>
			<path class="st5" d="M33,37.5c-0.3,0.8-4.8,2.3-5.8,1.8c-3.4-1.6-13.3-1.2-17-7.7c-0.2-0.4,3.3,0,3.2-0.4c-0.1-0.4,0-8.1,1.3-8.5
				s19.4-2.4,20-1.9s2,2,3.5,5.6c0.7-0.2,1.6-1.4,1.6-0.8C39.6,31,34.5,33.3,33,37.5"/>
			<path class="st6" d="M27.7,39.6c-0.3,0-0.5,0-0.7-0.1c-1-0.4-2.4-0.7-4.2-1.1c-4.3-0.8-10.3-2-13-6.8c-0.1-0.1-0.1-0.2,0-0.3
				c0.1-0.3,0.6-0.3,1.8-0.3c0.4,0,1,0,1.3,0c0-0.6,0-2.4,0.2-4.1c0.4-4.2,1.1-4.4,1.4-4.5c0.7-0.2,5.9-0.8,10.3-1.3
				c9.4-0.9,9.8-0.7,9.9-0.5c0.6,0.5,2,2,3.4,5.4c0.2-0.1,0.4-0.3,0.6-0.4c0.4-0.3,0.6-0.5,0.9-0.4c0.1,0,0.2,0.2,0.2,0.4
				c0,3.3-1.9,5.5-3.7,7.5c-1.2,1.4-2.4,2.7-3,4.3c-0.1,0.3-0.7,0.7-1.7,1.1C30.5,39.1,28.8,39.6,27.7,39.6 M10.5,31.7
				c2.7,4.4,8.3,5.5,12.5,6.3c1.8,0.3,3.3,0.6,4.3,1.1c0.5,0.2,2.4-0.2,4.1-0.9c1-0.4,1.3-0.7,1.4-0.8c0.6-1.7,1.9-3.1,3.1-4.5
				c1.7-2,3.5-4,3.6-7c-0.1,0.1-0.2,0.1-0.3,0.2c-0.3,0.2-0.6,0.5-1,0.6c-0.1,0-0.3,0-0.3-0.1c-1.4-3.4-2.8-4.9-3.4-5.4
				c-0.4-0.1-3.6,0-9.8,0.7c-4.8,0.5-9.4,1.1-10,1.2c-1,0.3-1.3,7.4-1.1,8.2c0,0.1,0,0.2,0,0.3c-0.2,0.2-0.6,0.2-1.8,0.2
				C11.4,31.6,10.8,31.6,10.5,31.7 M13.1,31.2C13.1,31.3,13.1,31.3,13.1,31.2C13.1,31.3,13.1,31.3,13.1,31.2"/>
			<path class="st2" d="M10.2,31.4c-0.2,0.1,4.4,1,4.3,0.5c-0.8-5.1,1.5-8.5,2.9-8.7c6.6-0.6,9.1,8.2,9.2,8.3c0,0.1,0.8,1.3,1.2,1.5
				c0.4,0.2,4.1-0.5,3.7-0.8c-0.4-0.3-1.1-1.2-1.1-1.5c-0.1-0.2-0.5-9,2.8-9.1c2.9-0.1,4.5,4.8,4.9,4.8c0.3,0-1.9-7.1-7.5-10.4
				c-2.6-1.5-11.8-0.7-14.1,1.5c-5,4.9-3.6,11.9-3.7,12.2C12.7,30.2,10.5,31.3,10.2,31.4"/>
			<path class="st3" d="M28,33.3c-0.2,0-0.3,0-0.4-0.1c-0.5-0.3-1.3-1.5-1.3-1.7c-0.1-0.2-0.7-2.4-2.2-4.4c-1.9-2.7-4.1-4-6.7-3.7
				c-0.4,0-0.8,0.4-1.2,0.9c-1,1.3-1.9,4-1.4,7.5c0,0.1,0,0.4-0.4,0.4c-0.5,0.1-1.8-0.1-2.4-0.2c-1.9-0.3-1.9-0.5-1.9-0.6
				c0-0.1,0.1-0.3,0.2-0.3c0.4-0.1,2.3-1.1,2.4-1.5c0,0,0-0.2,0-0.3c-0.7-6.3,1.7-10.1,3.8-12.1c2.4-2.4,11.7-3,14.4-1.5
				c5.5,3.1,7.8,9.9,7.7,10.6c0,0.1-0.1,0.2-0.3,0.2c-0.3,0-0.4-0.2-0.8-1c-0.8-1.3-2.2-3.8-4.1-3.8c-0.5,0-0.9,0.2-1.2,0.7
				c-1.6,2-1.4,7.7-1.4,8.1c0,0.2,0.6,1,1,1.3c0.1,0.1,0.2,0.3,0.1,0.4C31.4,32.8,29,33.3,28,33.3 M18,22.9c6.1,0,8.7,8.2,8.8,8.5
				c0.1,0.2,0.8,1.2,1.1,1.4c0.3,0.1,2.5-0.3,3.2-0.6c-0.4-0.4-0.9-1.1-1-1.4c-0.1-0.2-0.4-6,1.3-8.4c0.5-0.7,1.1-1,1.7-1
				c2.1-0.1,3.5,2.2,4.4,3.7c-0.8-2.2-3.1-6.5-7.1-8.8c-2.5-1.4-11.5-0.8-13.8,1.4c-2,2-4.3,5.6-3.6,11.7c0,0.2,0,0.3,0,0.4
				c-0.1,0.5-1.4,1.2-2.2,1.6c1,0.2,2.8,0.5,3.3,0.4c-0.5-3.6,0.5-6.4,1.6-7.7c0.5-0.7,1.1-1,1.6-1.1C17.6,22.9,17.8,22.9,18,22.9
				 M10.2,31.4L10.2,31.4z"/>
			<path class="st2" d="M20.6,19.4c0.2-3.8-4.1-8.3-4.2-9.7c-0.1-1.2-1.5-1.4-1.8-0.1c-0.5,1.7-7.1,9.1-1.3,16.7"/>
			<path class="st3" d="M13.2,26.5c-0.1,0-0.2,0-0.2-0.1c-4.8-6.3-1.2-12.5,0.5-15.5c0.4-0.7,0.7-1.2,0.8-1.5
				c0.2-0.9,0.8-1.1,1.3-1.1c0.6,0.1,1,0.6,1,1.2c0,0.5,0.6,1.4,1.3,2.4c1.3,2,3.1,4.8,2.9,7.3c0,0.1-0.1,0.2-0.3,0.2
				c-0.1,0-0.2-0.1-0.2-0.3c0.1-2.3-1.6-5-2.8-7c-0.8-1.2-1.3-2.1-1.4-2.7c0-0.5-0.3-0.7-0.6-0.8c-0.3,0-0.6,0.1-0.7,0.7
				c-0.1,0.4-0.4,0.9-0.8,1.6c-1.7,2.9-5.2,8.8-0.6,14.9c0.1,0.1,0.1,0.3,0,0.4C13.3,26.5,13.3,26.5,13.2,26.5"/>
			<path class="st4" d="M18.6,13.7c-1.1-1.8-2.2-3.2-2.2-4c-0.1-1.2-1.5-1.4-1.8-0.1c-0.2,0.8-1.7,2.7-2.7,5.4
				C12.4,16,17,15.9,18.6,13.7"/>
			<path class="st4" d="M14,15.9c-0.1,0-0.3,0-0.4,0c-1-0.1-1.8-0.4-2-0.8c0-0.1,0-0.1,0-0.2c0.6-1.6,1.4-2.9,2-3.9
				c0.4-0.7,0.7-1.2,0.8-1.5c0.2-0.9,0.8-1.1,1.3-1.1c0.6,0.1,1,0.6,1,1.2c0,0.5,0.6,1.4,1.3,2.4c0.3,0.4,0.6,0.9,0.9,1.4
				c0.1,0.1,0,0.2,0,0.3C17.8,15.3,15.7,15.9,14,15.9 M12.1,14.9c0.2,0.2,0.7,0.4,1.5,0.5c1.6,0.1,3.7-0.5,4.6-1.7
				c-0.3-0.4-0.5-0.8-0.8-1.2c-0.8-1.2-1.3-2.1-1.4-2.7c0-0.5-0.3-0.7-0.6-0.8c-0.3,0-0.6,0.1-0.7,0.7c-0.1,0.4-0.4,0.9-0.8,1.6
				C13.4,12.2,12.7,13.4,12.1,14.9"/>
			<path class="st3" d="M14.7,14.4c0.4,0.9,2.7,2.8,2.6,5.4c-0.5,0.3-2.7,3.3-2.9,3.9c-0.4-0.1-2.1-4.5,0.5-8.5
				C15,15.2,14.6,14.1,14.7,14.4"/>
			<path class="st3" d="M14.4,24C14.4,24,14.4,24,14.4,24c-0.1,0-0.3-0.1-0.6-0.7c-0.6-1.5-1.2-5,0.9-8.1c0-0.1-0.1-0.3-0.2-0.6
				c0-0.1-0.1-0.4,0.1-0.4c0.1,0,0.2-0.1,0.3,0.2c0.1,0.2,0.3,0.5,0.6,0.9c0.8,1,2,2.6,1.9,4.6c0,0.1-0.1,0.2-0.1,0.2
				c-0.5,0.3-2.6,3.2-2.7,3.7C14.7,23.9,14.5,24,14.4,24 M15.1,15.5c-2.1,3.3-1.3,6.8-0.8,7.8c0.5-1,2.1-3,2.7-3.5
				C17.1,17.9,16,16.6,15.1,15.5C15.2,15.5,15.2,15.5,15.1,15.5 M17.3,19.9L17.3,19.9z M14.7,15.1L14.7,15.1"/>
			<path class="st5" d="M17.3,20.2c-0.3-1.2-1.1-1.4-1.3-1.3c-0.2,0,0.5,0.8,0.5,0.9c0,0.1-0.3,0.1-0.7,0.2
				c-0.2,0.1,0.6,0.3,0.4,0.6c-0.2,0.4-0.4,0.8-0.6,1.9C16.2,21.4,16.8,20.8,17.3,20.2"/>
			<path class="st7" d="M31.3,35.3c0.2,0.3,0.3,0.8,0.1,1.1c-0.3,0.3-3.4,0.7-4.3,0.3c-1.1-0.5-2-2-2.2-2.3"/>
			<path class="st8" d="M28.4,37.1c-0.6,0-1.2-0.1-1.5-0.2c-0.9-0.4-1.7-1.5-2.1-2.1c-0.1-0.1-0.2-0.2-0.2-0.3
				c-0.1-0.1-0.1-0.3,0-0.4s0.3-0.1,0.4,0c0.1,0.1,0.1,0.2,0.2,0.3c0.4,0.5,1.1,1.5,1.9,1.9c0.8,0.4,3.7,0,4.1-0.2
				c0.2-0.2,0.1-0.6-0.1-0.8c-0.1-0.1,0-0.3,0.1-0.4c0.1-0.1,0.3,0,0.4,0.1c0.3,0.4,0.4,1,0.1,1.4C31.3,36.9,29.7,37.1,28.4,37.1"/>
			<g class="st9">
				<g>
					<defs>
						<rect id="SVGID_1_" x="24.6" y="34.5" width="6.9" height="1.9"/>
					</defs>
					<clipPath id="SVGID_00000018213430374204978710000003889209683311201202_">
						<use xlink:href="#SVGID_1_"  style="overflow:visible;"/>
					</clipPath>
					<g style="clip-path:url(#SVGID_00000018213430374204978710000003889209683311201202_);">
						<path class="st8" d="M31.6,36.3c-0.8-1.1-5.1-1.6-5.3,0.1c-0.4-0.2-1.5-1.7-1.6-1.9s6.9,0.3,6.9,0.3
							C31.6,35.3,31.5,36.1,31.6,36.3"/>
					</g>
				</g>
			</g>
			<path class="st5" d="M33.4,33.8c-0.1,0.2-0.7,1-0.9,1.2c-0.3,0.2-3.1,0.6-5.6,1.4c-0.7,0.2-5.4-2.1-5.6-2.5"/>
			<path class="st6" d="M26.8,36.7c-1.2,0-5.5-2.2-5.7-2.6c-0.1-0.1,0-0.3,0.1-0.3c0.1-0.1,0.3,0,0.3,0.1c0.1,0.1,1.2,0.7,2.5,1.4
				c1.8,0.9,2.6,1,2.7,1c1.6-0.5,3.2-0.9,4.3-1.1c0.5-0.1,1.1-0.2,1.2-0.3c0.2-0.2,0.8-0.9,0.8-1c0-0.1,0.2-0.2,0.3-0.2
				c0.1,0,0.2,0.2,0.2,0.3c-0.1,0.3-0.7,1.1-1,1.3c-0.1,0.1-0.5,0.2-1.4,0.4c-1.1,0.2-2.8,0.6-4.3,1.1
				C26.9,36.7,26.8,36.7,26.8,36.7 M21.5,33.8L21.5,33.8L21.5,33.8"/>
			<path class="st11" d="M31.6,32c-1.1-0.2-3.8,0.5-4,0.8s0.6,1.2,0.8,1.3c0.2,0.1,2.4-0.4,2.7-0.6C31.6,33.1,31.8,32.1,31.6,32"/>
			<path class="st11" d="M28.4,34.3c-0.1,0-0.1,0-0.1,0c-0.3-0.1-0.9-0.9-1-1.3c-0.1-0.2,0-0.4,0.1-0.4c0.3-0.3,3.1-1,4.2-0.8
				c0.1,0,0.2,0.1,0.3,0.3c0.1,0.4-0.1,1.2-0.6,1.6C30.9,33.9,29,34.3,28.4,34.3 M27.8,32.9c0.1,0.2,0.5,0.8,0.6,0.9
				c0.4,0,2.2-0.4,2.5-0.6c0.3-0.2,0.4-0.7,0.4-1C30.4,32.2,28.3,32.7,27.8,32.9"/>
			<path class="st12" d="M31.7,29.7c-0.7-4.2,1-6.4,2.2-5.9c1,0.4,1.4,2.9,1.4,3.5C35.1,29.3,31.8,30.5,31.7,29.7"/>
			<path class="st6" d="M31.6,29.7c0,0,0-0.1,0-0.2c0-0.1,0-0.3-0.1-0.5c-0.1-0.4-0.1-1.1-0.1-1.8c0-0.4,0.1-0.8,0.2-1.2
				c0.1-0.4,0.2-0.9,0.5-1.3c0.1-0.2,0.3-0.4,0.5-0.6c0.2-0.2,0.4-0.4,0.7-0.5c0.1,0,0.3-0.1,0.5-0.1c0.1,0,0.2,0,0.2,0
				c0,0,0.1,0,0.1,0c0,0,0.1,0,0.1,0c0.2,0.1,0.3,0.2,0.4,0.3c0.1,0.1,0.2,0.2,0.3,0.3c0.3,0.5,0.5,1,0.6,1.5c0.1,0.5,0.2,1,0.2,1.5
				c0,0.5-0.2,1-0.5,1.4c-0.3,0.4-0.6,0.6-1,0.9c-0.3,0.2-0.7,0.4-1,0.5c-0.3,0.1-0.6,0.2-0.8,0.2c-0.2,0-0.5,0-0.6-0.1
				C31.6,29.8,31.6,29.7,31.6,29.7L31.6,29.7L31.6,29.7z M31.8,29.6C31.8,29.6,31.8,29.7,31.8,29.6c0.1,0.1,0.2,0.2,0.4,0.1
				c0.4,0,1-0.2,1.6-0.7c0.3-0.2,0.6-0.5,0.8-0.8c0.2-0.3,0.4-0.7,0.4-1.1c0-0.4-0.1-0.9-0.2-1.4c-0.1-0.5-0.3-0.9-0.5-1.3
				c-0.1-0.1-0.1-0.2-0.2-0.3c-0.1-0.1-0.2-0.2-0.2-0.2c-0.2-0.1-0.3-0.1-0.5-0.1c-0.4,0.1-0.7,0.5-0.9,0.8
				c-0.2,0.4-0.4,0.8-0.5,1.2c-0.1,0.4-0.2,0.8-0.2,1.2c-0.1,0.7,0,1.4,0,1.8c0,0.2,0,0.4,0.1,0.5C31.8,29.6,31.8,29.6,31.8,29.6
				L31.8,29.6L31.8,29.6z"/>
			<path class="st13" d="M31.7,26.9c0,0.9,0.5,1.7,1.1,1.7c0.6,0,1.1-0.8,1.1-1.7c0-0.9-0.5-1.7-1.1-1.7
				C32.1,25.3,31.6,26,31.7,26.9"/>
			<path class="st14" d="M32.8,28.7c-0.3,0-0.6-0.2-0.9-0.5c-0.2-0.3-0.4-0.8-0.4-1.2c0-0.5,0.1-0.9,0.3-1.3
				c0.2-0.4,0.5-0.6,0.9-0.6c0.3,0,0.7,0.2,0.9,0.5c0.2,0.3,0.4,0.8,0.4,1.2c0,0.5-0.1,0.9-0.3,1.3C33.5,28.5,33.2,28.7,32.8,28.7
				C32.8,28.7,32.8,28.7,32.8,28.7 M32.7,25.4C32.7,25.4,32.7,25.4,32.7,25.4c-0.3,0-0.5,0.2-0.7,0.5c-0.2,0.3-0.3,0.7-0.3,1.1
				c0,0.4,0.1,0.8,0.3,1.1c0.2,0.3,0.4,0.4,0.7,0.4c0.2,0,0.5-0.2,0.7-0.5c0.2-0.3,0.3-0.7,0.3-1.1c0-0.4-0.1-0.8-0.3-1.1
				C33.2,25.5,33,25.4,32.7,25.4"/>
			<path class="st14" d="M32.2,26.8c0,0.5,0.3,0.9,0.6,0.9c0.3,0,0.6-0.4,0.5-0.9c0-0.5-0.3-0.9-0.6-0.9
				C32.4,25.9,32.2,26.3,32.2,26.8"/>
			<g>
				<g>
					<defs>
						<rect id="SVGID_00000112592565600411789870000002385713577846939281_" x="31.7" y="25.2" width="2.2" height="3"/>
					</defs>
					<clipPath id="SVGID_00000141449822506249433230000012409318206736329369_">
						<use xlink:href="#SVGID_00000112592565600411789870000002385713577846939281_"  style="overflow:visible;"/>
					</clipPath>
					<g style="clip-path:url(#SVGID_00000141449822506249433230000012409318206736329369_);">
						<path class="st13" d="M31.7,26.9c0,0.2,0,0.8,0.4,1.3c0.2-0.9,1.4-2.1,1.8-1.5c0-0.9-0.5-1.5-1.1-1.5S31.6,26,31.7,26.9"/>
					</g>
				</g>
			</g>
			<path class="st12" d="M32,26c0,0.3,0.2,0.5,0.5,0.5c0.3,0,0.5-0.2,0.5-0.5c0-0.3-0.2-0.5-0.5-0.5C32.2,25.5,32,25.7,32,26"/>
			<path class="st6" d="M31.6,29.7c0,0,0-0.1,0-0.2c0-0.1,0-0.3-0.1-0.5c-0.1-0.4-0.1-1.1-0.1-1.8c0-0.4,0.1-0.8,0.2-1.2
				c0.1-0.4,0.2-0.9,0.5-1.3c0.1-0.2,0.3-0.4,0.5-0.6c0.2-0.2,0.4-0.4,0.7-0.5c0.1,0,0.3-0.1,0.5-0.1c0.1,0,0.2,0,0.2,0
				c0,0,0.1,0,0.1,0c0,0,0.1,0,0.1,0c0.2,0.1,0.3,0.2,0.4,0.3c0.1,0.1,0.2,0.2,0.3,0.3c0.3,0.5,0.5,1,0.6,1.5c0.1,0.5,0.2,1,0.2,1.5
				c0,0.5-0.2,1-0.5,1.4c-0.3,0.4-0.6,0.6-1,0.9c-0.3,0.2-0.7,0.4-1,0.5c-0.3,0.1-0.6,0.2-0.8,0.2c-0.2,0-0.5,0-0.6-0.1
				C31.6,29.8,31.6,29.7,31.6,29.7L31.6,29.7L31.6,29.7z M31.8,29.6C31.8,29.6,31.8,29.7,31.8,29.6c0.1,0.1,0.2,0.2,0.4,0.1
				c0.4,0,1-0.2,1.6-0.7c0.3-0.2,0.6-0.5,0.8-0.8c0.2-0.3,0.4-0.7,0.4-1.1c0-0.4-0.1-0.9-0.2-1.4c-0.1-0.5-0.3-0.9-0.5-1.3
				c-0.1-0.1-0.1-0.2-0.2-0.3c-0.1-0.1-0.2-0.2-0.2-0.2c-0.2-0.1-0.3-0.1-0.5-0.1c-0.4,0.1-0.7,0.5-0.9,0.8
				c-0.2,0.4-0.4,0.8-0.5,1.2c-0.1,0.4-0.2,0.8-0.2,1.2c-0.1,0.7,0,1.4,0,1.8c0,0.2,0,0.4,0.1,0.5C31.8,29.6,31.8,29.6,31.8,29.6
				L31.8,29.6L31.8,29.6z"/>
			<path class="st4" d="M23.7,30.2C23.7,30.2,23.6,30.2,23.7,30.2c-0.1-0.1-0.1-0.1-0.2-0.2c-0.1-0.1-0.1-0.1-0.2-0.2
				c-0.1-0.1-0.2-0.1-0.3-0.2c-0.1-0.1-0.3-0.1-0.4-0.2c-0.2-0.1-0.3-0.1-0.5-0.2c-0.2,0-0.4-0.1-0.6-0.1s-0.4,0-0.6,0
				c-0.2,0-0.4,0-0.6,0c-0.2,0-0.4,0-0.6,0.1c-0.4,0.1-0.7,0.2-1,0.3c-0.3,0.1-0.5,0.2-0.6,0.3c-0.1,0.1-0.1,0.1-0.1,0.1
				c0,0,0,0,0,0l0,0c0,0.1-0.1,0.1-0.2,0c-0.1,0-0.1-0.1-0.1-0.2c0,0,0,0,0-0.1c0-0.1,0.1-0.1,0.1-0.2c0.1-0.2,0.3-0.3,0.6-0.5
				c0.3-0.2,0.6-0.3,1-0.4c0.2,0,0.4-0.1,0.6-0.1c0.2,0,0.4,0,0.6,0c0.4,0,0.9,0.1,1.2,0.2c0.4,0.1,0.7,0.3,1,0.5
				c0.1,0.1,0.3,0.2,0.3,0.3c0.1,0.1,0.2,0.2,0.2,0.2c0.1,0.1,0.2,0.2,0.2,0.2l0,0c0,0.1,0,0.1,0,0.2C23.8,30.2,23.7,30.2,23.7,30.2
				"/>
			<path class="st4" d="M23.5,23.4c-0.4-0.3-0.7-0.6-1.3-0.8c-0.2-0.1-0.1-0.4,0-0.4c0.6-0.1,1.3,0.2,1.7,0.6
				C24.2,23,23.8,23.6,23.5,23.4"/>
			<path class="st4" d="M30.3,22.3c0.3-0.4,0.5-0.8,1-1.2c0.2-0.1,0-0.4-0.2-0.4c-0.6,0-1.2,0.5-1.4,1
				C29.5,22.2,30.1,22.7,30.3,22.3"/>
			<path class="st2" d="M23.9,15.3c1.2-0.1,2.1-1.3,2.2-1.2s0.4,1.2-0.4,1.9c0.4,0.1,0.8,0.2,1.2,0.5"/>
			<path class="st3" d="M26.9,16.8c-0.1,0-0.1,0-0.1,0c-0.4-0.3-0.8-0.4-1.1-0.4l0,0c-0.1,0-0.2-0.1-0.2-0.2c0-0.1,0-0.2,0.1-0.3
				c0.5-0.5,0.5-1,0.5-1.3c0,0,0,0,0,0c-0.4,0.3-1.1,1-2,1c-0.1,0-0.3-0.1-0.3-0.2c0-0.1,0.1-0.3,0.2-0.3c0.7-0.1,1.3-0.6,1.7-0.9
				c0.2-0.2,0.4-0.3,0.5-0.3c0.1,0,0.2,0.1,0.2,0.1c0.2,0.2,0.4,1.1-0.2,1.9c0.3,0.1,0.6,0.2,0.9,0.4c0.1,0.1,0.1,0.2,0.1,0.4
				C27,16.8,27,16.8,26.9,16.8"/>
		</g>
	</g>
</g>
</svg>
