<svg width="5486" height="1396" viewBox="0 0 5486 1396" fill="none" xmlns="http://www.w3.org/2000/svg">
<g clip-path="url(#clip0_5886_2317)">
<path d="M2266.6 211.407V790.593H2187.05V739.762L2184.53 738.083C2183.92 739.706 2183.13 741.274 2182.18 742.729C2128.66 810.803 2030.08 822.615 1962.01 769.096C1948.18 758.236 1936.31 745.136 1926.85 730.357C1873.33 651.647 1881.17 546.401 1945.72 476.424C2004.27 413.725 2102.63 410.366 2165.33 468.923C2169.03 472.338 2172.5 475.921 2175.8 479.671L2186.66 491.595V211.463H2266.55L2266.6 211.407ZM2080.13 722.184C2139.52 721.68 2187.28 673.088 2186.72 613.691C2186.21 554.295 2137.62 506.542 2078.22 507.102C2018.83 507.606 1971.08 556.198 1971.64 615.595V616.266C1972.7 675.327 2021.07 722.52 2080.13 722.184Z" fill="#000A3A"/>
<path d="M1650.13 260.502C1732.59 437.852 1814.49 613.914 1896.61 791.096H1805.14C1801.5 791.656 1798.03 789.361 1797.02 785.834C1785.77 760.754 1773.96 735.898 1762.65 710.595C1761.31 706.452 1757.22 703.877 1752.91 704.381C1684.05 704.549 1615.19 704.549 1546.34 704.381C1541.75 703.821 1537.38 706.62 1535.98 711.043C1524.84 735.954 1513.48 760.698 1501.78 785.33C1500.66 787.681 1497.74 790.592 1495.79 790.592C1465.16 790.872 1434.49 790.872 1402.58 790.872C1485.26 613.97 1567.44 438.02 1650.18 260.446L1650.13 260.502ZM1718.65 617.329L1650.13 467.97L1580.82 617.329H1718.65Z" fill="#000A3A"/>
<path d="M2776.2 338.654C2755.93 359.815 2736.01 380.585 2716.02 401.354C2644.48 329.641 2528.37 329.473 2456.66 401.018C2387.52 469.987 2384.5 581.055 2449.88 653.607C2482.91 691.787 2530.72 714.011 2581.27 714.739C2631.6 716.643 2680.47 697.329 2715.91 661.501L2776.42 724.032C2670.11 829.054 2498.81 827.99 2393.79 721.681C2288.77 615.372 2289.83 444.068 2396.14 339.046C2496.96 239.455 2657.63 234.528 2764.33 327.85C2768.36 331.377 2772.28 335.016 2776.09 338.766H2776.2V338.654Z" fill="#000A3A"/>
<path d="M3750.56 790.594H3671.18V739.763L3669.67 738.979C3667.99 740.994 3666.25 742.842 3664.52 744.857C3632.33 784.828 3582.39 806.213 3531.28 801.79C3488.4 799.047 3448.71 778.166 3422.23 744.353C3373.02 686.748 3360.93 606.191 3391.1 536.717C3407.51 491.092 3443 454.816 3488.29 437.518C3548.86 414.174 3617.55 431.08 3660.32 479.896C3663.4 483.311 3666.53 486.726 3670.9 491.652V438.582H3750.73V790.314L3750.56 790.538V790.594ZM3562.07 722.185C3620.91 722.017 3668.55 674.208 3668.38 615.316C3668.21 556.479 3620.4 508.838 3561.51 509.006C3502.67 509.174 3455.03 556.983 3455.2 615.875C3455.37 674.544 3502.84 722.017 3561.51 722.185H3562.07Z" fill="#000A3A"/>
<path d="M3335.18 648.738H3066.58C3068.25 652.6 3069.21 655.679 3070.83 658.478C3088.58 691.62 3121.05 714.292 3158.27 719.61C3202.5 728.959 3248.52 715.916 3281.15 684.622L3336.52 742.339C3320.28 758.35 3301.47 771.393 3280.82 781.022C3199.42 819.873 3102.57 805.206 3036.35 744.018C2987.08 699.345 2967.54 630.432 2986.02 566.556C3006.9 471.164 3101.17 410.76 3196.57 431.641C3252.77 443.957 3299.52 482.864 3321.8 535.935C3337.25 571.427 3341.89 610.67 3335.12 648.738H3335.18ZM3251.59 579.992C3239.22 528.825 3187.72 497.363 3136.5 509.735C3101.73 518.132 3074.64 545.283 3066.24 579.992H3251.59Z" fill="#000A3A"/>
<path d="M4598.97 648.568C4625.73 723.639 4743.96 750.678 4812.48 684.62C4830.73 703.654 4848.98 722.743 4867.85 742.337C4854.35 755.829 4838.85 767.137 4821.88 775.926C4735.95 822.055 4629.92 806.38 4561.01 737.411C4491.26 662.059 4495.79 544.442 4571.14 474.689C4592.25 455.151 4617.55 440.82 4645.15 432.703C4730.35 410.702 4818.81 454.423 4853.07 535.485C4868.29 569.97 4873.11 608.149 4867.06 645.377C4867.06 646.273 4866.61 647.224 4866.28 648.792H4598.8V648.568H4598.97ZM4597.57 579.822H4783.43C4770.72 528.487 4718.82 497.193 4667.54 509.845C4633.06 518.354 4606.13 545.282 4597.57 579.822Z" fill="#000A3A"/>
<path d="M4537.44 438.245C4475.08 560.397 4413.33 680.702 4350.97 802.686L4164.49 438.245H4182.58C4203.12 438.245 4223.89 438.525 4244.49 438.245C4250.87 437.294 4257.03 440.988 4259.22 447.034C4287.93 503.8 4317.21 560.285 4346.32 616.547C4347.55 619.01 4348.95 621.361 4350.8 624.72C4352.48 621.473 4353.88 619.178 4355.06 616.659L4443.23 444.907C4444.91 440.317 4449.5 437.461 4454.37 437.909C4481.8 438.357 4508.78 438.189 4537.44 438.189V438.245Z" fill="#000A3A"/>
<path d="M3941.62 790.595H3861.46V518.748H3785.15V438.471H3861.12V363.343C3861.12 360.712 3862.3 358.193 3864.37 356.513C3889.28 343.806 3914.3 331.098 3940.67 317.83V438.079H4024.53V518.356H3941.12L3941.57 790.651L3941.62 790.595Z" fill="#000A3A"/>
<path d="M2985.85 508.783C2962.96 503.688 2939 508.335 2919.63 521.491C2895.33 537.781 2881.34 565.604 2882.62 594.827V790.37H2803.24V438.638H2882.18V474.578L2883.86 475.809C2896.45 461.086 2911.96 448.994 2929.31 440.373C2946.84 431.584 2966.2 427.049 2985.8 427.217V508.727L2985.85 508.783Z" fill="#000A3A"/>
<path d="M4059.75 438.748H4138.68V790.481H4059.75V438.748Z" fill="#000A3A"/>
<path d="M4146.8 314.303C4146.68 340.502 4125.3 361.607 4099.1 361.439C4072.9 361.271 4051.8 339.942 4051.96 313.743C4052.08 287.544 4073.46 266.439 4099.66 266.606H4100.28C4126.25 266.998 4147.02 288.271 4146.8 314.303Z" fill="#000A3A"/>
<path d="M5326.95 696.881C5315.25 713.731 5302.43 729.798 5288.54 744.969C5221.64 812.595 5112.59 813.154 5044.97 746.256C5036.12 737.523 5028.28 727.838 5021.57 717.426C4971.69 643.418 4978.46 545.002 5037.97 478.496C5102.07 407.064 5211.9 401.13 5283.34 465.229C5298.9 479.224 5311.83 495.851 5321.46 514.436C5322.64 516.9 5324.31 519.139 5326.44 520.93V432.423H5363.56V784.156H5327V697.049V696.881H5326.95ZM5176.08 758.628C5259.21 758.628 5326.55 691.226 5326.5 608.094C5326.5 524.961 5259.1 457.615 5175.96 457.671C5092.83 457.671 5025.48 525.073 5025.54 608.206C5025.54 691.282 5092.89 758.628 5175.96 758.628H5176.02H5176.08Z" fill="#000A3A"/>
<path d="M5471.71 784.714H5440.25C5438.68 784.714 5437.34 784.714 5435.27 784.434V432.365H5471.43V784.714H5471.65H5471.71Z" fill="#000A3A"/>
<path d="M4949.4 795.855C4931.6 795.407 4917.27 781.131 4916.77 763.329C4916.77 745.247 4931.38 730.58 4949.46 730.58C4967.54 730.58 4982.21 745.191 4982.21 763.273V763.721C4981.71 781.523 4967.21 795.743 4949.4 795.911V795.855Z" fill="#000A3A"/>
<path d="M5453.91 290.957C5471.82 291.069 5486.27 305.68 5486.15 323.65C5486.04 341.564 5471.43 356.008 5453.46 355.896C5435.55 355.784 5421.16 341.229 5421.22 323.314C5421.33 305.4 5435.94 290.957 5453.91 290.957Z" fill="#000A3A"/>
<path opacity="0.4" d="M1067.3 706.733L981.874 664.971L608.98 861.298C568.674 882.515 520.585 882.515 480.278 861.298L107.385 665.027L21.9567 706.789C2.69904 716.194 -5.30634 739.482 4.15456 758.74C7.79337 766.13 13.6155 772.176 20.8931 776.038L480.223 1017.88C520.529 1039.1 568.617 1039.1 608.924 1017.88L1068.25 776.038C1087.23 766.074 1094.51 742.561 1084.54 723.639C1080.68 716.306 1074.64 710.428 1067.19 706.845H1067.36L1067.3 706.733Z" fill="#000A3A"/>
<path opacity="0.6" d="M1067.3 550.32L982.544 509.006L608.81 705.781C568.504 726.998 520.415 726.998 480.108 705.781L106.375 509.006L21.6188 550.32C2.36115 559.725 -5.64423 583.014 3.81667 602.271C7.45548 609.661 13.2776 615.707 20.5552 619.57L479.885 861.354C520.191 882.571 568.28 882.571 608.586 861.354L1067.92 619.57C1086.89 609.549 1094.12 586.093 1084.15 567.115C1080.29 559.837 1074.24 553.959 1066.85 550.376H1067.3V550.32Z" fill="#000A3A"/>
<path d="M1068.36 308.423L609.029 550.208C568.722 571.425 520.634 571.425 480.327 550.208L20.9979 308.423C2.02016 298.459 -5.25746 274.946 4.70728 256.025C8.57001 248.691 14.616 242.813 22.0616 239.23L484.246 13.624C522.482 -5.07388 567.211 -5.07388 605.502 13.624L1067.41 239.23C1086.66 248.691 1094.61 271.979 1085.21 291.237C1081.57 298.627 1075.75 304.673 1068.47 308.479H1068.36V308.423Z" fill="#000A3A"/>
<path opacity="0.8" d="M1067.3 394.634L982.825 353.376L609.036 550.151C568.729 571.368 520.641 571.368 480.334 550.151L106.544 353.376L22.0681 394.634C2.81037 404.039 -5.19501 427.328 4.26589 446.585C7.9047 453.975 13.7268 460.021 21.0044 463.884L480.334 705.668C520.641 726.886 568.729 726.886 609.036 705.668L1068.36 463.884C1087.34 453.863 1094.56 430.407 1084.6 411.429C1080.74 404.151 1074.69 398.273 1067.3 394.69V394.634Z" fill="#000A3A"/>
<path d="M1543.76 1313.63L1538.22 1287.38H1536.88C1527.7 1298.97 1518.51 1306.75 1509.33 1310.89C1500.21 1314.98 1488.79 1317.05 1475.07 1317.05C1456.77 1317.05 1442.44 1312.34 1432.08 1302.88C1421.72 1293.48 1416.52 1280.04 1416.52 1262.63C1416.52 1225.35 1446.3 1205.81 1505.92 1204.02L1537.21 1203.01V1191.54C1537.21 1177.04 1534.08 1166.34 1527.86 1159.46C1521.65 1152.57 1511.68 1149.1 1497.97 1149.1C1482.57 1149.1 1465.16 1153.8 1445.79 1163.27L1437.23 1141.88C1446.3 1136.95 1456.26 1133.09 1467.12 1130.24C1477.98 1127.38 1488.84 1126.04 1499.7 1126.04C1521.71 1126.04 1538 1130.91 1548.63 1140.71C1559.27 1150.5 1564.53 1166.12 1564.53 1187.67V1313.63H1543.82H1543.76ZM1480.67 1293.93C1498.08 1293.93 1511.74 1289.17 1521.65 1279.6C1531.56 1270.02 1536.54 1256.7 1536.54 1239.51V1222.83L1508.61 1224.01C1486.38 1224.79 1470.37 1228.26 1460.52 1234.36C1450.72 1240.46 1445.79 1249.98 1445.79 1262.91C1445.79 1272.99 1448.87 1280.72 1454.98 1285.98C1461.08 1291.24 1469.64 1293.87 1480.67 1293.87V1293.93Z" fill="#000A3A"/>
<path d="M1748.38 1313.63V1194.22C1748.38 1179.16 1744.96 1167.97 1738.13 1160.52C1731.3 1153.08 1720.55 1149.38 1706 1149.38C1686.69 1149.38 1672.52 1154.59 1663.57 1165.06C1654.61 1175.47 1650.07 1192.71 1650.07 1216.73V1313.52H1622.14V1128.95H1644.87L1649.4 1154.2H1650.75C1656.46 1145.13 1664.52 1138.07 1674.82 1133.09C1685.12 1128.11 1696.65 1125.59 1709.36 1125.59C1731.58 1125.59 1748.32 1130.96 1759.52 1141.66C1770.77 1152.35 1776.37 1169.54 1776.37 1193.1V1313.52H1748.43L1748.38 1313.63Z" fill="#000A3A"/>
<path d="M2292.13 1172.17C2287.7 1166.62 2281.94 1162.26 2275.44 1159.4C2269.17 1156.77 2262.4 1155.37 2255.57 1155.43C2248.91 1155.26 2242.25 1156.55 2236.14 1159.23C2231.16 1161.53 2226.68 1164.72 2222.88 1168.64V1145.57H2178.43V1283.35C2177.64 1283.79 2177.03 1284.19 2176.19 1284.63C2173.89 1285.87 2171.32 1286.59 2168.74 1286.76C2162.92 1286.76 2158.55 1285.25 2155.47 1282.23C2152.34 1279.04 2150.04 1275.17 2148.7 1270.92C2147.25 1266.33 2146.35 1261.57 2146.07 1256.75C2145.73 1251.77 2145.57 1247.41 2145.57 1243.54V1077.45H2097.31V1097.09C2097.31 1097.09 2086.06 1088.47 2077.21 1084.95C2068.98 1081.64 2060.19 1079.91 2051.35 1079.8C2035.23 1079.8 2021.4 1084.11 2009.75 1092.78C1998.05 1101.57 1988.37 1112.88 1981.48 1125.76C1974.04 1139.64 1968.61 1154.53 1965.53 1169.98C1962.28 1185.43 1960.6 1201.16 1960.49 1216.95C1960.49 1236.55 1963.01 1253.23 1967.99 1267C1972.97 1280.83 1979.36 1292.02 1987.08 1300.7C1994.3 1308.99 2003.26 1315.48 2013.39 1319.73C2022.63 1323.6 2032.59 1325.67 2042.62 1325.72C2058.12 1325.72 2071.33 1321.3 2082.25 1312.46C2092.89 1304.12 2101.06 1293.03 2105.93 1280.49C2108.84 1296.84 2114.27 1306.19 2122.33 1313.07C2129.78 1319.73 2139.41 1323.43 2149.43 1323.43C2152.73 1323.43 2155.98 1323.04 2159.23 1322.31C2166 1321.3 2172.55 1319.01 2178.48 1315.48V1387.3L2222.93 1376.22V1301.6C2225.68 1304.84 2229.15 1307.47 2233.06 1309.15C2237.6 1311.28 2243.76 1312.4 2251.59 1312.4C2262.46 1312.4 2271.58 1309.99 2278.86 1305.18C2286.14 1300.36 2292.13 1293.93 2296.27 1286.26C2300.75 1278.03 2303.83 1269.07 2305.39 1259.83C2307.13 1250.09 2307.97 1240.24 2308.02 1230.33C2308.02 1216.62 2306.57 1204.92 2303.71 1195.29C2300.86 1185.66 2297 1177.93 2292.13 1172.17ZM2097.48 1235.99C2097.48 1242.7 2096.36 1249.37 2094.12 1255.75C2091.99 1261.68 2088.86 1267.28 2084.83 1272.15C2080.91 1276.85 2076.15 1280.77 2070.77 1283.63C2065.51 1286.42 2059.63 1287.88 2053.64 1287.88C2042.22 1287.88 2032.54 1282.17 2024.59 1270.75C2016.64 1259.33 2012.67 1240.8 2012.67 1215.1C2012.72 1202.79 2013.78 1190.47 2015.8 1178.27C2017.65 1166.29 2020.89 1154.53 2025.6 1143.34C2029.52 1133.65 2035.34 1124.86 2042.73 1117.42C2046.09 1114.06 2050.12 1111.43 2054.54 1109.69C2058.96 1107.96 2063.66 1107.12 2068.42 1107.23C2076.65 1107.23 2083.03 1109.3 2087.51 1113.39C2091.82 1117.36 2095.24 1122.17 2097.53 1127.6V1235.99H2097.48ZM2263.74 1247.13C2262.96 1253.68 2261.39 1260.17 2259.1 1266.33C2257.25 1271.59 2254.23 1276.35 2250.31 1280.27C2248.52 1282 2246.39 1283.4 2244.09 1284.35C2241.74 1285.31 2239.28 1285.75 2236.76 1285.7C2233.62 1285.87 2230.49 1285.03 2227.8 1283.4C2225.84 1282.17 2224.16 1280.55 2222.93 1278.64V1192.94C2224.16 1188.4 2226.91 1184.37 2230.6 1181.46C2233.68 1179.05 2237.49 1177.71 2241.41 1177.6C2243.48 1177.71 2245.49 1178.1 2247.4 1178.83C2250.53 1180.06 2253.22 1182.13 2255.23 1184.82C2257.92 1188.01 2260.22 1192.88 2262.18 1199.43C2264.13 1205.98 2265.14 1214.88 2265.14 1226.13C2265.14 1233.13 2264.64 1240.18 2263.74 1247.13Z" fill="#000A3A"/>
<path d="M2437.46 1172.17C2433.03 1166.62 2427.32 1162.26 2420.83 1159.4C2414.56 1156.77 2407.79 1155.37 2400.96 1155.43C2394.86 1155.2 2388.81 1156.27 2383.21 1158.56C2377.56 1160.86 2372.46 1164.27 2368.26 1168.64V1145.57H2323.81V1387.36L2368.26 1376.27V1301.65C2371.01 1304.9 2374.53 1307.47 2378.45 1309.21C2382.99 1311.34 2389.15 1312.46 2396.93 1312.46C2407.84 1312.46 2416.91 1310.05 2424.19 1305.23C2431.47 1300.48 2437.46 1293.98 2441.66 1286.31C2446.13 1278.08 2449.21 1269.13 2450.78 1259.89C2452.52 1250.15 2453.41 1240.3 2453.41 1230.39C2453.41 1216.67 2451.96 1204.97 2449.1 1195.34C2446.25 1185.71 2442.38 1177.99 2437.51 1172.17H2437.46ZM2409.13 1247.12C2408.35 1253.67 2406.78 1260.11 2404.48 1266.33C2402.64 1271.59 2399.61 1276.35 2395.69 1280.27C2393.9 1282 2391.78 1283.4 2389.48 1284.35C2387.13 1285.3 2384.67 1285.75 2382.15 1285.7C2379.01 1285.86 2375.88 1285.02 2373.19 1283.4C2371.23 1282.17 2369.61 1280.55 2368.32 1278.64V1192.93C2369.61 1188.4 2372.29 1184.37 2376.05 1181.46C2379.12 1179.05 2382.93 1177.71 2386.85 1177.6C2388.92 1177.71 2390.94 1178.1 2392.84 1178.83C2395.97 1180.06 2398.66 1182.13 2400.68 1184.82C2403.36 1188.01 2405.66 1192.88 2407.62 1199.43C2409.58 1205.98 2410.53 1214.88 2410.53 1226.13C2410.53 1233.13 2410.03 1240.18 2409.13 1247.12Z" fill="#000A3A"/>
<path d="M2765.56 1173.12C2764.16 1169.93 2762.31 1167.02 2760.02 1164.39C2757.67 1161.75 2754.81 1159.52 2751.68 1157.95C2748.38 1156.32 2744.74 1155.48 2741.04 1155.54C2734.44 1155.54 2728.05 1157.78 2722.85 1161.81C2717.31 1166.01 2712.21 1170.82 2707.73 1176.09V1156.94H2663.34V1258.38C2661.04 1261.63 2658.81 1264.76 2656.4 1267.67C2653.43 1271.37 2650.02 1274.67 2646.21 1277.52C2642.35 1280.32 2638.09 1282.56 2633.56 1284.13C2628.3 1285.87 2622.75 1286.65 2617.15 1286.54C2606.07 1286.54 2598.29 1283.63 2593.92 1277.75C2589.56 1271.93 2587.2 1262.13 2586.98 1248.41C2594.59 1248.02 2602.15 1246.51 2609.37 1243.94C2616.48 1241.53 2623.09 1237.72 2628.8 1232.91C2634.51 1228.04 2639.1 1222.1 2642.35 1215.39C2645.87 1207.77 2647.66 1199.43 2647.44 1191.03C2647.33 1188.23 2647.1 1185.49 2646.66 1182.75C2645.99 1178.49 2644.42 1174.41 2642.01 1170.77C2638.99 1166.29 2634.96 1162.59 2630.14 1160.02C2624.77 1156.94 2617.15 1155.43 2607.3 1155.43C2594.31 1155.43 2583.62 1158.28 2575.22 1163.99C2567 1169.54 2560.11 1176.93 2555.18 1185.49C2550.2 1194.22 2546.67 1203.74 2544.83 1213.59C2542.98 1222.94 2541.97 1232.46 2541.92 1242.03C2541.75 1252.16 2543.03 1262.3 2545.78 1272.09C2545.22 1273.1 2544.6 1274 2543.93 1274.89C2539.9 1280.04 2534.92 1282.56 2528.98 1282.56C2523.05 1282.56 2518.85 1281.16 2516.5 1278.42C2514.15 1275.68 2512.97 1269.97 2512.97 1261.35V1156.88H2468.52V1264.7C2468.52 1279.04 2471.71 1290.57 2478.1 1299.3C2484.48 1307.98 2495.56 1312.4 2511.41 1312.4C2516.22 1312.29 2520.98 1311.67 2525.62 1310.55C2531.39 1309.1 2536.77 1306.41 2541.41 1302.72C2546.23 1298.8 2550.31 1294.04 2553.45 1288.67C2555.13 1291.24 2557.03 1293.7 2559.16 1296C2564.53 1301.6 2571.14 1305.85 2578.42 1308.43C2595.27 1314.08 2613.57 1313.74 2630.25 1307.53C2637.81 1304.45 2644.75 1300.03 2650.8 1294.6C2655.61 1290.23 2659.81 1285.25 2663.45 1279.82V1325.67L2707.84 1300.42V1193.78C2710.76 1190.64 2713.95 1187.73 2717.31 1185.04C2719.82 1182.86 2723.02 1181.57 2726.38 1181.52C2729.23 1181.52 2731.25 1182.52 2732.42 1184.6C2733.6 1186.72 2734.66 1188.96 2735.61 1191.2C2736.68 1193.61 2738.13 1195.85 2739.92 1197.81C2741.77 1199.82 2745.07 1200.89 2749.78 1200.89C2756.16 1200.89 2760.69 1198.98 2763.49 1195.18C2766.23 1191.59 2767.69 1187.23 2767.63 1182.75C2767.63 1179.39 2766.91 1176.14 2765.62 1173.06L2765.56 1173.12ZM2589.61 1210.23C2590.73 1203.52 2592.47 1196.91 2594.87 1190.53C2596.61 1185.66 2599.18 1181.12 2602.43 1177.04C2605.29 1173.68 2608.53 1172 2612 1172C2614.86 1172 2617.55 1173.51 2620.01 1176.42C2622.47 1179.39 2623.76 1184.43 2623.76 1191.54C2623.76 1196.97 2622.86 1202.34 2620.96 1207.44C2619.17 1212.19 2616.59 1216.56 2613.29 1220.37C2609.99 1224.17 2606.01 1227.25 2601.54 1229.55C2597.06 1231.9 2592.13 1233.3 2587.04 1233.69C2587.43 1225.8 2588.27 1217.96 2589.67 1210.18L2589.61 1210.23Z" fill="#000A3A"/>
<path d="M2489.96 1138.58C2493.6 1138.63 2497.24 1137.96 2500.66 1136.56C2504.07 1135.16 2507.09 1133.15 2509.67 1130.52C2512.36 1128 2514.43 1124.97 2515.88 1121.61C2517.28 1118.26 2518.01 1114.67 2517.95 1110.98C2517.95 1103.59 2514.93 1096.54 2509.73 1091.33C2504.46 1086.12 2497.41 1083.16 2490.02 1083.16C2486.38 1083.1 2482.74 1083.77 2479.38 1085.17C2476.02 1086.57 2473 1088.64 2470.48 1091.33C2467.85 1093.9 2465.84 1096.98 2464.44 1100.34C2463.04 1103.7 2462.36 1107.34 2462.48 1110.98C2462.48 1114.56 2463.15 1118.14 2464.55 1121.5C2465.95 1124.86 2467.96 1127.88 2470.54 1130.46C2473.11 1133.04 2476.14 1135.05 2479.5 1136.39C2482.85 1137.79 2486.44 1138.47 2490.08 1138.47L2489.96 1138.58Z" fill="#000A3A"/>
<path d="M3125.86 1129.06V1146.75L3091.65 1150.78C3094.79 1154.7 3097.59 1159.85 3100.05 1166.18C3102.51 1172.5 3103.75 1179.67 3103.75 1187.62C3103.75 1205.7 3097.59 1220.14 3085.22 1230.89C3072.84 1241.69 3055.94 1247.07 3034.38 1247.07C3028.9 1247.07 3023.75 1246.62 3018.88 1245.73C3006.95 1252 3001.02 1259.94 3001.02 1269.46C3001.02 1274.5 3003.09 1278.25 3007.23 1280.66C3011.38 1283.06 3018.54 1284.3 3028.62 1284.3H3061.31C3081.3 1284.3 3096.64 1288.5 3107.39 1296.95C3118.08 1305.35 3123.45 1317.61 3123.45 1333.67C3123.45 1354.11 3115.28 1369.67 3098.88 1380.42C3082.47 1391.11 3058.57 1396.48 3027.16 1396.48C3003.04 1396.48 2984.45 1392.01 2971.35 1382.99C2958.25 1374.04 2951.76 1361.33 2951.76 1344.92C2951.76 1333.67 2955.34 1323.99 2962.56 1315.81C2969.78 1307.64 2979.86 1302.04 2992.85 1299.13C2988.14 1297 2984.17 1293.7 2980.98 1289.22C2977.79 1284.74 2976.16 1279.54 2976.16 1273.55C2976.16 1266.83 2977.96 1260.9 2981.54 1255.86C2985.12 1250.82 2990.78 1245.95 2998.56 1241.19C2989.04 1237.27 2981.26 1230.61 2975.21 1221.15C2969.17 1211.69 2966.2 1200.94 2966.2 1188.79C2966.2 1168.58 2972.25 1153.02 2984.39 1142.05C2996.54 1131.07 3013.67 1125.64 3035.9 1125.64C3045.53 1125.64 3054.26 1126.76 3061.98 1129H3125.8L3125.86 1129.06ZM2978.74 1344.59C2978.74 1354.55 2982.94 1362.17 2991.39 1367.32C2999.84 1372.47 3011.88 1375.04 3027.61 1375.04C3051.07 1375.04 3068.42 1371.52 3079.73 1364.52C3091.04 1357.52 3096.64 1348 3096.64 1335.97C3096.64 1326 3093.56 1319.06 3087.4 1315.2C3081.24 1311.34 3069.6 1309.38 3052.52 1309.38H3018.99C3006.28 1309.38 2996.43 1312.4 2989.38 1318.45C2982.32 1324.49 2978.8 1333.22 2978.8 1344.53L2978.74 1344.59ZM2993.85 1188.18C2993.85 1201.11 2997.49 1210.85 3004.83 1217.45C3012.1 1224.06 3022.29 1227.36 3035.28 1227.36C3062.54 1227.36 3076.2 1214.1 3076.2 1187.62C3076.2 1161.14 3062.38 1146.02 3034.78 1146.02C3021.62 1146.02 3011.54 1149.55 3004.49 1156.6C2997.44 1163.66 2993.91 1174.18 2993.91 1188.06L2993.85 1188.18Z" fill="#000A3A"/>
<path d="M3247.96 1125.7C3256.13 1125.7 3263.52 1126.37 3270.02 1127.72L3266.15 1153.64C3258.54 1151.96 3251.77 1151.12 3245.95 1151.12C3231 1151.12 3218.23 1157.16 3207.65 1169.31C3197.07 1181.46 3191.76 1196.52 3191.76 1214.6V1313.63H3163.82V1129.06H3186.88L3190.08 1163.27H3191.42C3198.25 1151.23 3206.53 1141.99 3216.16 1135.5C3225.79 1129.01 3236.43 1125.76 3247.96 1125.76V1125.7Z" fill="#000A3A"/>
<path d="M3463.82 1221.15C3463.82 1251.21 3456.26 1274.72 3441.09 1291.63C3425.92 1308.54 3404.98 1316.99 3378.28 1316.99C3361.76 1316.99 3347.15 1313.13 3334.33 1305.35C3321.51 1297.62 3311.66 1286.48 3304.72 1271.98C3297.78 1257.48 3294.3 1240.57 3294.3 1221.15C3294.3 1191.09 3301.81 1167.63 3316.87 1150.84C3331.92 1134.04 3352.81 1125.64 3379.51 1125.64C3406.21 1125.64 3425.86 1134.21 3441.03 1151.4C3456.26 1168.58 3463.87 1191.81 3463.87 1221.09L3463.82 1221.15ZM3323.25 1221.15C3323.25 1244.72 3327.95 1262.69 3337.41 1275.06C3346.87 1287.43 3360.7 1293.59 3379 1293.59C3397.31 1293.59 3411.19 1287.43 3420.66 1275.17C3430.12 1262.91 3434.87 1244.89 3434.87 1221.21C3434.87 1197.53 3430.12 1179.95 3420.66 1167.74C3411.19 1155.54 3397.14 1149.49 3378.67 1149.49C3360.2 1149.49 3346.59 1155.48 3337.24 1167.52C3327.95 1179.55 3323.25 1197.41 3323.25 1221.21V1221.15Z" fill="#000A3A"/>
<path d="M3539.11 1129.06V1248.81C3539.11 1263.87 3542.53 1275.06 3549.36 1282.51C3556.19 1289.95 3566.94 1293.65 3581.49 1293.65C3600.81 1293.65 3614.91 1288.39 3623.81 1277.8C3632.71 1267.28 3637.19 1250.04 3637.19 1226.13V1129.12H3665.13V1313.69H3642.06L3638.03 1288.95H3636.52C3630.81 1298.01 3622.86 1305.01 3612.67 1309.83C3602.54 1314.64 3590.9 1317.05 3577.91 1317.05C3555.46 1317.05 3538.67 1311.73 3527.47 1301.04C3516.27 1290.4 3510.73 1273.33 3510.73 1249.87V1129.12H3539L3539.11 1129.06Z" fill="#000A3A"/>
<path d="M3810.34 1316.99C3798.31 1316.99 3787.33 1314.75 3777.43 1310.33C3767.52 1305.91 3759.18 1299.08 3752.4 1289.9H3750.39C3751.73 1300.7 3752.4 1310.89 3752.4 1320.52V1396.48H3724.47V1129.12H3747.2L3751.06 1154.36H3752.4C3759.57 1144.29 3767.96 1136.95 3777.48 1132.47C3787 1128 3797.97 1125.76 3810.34 1125.76C3834.81 1125.76 3853.73 1134.1 3867 1150.84C3880.32 1167.58 3886.93 1191.03 3886.93 1221.21C3886.93 1251.38 3880.15 1275.06 3866.66 1291.85C3853.11 1308.65 3834.36 1317.05 3810.34 1317.05V1316.99ZM3806.31 1149.44C3787.45 1149.44 3773.79 1154.64 3765.39 1165.11C3756.99 1175.52 3752.63 1192.15 3752.4 1214.94V1221.15C3752.4 1247.07 3756.71 1265.66 3765.39 1276.8C3774.01 1287.99 3787.89 1293.53 3806.98 1293.53C3822.94 1293.53 3835.42 1287.1 3844.44 1274.16C3853.45 1261.23 3857.98 1243.49 3857.98 1220.81C3857.98 1198.14 3853.45 1180.17 3844.44 1167.85C3835.42 1155.54 3822.66 1149.44 3806.31 1149.44Z" fill="#000A3A"/>
<path d="M4099.15 1316.99C4072.45 1316.99 4051.74 1308.76 4037.13 1292.3C4022.46 1275.85 4015.12 1252.61 4015.12 1222.49C4015.12 1192.38 4022.57 1167.74 4037.46 1150.95C4052.35 1134.1 4073.51 1125.7 4101 1125.7C4109.85 1125.7 4118.75 1126.65 4127.59 1128.56C4136.44 1130.46 4143.43 1132.7 4148.47 1135.28L4139.91 1159.01C4133.75 1156.55 4126.98 1154.48 4119.7 1152.85C4112.42 1151.23 4105.93 1150.39 4100.33 1150.39C4062.82 1150.39 4044.07 1174.29 4044.07 1222.1C4044.07 1244.78 4048.66 1262.19 4057.78 1274.28C4066.91 1286.43 4080.51 1292.47 4098.43 1292.47C4113.82 1292.47 4129.55 1289.17 4145.73 1282.56V1307.31C4133.36 1313.69 4117.85 1316.88 4099.1 1316.88L4099.15 1316.99Z" fill="#000A3A"/>
<path d="M4348.83 1221.15C4348.83 1251.21 4341.27 1274.72 4326.1 1291.63C4310.93 1308.54 4289.99 1316.99 4263.29 1316.99C4246.78 1316.99 4232.16 1313.13 4219.35 1305.35C4206.53 1297.62 4196.67 1286.48 4189.73 1271.98C4182.79 1257.48 4179.32 1240.57 4179.32 1221.15C4179.32 1191.09 4186.82 1167.63 4201.88 1150.84C4216.94 1134.04 4237.82 1125.64 4264.52 1125.64C4291.23 1125.64 4310.88 1134.21 4326.05 1151.4C4341.27 1168.58 4348.89 1191.81 4348.89 1221.09L4348.83 1221.15ZM4208.26 1221.15C4208.26 1244.72 4212.96 1262.69 4222.42 1275.06C4231.89 1287.43 4245.71 1293.59 4264.02 1293.59C4282.32 1293.59 4296.21 1287.43 4305.67 1275.17C4315.13 1262.86 4319.89 1244.89 4319.89 1221.21C4319.89 1197.53 4315.13 1179.95 4305.67 1167.74C4296.21 1155.54 4282.16 1149.49 4263.68 1149.49C4245.21 1149.49 4231.61 1155.48 4222.26 1167.52C4212.91 1179.55 4208.26 1197.41 4208.26 1221.21V1221.15Z" fill="#000A3A"/>
<path d="M4633.05 1313.63V1193.55C4633.05 1178.83 4629.92 1167.8 4623.65 1160.47C4617.38 1153.13 4607.58 1149.44 4594.37 1149.44C4576.96 1149.44 4564.14 1154.42 4555.8 1164.44C4547.51 1174.4 4543.32 1189.8 4543.32 1210.57V1313.63H4515.38V1193.55C4515.38 1178.83 4512.25 1167.8 4505.98 1160.47C4499.71 1153.13 4489.85 1149.44 4476.53 1149.44C4459.01 1149.44 4446.19 1154.7 4438.07 1165.17C4429.95 1175.64 4425.87 1192.88 4425.87 1216.78V1313.57H4397.93V1129H4420.66L4425.19 1154.25H4426.54C4431.8 1145.29 4439.25 1138.24 4448.87 1133.2C4458.45 1128.16 4469.2 1125.64 4481.12 1125.64C4509.95 1125.64 4528.82 1136.06 4537.72 1156.94H4539.06C4544.55 1147.31 4552.55 1139.64 4562.96 1134.04C4573.38 1128.44 4585.3 1125.64 4598.68 1125.64C4619.56 1125.64 4635.18 1131.02 4645.59 1141.71C4655.95 1152.4 4661.16 1169.59 4661.16 1193.16V1313.57H4633.22L4633.05 1313.63Z" fill="#000A3A"/>
<path d="M4804.47 1316.99C4792.43 1316.99 4781.46 1314.75 4771.55 1310.33C4761.64 1305.91 4753.3 1299.08 4746.52 1289.9H4744.51C4745.85 1300.7 4746.52 1310.89 4746.52 1320.52V1396.48H4718.59V1129.12H4741.32L4745.18 1154.36H4746.52C4753.69 1144.29 4762.09 1136.95 4771.6 1132.47C4781.12 1128 4792.09 1125.76 4804.47 1125.76C4828.93 1125.76 4847.85 1134.1 4861.12 1150.84C4874.44 1167.58 4881.05 1191.03 4881.05 1221.21C4881.05 1251.38 4874.27 1275.06 4860.78 1291.85C4847.24 1308.65 4828.48 1317.05 4804.47 1317.05V1316.99ZM4800.43 1149.44C4781.57 1149.44 4767.91 1154.64 4759.51 1165.11C4751.12 1175.52 4746.75 1192.15 4746.52 1214.94V1221.15C4746.52 1247.07 4750.84 1265.66 4759.51 1276.8C4768.13 1287.99 4782.02 1293.53 4801.11 1293.53C4817.06 1293.53 4829.55 1287.1 4838.56 1274.16C4847.57 1261.23 4852.11 1243.49 4852.11 1220.81C4852.11 1198.14 4847.57 1180.17 4838.56 1167.85C4829.55 1155.54 4816.78 1149.44 4800.43 1149.44Z" fill="#000A3A"/>
<path d="M5043.4 1313.63L5037.86 1287.38H5036.51C5027.33 1298.97 5018.15 1306.75 5008.97 1310.89C4999.85 1314.98 4988.43 1317.05 4974.71 1317.05C4956.4 1317.05 4942.07 1312.34 4931.72 1302.88C4921.36 1293.48 4916.15 1280.04 4916.15 1262.63C4916.15 1225.35 4945.94 1205.81 5005.56 1204.02L5036.85 1203.01V1191.54C5036.85 1177.04 5033.72 1166.34 5027.5 1159.46C5021.29 1152.57 5011.32 1149.1 4997.61 1149.1C4982.21 1149.1 4964.8 1153.8 4945.43 1163.27L4936.87 1141.88C4945.94 1136.95 4955.9 1133.09 4966.76 1130.24C4977.62 1127.44 4988.48 1126.04 4999.34 1126.04C5021.34 1126.04 5037.63 1130.91 5048.27 1140.71C5058.85 1150.45 5064.17 1166.12 5064.17 1187.67V1313.63H5043.46H5043.4ZM4980.31 1293.93C4997.72 1293.93 5011.38 1289.17 5021.29 1279.6C5031.2 1270.08 5036.18 1256.7 5036.18 1239.51V1222.83L5008.24 1224.01C4986.02 1224.79 4970.01 1228.26 4960.16 1234.36C4950.3 1240.46 4945.43 1249.98 4945.43 1262.91C4945.43 1272.99 4948.51 1280.72 4954.61 1285.98C4960.72 1291.24 4969.28 1293.87 4980.31 1293.87V1293.93Z" fill="#000A3A"/>
<path d="M5248.01 1313.63V1194.22C5248.01 1179.16 5244.6 1167.97 5237.77 1160.52C5230.94 1153.13 5220.19 1149.38 5205.64 1149.38C5186.32 1149.38 5172.16 1154.59 5163.2 1165.06C5154.25 1175.47 5149.71 1192.71 5149.71 1216.73V1313.52H5121.78V1128.95H5144.5L5149.04 1154.2H5150.38C5156.09 1145.13 5164.15 1138.07 5174.46 1133.09C5184.76 1128.11 5196.29 1125.59 5209 1125.59C5231.22 1125.59 5247.96 1130.96 5259.16 1141.66C5270.41 1152.35 5276.01 1169.54 5276.01 1193.1V1313.52H5248.07L5248.01 1313.63Z" fill="#000A3A"/>
<path d="M5304.1 1129.06H5334.05L5374.47 1234.31C5383.31 1258.32 5388.86 1275.68 5390.98 1286.31H5392.33C5393.78 1280.6 5396.86 1270.81 5401.51 1256.92C5406.15 1243.04 5421.38 1200.44 5447.25 1129.06H5477.2L5397.87 1339.22C5390.03 1359.99 5380.85 1374.71 5370.33 1383.44C5359.86 1392.12 5346.93 1396.49 5331.7 1396.49C5323.19 1396.49 5314.74 1395.53 5306.45 1393.63V1371.24C5312.61 1372.58 5319.55 1373.25 5327.16 1373.25C5346.37 1373.25 5360.08 1362.45 5368.25 1340.9L5378.5 1314.64L5304.1 1129.06Z" fill="#000A3A"/>
</g>
<defs>
<clipPath id="clip0_5886_2317">
<rect width="5486" height="1396" fill="white"/>
</clipPath>
</defs>
</svg>
