<svg width="162" height="34" viewBox="0 0 162 34" fill="none" xmlns="http://www.w3.org/2000/svg">
<path d="M84.3913 25.652H79.3531V15.5757C79.3531 14.0619 79.637 12.7137 80.2047 11.531C80.7723 10.3247 81.6357 9.37855 82.7947 8.6926C83.9537 7.983 85.3966 7.6282 87.1233 7.6282C87.7146 7.6282 88.2941 7.68734 88.8618 7.8056C89.4295 7.90022 89.938 8.04214 90.3874 8.23136V13.1276C89.9617 12.8674 89.5004 12.6782 89.0037 12.5599C88.507 12.4417 88.0339 12.3825 87.5845 12.3825C86.5911 12.3825 85.8105 12.69 85.2428 13.305C84.6751 13.8963 84.3913 14.7124 84.3913 15.7531V25.652Z" fill="#272962"/>
<path d="M69.4548 26.1133C67.6335 26.1133 65.9896 25.723 64.5231 24.9424C63.0803 24.1382 61.9449 23.0383 61.117 21.6428C60.2892 20.2236 59.8752 18.5797 59.8752 16.7111C59.8752 15.0317 60.2537 13.4942 61.0106 12.0987C61.7912 10.6795 62.8674 9.55595 64.2393 8.72808C65.6112 7.87656 67.1959 7.45081 68.9936 7.45081C70.8622 7.45081 72.447 7.86474 73.7479 8.6926C75.0488 9.49682 76.0423 10.573 76.7282 11.9213C77.4378 13.2695 77.7926 14.7479 77.7926 16.3563V17.8464H63.8845L64.665 16.6046C64.6177 17.5981 64.7833 18.4851 65.1618 19.2656C65.5639 20.0462 66.1197 20.6612 66.8293 21.1106C67.5626 21.5363 68.4259 21.7492 69.4194 21.7492C70.3655 21.7492 71.217 21.5245 71.9739 21.0751C72.7545 20.6257 73.3458 19.9989 73.7479 19.1947L77.6152 21.1461C76.8583 22.7308 75.7703 23.9608 74.3511 24.836C72.9555 25.6875 71.3234 26.1133 69.4548 26.1133ZM64.9489 15.0435H72.7899C72.719 14.4285 72.5061 13.8845 72.1513 13.4114C71.8202 12.9147 71.3826 12.5363 70.8386 12.2761C70.2945 11.9922 69.6677 11.8503 68.9581 11.8503C68.2249 11.8503 67.5744 11.9922 67.0067 12.2761C66.4627 12.5599 66.0133 12.9502 65.6585 13.4469C65.3273 13.92 65.0908 14.4522 64.9489 15.0435Z" fill="#272962"/>
<path d="M45.5463 33.7414H40.5082V16.8175C40.5082 15.0435 40.9221 13.4706 41.75 12.0987C42.5778 10.7031 43.7014 9.60324 45.1206 8.79903C46.5634 7.99482 48.1955 7.59271 50.0168 7.59271C51.8381 7.59271 53.4584 8.01847 54.8776 8.86999C56.3204 9.69786 57.4558 10.8096 58.2836 12.2051C59.1115 13.6006 59.5254 15.1381 59.5254 16.8175C59.5254 18.6388 59.1352 20.2591 58.3546 21.6783C57.574 23.0738 56.486 24.1737 55.0904 24.9779C53.7186 25.7585 52.122 26.1487 50.3006 26.1487C49.0234 26.1487 47.8407 25.8649 46.7527 25.2972C45.6646 24.7059 44.7776 23.949 44.0917 23.0265C43.4294 22.0804 43.0982 21.0633 43.0982 19.9752L45.5463 20.401V33.7414ZM50.0168 21.3944C50.892 21.3944 51.6607 21.1934 52.323 20.7913C53.009 20.3655 53.5412 19.8096 53.9196 19.1237C54.2981 18.4378 54.4873 17.6808 54.4873 16.853C54.4873 16.0251 54.2981 15.2682 53.9196 14.5823C53.5412 13.8963 53.009 13.3523 52.323 12.9502C51.6607 12.5481 50.892 12.347 50.0168 12.347C49.1653 12.347 48.3966 12.5481 47.7106 12.9502C47.0483 13.3523 46.5161 13.8963 46.114 14.5823C45.7356 15.2682 45.5463 16.0251 45.5463 16.853C45.5463 17.6808 45.7356 18.4378 46.114 19.1237C46.5161 19.8096 47.0483 20.3655 47.7106 20.7913C48.3966 21.1934 49.1653 21.3944 50.0168 21.3944Z" fill="#272962"/>
<path d="M28.0597 26.1133C26.3566 26.1133 24.8546 25.6993 23.5537 24.8715C22.2528 24.02 21.2238 22.8964 20.4669 21.5009C19.7337 20.0817 19.3671 18.5206 19.3671 16.8175C19.3671 15.1381 19.781 13.6007 20.6089 12.2051C21.4604 10.7859 22.5957 9.6624 24.0149 8.83453C25.4578 7.98301 27.078 7.55725 28.8757 7.55725C30.697 7.55725 32.3291 7.97118 33.7719 8.79905C35.2148 9.60326 36.3501 10.7031 37.178 12.0987C38.0059 13.4706 38.4198 15.0435 38.4198 16.8175V25.652H33.63V19.3011L35.1556 18.8754C35.1556 20.2473 34.86 21.4891 34.2686 22.6008C33.6773 23.6888 32.8613 24.5522 31.8205 25.1908C30.7798 25.8058 29.5262 26.1133 28.0597 26.1133ZM28.8757 21.3944C29.7509 21.3944 30.5196 21.1934 31.1819 20.7913C31.8678 20.3655 32.4 19.8097 32.7785 19.1237C33.1806 18.4378 33.3816 17.6809 33.3816 16.853C33.3816 16.0251 33.1806 15.2682 32.7785 14.5823C32.4 13.8963 31.8678 13.3523 31.1819 12.9502C30.5196 12.5244 29.7509 12.3116 28.8757 12.3116C28.0242 12.3116 27.2554 12.5244 26.5695 12.9502C25.9072 13.3523 25.375 13.8963 24.9729 14.5823C24.5944 15.2682 24.4052 16.0251 24.4052 16.853C24.4052 17.6809 24.5944 18.4378 24.9729 19.1237C25.375 19.8097 25.9072 20.3655 26.5695 20.7913C27.2554 21.1934 28.0242 21.3944 28.8757 21.3944Z" fill="#272962"/>
<path d="M5.03815 33.7414H0V16.8175C0 15.0435 0.413933 13.4706 1.2418 12.0987C2.06966 10.7031 3.1932 9.60324 4.6124 8.79903C6.05525 7.99482 7.68733 7.59271 9.50863 7.59271C11.3299 7.59271 12.9502 8.01847 14.3694 8.86999C15.8122 9.69786 16.9476 10.8096 17.7755 12.2051C18.6033 13.6006 19.0173 15.1381 19.0173 16.8175C19.0173 18.6388 18.627 20.2591 17.8464 21.6783C17.0659 23.0738 15.9778 24.1737 14.5823 24.9779C13.2104 25.7585 11.6138 26.1487 9.79247 26.1487C8.51519 26.1487 7.33253 25.8649 6.24447 25.2972C5.15642 24.7059 4.26942 23.949 3.58348 23.0265C2.92118 22.0804 2.59004 21.0633 2.59004 19.9752L5.03815 20.401V33.7414ZM9.50863 21.3944C10.3838 21.3944 11.1525 21.1934 11.8148 20.7913C12.5008 20.3655 13.033 19.8096 13.4114 19.1237C13.7899 18.4378 13.9791 17.6808 13.9791 16.853C13.9791 16.0251 13.7899 15.2682 13.4114 14.5823C13.033 13.8963 12.5008 13.3523 11.8148 12.9502C11.1525 12.5481 10.3838 12.347 9.50863 12.347C8.65711 12.347 7.88838 12.5481 7.20243 12.9502C6.54014 13.3523 6.00794 13.8963 5.60583 14.5823C5.22738 15.2682 5.03815 16.0251 5.03815 16.853C5.03815 17.6808 5.22738 18.4378 5.60583 19.1237C6.00794 19.8096 6.54014 20.3655 7.20243 20.7913C7.88838 21.1934 8.65711 21.3944 9.50863 21.3944Z" fill="#272962"/>
<mask id="mask0_571_1834" style="mask-type:alpha" maskUnits="userSpaceOnUse" x="88" y="0" width="74" height="27">
<path d="M151.672 26.1487C149.851 26.1487 148.219 25.7466 146.776 24.9424C145.357 24.1382 144.233 23.0383 143.406 21.6428C142.578 20.2472 142.164 18.6625 142.164 16.8885V0H147.202V13.3405L144.754 13.7662C144.754 12.6782 145.085 11.6611 145.747 10.7149C146.433 9.76882 147.32 9.01191 148.408 8.44423C149.496 7.87655 150.679 7.59271 151.956 7.59271C153.778 7.59271 155.374 7.98299 156.746 8.76355C158.142 9.54411 159.23 10.644 160.01 12.0632C160.791 13.4587 161.181 15.0672 161.181 16.8885C161.181 18.5678 160.767 20.1171 159.939 21.5363C159.111 22.9319 157.976 24.0554 156.533 24.9069C155.114 25.7348 153.494 26.1487 151.672 26.1487ZM151.672 21.3944C152.548 21.3944 153.316 21.1934 153.979 20.7913C154.665 20.3655 155.197 19.8096 155.575 19.1237C155.954 18.4378 156.143 17.6927 156.143 16.8885C156.143 16.0606 155.954 15.3037 155.575 14.6177C155.197 13.9081 154.665 13.3523 153.979 12.9502C153.316 12.5481 152.548 12.347 151.672 12.347C150.821 12.347 150.052 12.5481 149.366 12.9502C148.704 13.3523 148.172 13.9081 147.77 14.6177C147.391 15.3037 147.202 16.0606 147.202 16.8885C147.202 17.6927 147.391 18.4378 147.77 19.1237C148.172 19.8096 148.704 20.3655 149.366 20.7913C150.052 21.1934 150.821 21.3944 151.672 21.3944Z" fill="#F95676"/>
<path d="M131.329 21.2525C132.204 21.2525 132.926 21.0278 133.493 20.5784C134.085 20.1053 134.522 19.4903 134.806 18.7334C135.09 17.9529 135.232 17.1132 135.232 16.2144V8.08945H140.27V16.8175C140.27 18.5442 139.927 20.1172 139.241 21.5364C138.579 22.9319 137.585 24.0436 136.261 24.8715C134.936 25.6993 133.292 26.1133 131.329 26.1133C129.389 26.1133 127.757 25.6993 126.433 24.8715C125.108 24.0436 124.103 22.9201 123.417 21.5009C122.755 20.0817 122.424 18.5206 122.424 16.8175V8.08945H127.462V16.2498C127.462 17.125 127.604 17.9529 127.887 18.7334C128.171 19.4903 128.597 20.1053 129.165 20.5784C129.756 21.0278 130.478 21.2525 131.329 21.2525Z" fill="#F95676"/>
<path d="M115.839 0H120.877V25.652H115.839V0Z" fill="#F95676"/>
<path d="M108.29 25.3242C107.045 25.7772 105.797 25.9797 104.546 25.9315C103.31 25.8531 102.15 25.5705 101.066 25.0838C99.9748 24.5749 99.0016 23.8719 98.1465 22.9749C97.3136 22.0698 96.6828 21.0283 96.2541 19.8502C95.8172 18.65 95.6309 17.4466 95.6952 16.2402C95.7737 15.0034 96.0674 13.8393 96.5763 12.7479C97.0852 11.6565 97.7923 10.6944 98.6973 9.86152C99.6166 8.99835 100.703 8.35136 101.955 7.92055C103.564 7.36031 105.183 7.21129 106.814 7.47352C108.437 7.71352 109.918 8.49616 111.256 9.82144L108.132 13.375C107.487 12.779 106.769 12.3983 105.979 12.2328C105.203 12.037 104.404 12.0888 103.581 12.3881C102.803 12.6713 102.172 13.1151 101.687 13.7194C101.202 14.3238 100.888 15.017 100.745 15.7991C100.616 16.5509 100.697 17.3269 100.988 18.1271C101.263 18.8828 101.696 19.5182 102.286 20.0334C102.899 20.5404 103.589 20.8807 104.357 21.0543C105.117 21.2056 105.886 21.1397 106.664 20.8566C107.486 20.5572 108.132 20.0832 108.6 19.4343C109.091 18.7774 109.396 18.0246 109.515 17.1758L114.192 17.8898C114.019 19.7652 113.392 21.3275 112.311 22.5767C111.223 23.8036 109.882 24.7195 108.29 25.3242Z" fill="#F95676"/>
<path d="M91.6198 26.0423C91.0521 26.0423 90.5199 25.9004 90.0232 25.6165C89.5501 25.3327 89.1717 24.9542 88.8878 24.4812C88.6277 24.0081 88.4976 23.4877 88.4976 22.9201C88.4976 22.3287 88.6277 21.8084 88.8878 21.3589C89.1717 20.8859 89.5501 20.5074 90.0232 20.2236C90.5199 19.9397 91.0521 19.7978 91.6198 19.7978C92.1875 19.7978 92.7078 19.9397 93.1809 20.2236C93.654 20.5074 94.0206 20.8859 94.2808 21.3589C94.5646 21.8084 94.7066 22.3287 94.7066 22.9201C94.7066 23.4877 94.5646 24.0081 94.2808 24.4812C94.0206 24.9542 93.654 25.3327 93.1809 25.6165C92.7078 25.9004 92.1875 26.0423 91.6198 26.0423Z" fill="#F95676"/>
</mask>
<g mask="url(#mask0_571_1834)">
<rect x="84.8702" y="-3.22888" width="76.3108" height="32.8264" fill="url(#paint0_linear_571_1834)"/>
</g>
<defs>
<linearGradient id="paint0_linear_571_1834" x1="98.5" y1="4.5" x2="136.631" y2="52.2533" gradientUnits="userSpaceOnUse">
<stop stop-color="#5151CD"/>
<stop offset="0.46529" stop-color="#9B9EF0"/>
<stop offset="0.938616" stop-color="#E93D82"/>
</linearGradient>
</defs>
</svg>
