<svg width="167" height="30" viewBox="0 0 167 30" fill="none" xmlns="http://www.w3.org/2000/svg">
<path fill-rule="evenodd" clip-rule="evenodd" d="M23.3201 8.23777C25.0009 10.4574 26 13.235 26 16.2489C26 23.5237 20.1797 29.421 13 29.421C5.8203 29.421 -1.90735e-06 23.5237 -1.90735e-06 16.2489C-1.90735e-06 13.2226 1.00728 10.4346 2.70068 8.21045L13.0239 18.6702L23.3201 8.23777Z" fill="url(#paint0_linear_2419_10984)"/>
<path fill-rule="evenodd" clip-rule="evenodd" d="M2.05253 5.40575L13.0145 16.4211L23.9473 5.43509C21.4241 2.1305 17.454 0 12.9887 0C8.53658 0 4.57675 2.11789 2.05253 5.40575Z" fill="#1ED6FF"/>
<path d="M41.692 24.1298C41.3626 24.1298 41.0853 24.0171 40.86 23.7918C40.6346 23.5665 40.522 23.2891 40.522 22.9598V7.43779C40.522 6.96978 40.6866 6.57112 41.016 6.24179C41.3453 5.89512 41.744 5.72179 42.212 5.72179H43.07C43.4166 5.72179 43.7286 5.82579 44.006 6.03378C44.3006 6.24179 44.5173 6.50179 44.656 6.81379L50.558 21.5298L56.46 6.81379C56.5986 6.50179 56.8066 6.24179 57.084 6.03378C57.3786 5.82579 57.6993 5.72179 58.046 5.72179H58.904C59.372 5.72179 59.7706 5.89512 60.1 6.24179C60.4293 6.57112 60.594 6.96978 60.594 7.43779V22.9598C60.594 23.2891 60.4813 23.5665 60.256 23.7918C60.0306 24.0171 59.7533 24.1298 59.424 24.1298C59.0946 24.1298 58.8086 24.0171 58.566 23.7918C58.3406 23.5665 58.228 23.2891 58.228 22.9598V8.19178L52.222 23.0378C52.0833 23.3671 51.858 23.6358 51.546 23.8438C51.2513 24.0345 50.922 24.1298 50.558 24.1298C50.194 24.1298 49.856 24.0345 49.544 23.8438C49.2493 23.6358 49.0326 23.3671 48.894 23.0378L42.888 8.19178V22.9598C42.888 23.2891 42.7666 23.5665 42.524 23.7918C42.2986 24.0171 42.0213 24.1298 41.692 24.1298Z" fill="#4B555F"/>
<path d="M68.5453 24.2598C67.7826 24.2598 67.072 24.1038 66.4133 23.7918C65.772 23.4798 65.2606 23.0291 64.8793 22.4398C64.498 21.8331 64.3073 21.1398 64.3073 20.3598C64.3073 19.0771 64.81 18.0545 65.8153 17.2918C66.838 16.5291 68.3286 16.1478 70.2873 16.1478H73.4333V15.9398C73.4333 14.7958 73.1473 13.9725 72.5753 13.4698C72.0206 12.9671 71.1453 12.7158 69.9493 12.7158C69.2906 12.7158 68.7013 12.7678 68.1813 12.8718C67.6786 12.9758 67.1153 13.1318 66.4913 13.3398C66.3526 13.3745 66.24 13.3918 66.1533 13.3918C65.8933 13.3918 65.668 13.2965 65.4773 13.1058C65.2866 12.9151 65.1913 12.6811 65.1913 12.4038C65.1913 11.9358 65.4166 11.6065 65.8673 11.4158C67.3406 10.7918 68.84 10.4798 70.3653 10.4798C71.5613 10.4798 72.5666 10.7225 73.3813 11.2078C74.2133 11.6931 74.82 12.3258 75.2013 13.1058C75.6 13.8685 75.7993 14.7005 75.7993 15.6018V22.9598C75.7993 23.2891 75.678 23.5665 75.4353 23.7918C75.21 24.0171 74.9326 24.1298 74.6033 24.1298C74.274 24.1298 73.9966 24.0171 73.7713 23.7918C73.546 23.5665 73.4333 23.2891 73.4333 22.9598V22.2838C72.1506 23.6011 70.5213 24.2598 68.5453 24.2598ZM69.4293 22.1798C70.192 22.1798 70.9286 21.9978 71.6393 21.6338C72.35 21.2525 72.948 20.7845 73.4333 20.2298V18.0458H70.5993C67.982 18.0458 66.6733 18.7305 66.6733 20.0998C66.6733 20.7238 66.8813 21.2265 67.2973 21.6078C67.7306 21.9891 68.4413 22.1798 69.4293 22.1798Z" fill="#4B555F"/>
<path d="M80.9349 24.1298C80.6056 24.1298 80.3282 24.0171 80.1029 23.7918C79.8776 23.5665 79.7649 23.2891 79.7649 22.9598V11.8058C79.7649 11.4765 79.8776 11.1991 80.1029 10.9738C80.3282 10.7311 80.6056 10.6098 80.9349 10.6098C81.2642 10.6098 81.5416 10.7311 81.7669 10.9738C82.0096 11.1991 82.1309 11.4765 82.1309 11.8058V12.8718C82.7896 12.1438 83.5002 11.5631 84.2629 11.1298C85.0256 10.6965 85.9269 10.4798 86.9669 10.4798C87.9202 10.4798 88.7436 10.7051 89.4369 11.1558C90.1476 11.6065 90.6849 12.2218 91.0489 13.0018C91.4302 13.7818 91.6209 14.6398 91.6209 15.5758V22.9598C91.6209 23.2891 91.4996 23.5665 91.2569 23.7918C91.0316 24.0171 90.7542 24.1298 90.4249 24.1298C90.0956 24.1298 89.8182 24.0171 89.5929 23.7918C89.3676 23.5665 89.2549 23.2891 89.2549 22.9598V15.8358C89.2549 13.7211 88.3016 12.6638 86.3949 12.6638C85.5282 12.6638 84.7482 12.8891 84.0549 13.3398C83.3789 13.7905 82.7376 14.3971 82.1309 15.1598V22.9598C82.1309 23.2891 82.0096 23.5665 81.7669 23.7918C81.5416 24.0171 81.2642 24.1298 80.9349 24.1298Z" fill="#4B555F"/>
<path d="M98.9887 24.2598C98.226 24.2598 97.5153 24.1038 96.8567 23.7918C96.2153 23.4798 95.704 23.0291 95.3227 22.4398C94.9413 21.8331 94.7507 21.1398 94.7507 20.3598C94.7507 19.0771 95.2533 18.0545 96.2587 17.2918C97.2813 16.5291 98.772 16.1478 100.731 16.1478H103.877V15.9398C103.877 14.7958 103.591 13.9725 103.019 13.4698C102.464 12.9671 101.589 12.7158 100.393 12.7158C99.734 12.7158 99.1447 12.7678 98.6247 12.8718C98.122 12.9758 97.5587 13.1318 96.9347 13.3398C96.796 13.3745 96.6833 13.3918 96.5967 13.3918C96.3367 13.3918 96.1113 13.2965 95.9207 13.1058C95.73 12.9151 95.6347 12.6811 95.6347 12.4038C95.6347 11.9358 95.86 11.6065 96.3107 11.4158C97.784 10.7918 99.2833 10.4798 100.809 10.4798C102.005 10.4798 103.01 10.7225 103.825 11.2078C104.657 11.6931 105.263 12.3258 105.645 13.1058C106.043 13.8685 106.243 14.7005 106.243 15.6018V22.9598C106.243 23.2891 106.121 23.5665 105.879 23.7918C105.653 24.0171 105.376 24.1298 105.047 24.1298C104.717 24.1298 104.44 24.0171 104.215 23.7918C103.989 23.5665 103.877 23.2891 103.877 22.9598V22.2838C102.594 23.6011 100.965 24.2598 98.9887 24.2598ZM99.8727 22.1798C100.635 22.1798 101.372 21.9978 102.083 21.6338C102.793 21.2525 103.391 20.7845 103.877 20.2298V18.0458H101.043C98.4253 18.0458 97.1167 18.7305 97.1167 20.0998C97.1167 20.7238 97.3247 21.2265 97.7407 21.6078C98.174 21.9891 98.8847 22.1798 99.8727 22.1798Z" fill="#4B555F"/>
<path d="M114.382 24.1298C114.053 24.1298 113.776 24.0171 113.55 23.7918C113.325 23.5665 113.212 23.2891 113.212 22.9598V8.06178H107.908C107.596 8.06178 107.336 7.95779 107.128 7.74979C106.92 7.54179 106.816 7.28179 106.816 6.96979C106.816 6.65778 106.92 6.39778 107.128 6.18978C107.336 5.96445 107.596 5.85179 107.908 5.85179H120.856C121.168 5.85179 121.428 5.96445 121.636 6.18978C121.862 6.39778 121.974 6.65778 121.974 6.96979C121.974 7.28179 121.862 7.54179 121.636 7.74979C121.428 7.95779 121.168 8.06178 120.856 8.06178H115.578V22.9598C115.578 23.2891 115.457 23.5665 115.214 23.7918C114.989 24.0171 114.712 24.1298 114.382 24.1298Z" fill="#4B555F"/>
<path d="M125.24 8.03579C124.876 8.03579 124.564 7.90579 124.304 7.64579C124.044 7.38579 123.914 7.07378 123.914 6.70979V6.60579C123.914 6.24178 124.044 5.92978 124.304 5.66978C124.564 5.40979 124.876 5.27979 125.24 5.27979H125.396C125.76 5.27979 126.072 5.40979 126.332 5.66978C126.592 5.92978 126.722 6.24178 126.722 6.60579V6.70979C126.722 7.07378 126.592 7.38579 126.332 7.64579C126.072 7.90579 125.76 8.03579 125.396 8.03579H125.24ZM125.292 24.1298C124.963 24.1298 124.686 24.0171 124.46 23.7918C124.235 23.5665 124.122 23.2891 124.122 22.9598V11.8058C124.122 11.4765 124.235 11.1991 124.46 10.9738C124.686 10.7311 124.963 10.6098 125.292 10.6098C125.639 10.6098 125.925 10.7225 126.15 10.9478C126.376 11.1731 126.488 11.4591 126.488 11.8058V22.9598C126.488 23.2891 126.367 23.5665 126.124 23.7918C125.899 24.0171 125.622 24.1298 125.292 24.1298Z" fill="#4B555F"/>
<path d="M131.767 24.1298C131.438 24.1298 131.16 24.0171 130.935 23.7918C130.71 23.5665 130.597 23.2891 130.597 22.9598V11.8058C130.597 11.4765 130.71 11.1991 130.935 10.9738C131.16 10.7311 131.438 10.6098 131.767 10.6098C132.096 10.6098 132.374 10.7311 132.599 10.9738C132.842 11.1991 132.963 11.4765 132.963 11.8058V12.8718C133.448 12.1785 134.029 11.6065 134.705 11.1558C135.398 10.7051 136.291 10.4798 137.383 10.4798C138.354 10.4798 139.186 10.7398 139.879 11.2598C140.572 11.7798 141.066 12.4125 141.361 13.1578C142.436 11.3725 144.03 10.4798 146.145 10.4798C147.116 10.4798 147.922 10.7225 148.563 11.2078C149.222 11.6931 149.707 12.3171 150.019 13.0798C150.331 13.8425 150.487 14.6398 150.487 15.4718V22.9598C150.487 23.2891 150.366 23.5665 150.123 23.7918C149.898 24.0171 149.62 24.1298 149.291 24.1298C148.962 24.1298 148.684 24.0171 148.459 23.7918C148.234 23.5665 148.121 23.2891 148.121 22.9598V15.9398C148.121 14.8131 147.922 13.9898 147.523 13.4698C147.124 12.9325 146.44 12.6638 145.469 12.6638C144.585 12.6638 143.848 12.8978 143.259 13.3658C142.687 13.8165 142.176 14.4145 141.725 15.1598V22.9598C141.725 23.2891 141.604 23.5665 141.361 23.7918C141.136 24.0171 140.858 24.1298 140.529 24.1298C140.2 24.1298 139.922 24.0171 139.697 23.7918C139.472 23.5665 139.359 23.2891 139.359 22.9598V15.9398C139.359 14.8131 139.16 13.9898 138.761 13.4698C138.362 12.9325 137.678 12.6638 136.707 12.6638C135.823 12.6638 135.086 12.8978 134.497 13.3658C133.925 13.8165 133.414 14.4145 132.963 15.1598V22.9598C132.963 23.2891 132.842 23.5665 132.599 23.7918C132.374 24.0171 132.096 24.1298 131.767 24.1298Z" fill="#4B555F"/>
<path d="M160.392 24.2598C158.277 24.2598 156.622 23.6618 155.426 22.4658C154.247 21.2525 153.658 19.5538 153.658 17.3698C153.658 16.1391 153.883 15.0038 154.334 13.9638C154.785 12.9238 155.478 12.0831 156.414 11.4418C157.35 10.8005 158.503 10.4798 159.872 10.4798C161.155 10.4798 162.264 10.7831 163.2 11.3898C164.136 11.9791 164.847 12.7765 165.332 13.7818C165.817 14.7698 166.06 15.8531 166.06 17.0318C166.06 17.3611 165.947 17.6385 165.722 17.8638C165.514 18.0891 165.228 18.2018 164.864 18.2018H156.05C156.189 19.4151 156.639 20.3598 157.402 21.0358C158.165 21.7118 159.231 22.0498 160.6 22.0498C161.328 22.0498 161.961 21.9805 162.498 21.8418C163.053 21.7031 163.59 21.5038 164.11 21.2438C164.249 21.1745 164.405 21.1398 164.578 21.1398C164.855 21.1398 165.098 21.2351 165.306 21.4258C165.514 21.6165 165.618 21.8591 165.618 22.1538C165.618 22.5351 165.393 22.8558 164.942 23.1158C164.266 23.4971 163.599 23.7831 162.94 23.9738C162.281 24.1645 161.432 24.2598 160.392 24.2598ZM163.72 16.2778C163.668 15.4285 163.443 14.7178 163.044 14.1458C162.663 13.5738 162.186 13.1578 161.614 12.8978C161.042 12.6205 160.461 12.4818 159.872 12.4818C159.283 12.4818 158.702 12.6205 158.13 12.8978C157.558 13.1578 157.081 13.5738 156.7 14.1458C156.319 14.7178 156.102 15.4285 156.05 16.2778H163.72Z" fill="#4B555F"/>
<defs>
<linearGradient id="paint0_linear_2419_10984" x1="25" y1="8" x2="25" y2="42.5" gradientUnits="userSpaceOnUse">
<stop stop-color="#00ABFD"/>
<stop offset="1" stop-color="#006CE2"/>
</linearGradient>
</defs>
</svg>
