<svg width="88" height="24" viewBox="0 0 88 24" fill="none" xmlns="http://www.w3.org/2000/svg">
<g clip-path="url(#clip0_2_54122)">
<path d="M29.6844 0C30.0913 0 30.4108 0.00260287 30.7499 0.0535714V2.52553C30.4447 2.49155 30.227 2.49744 29.9896 2.49744C29.2605 2.49744 28.667 2.71831 28.2092 3.16003C27.7683 3.60175 27.5479 4.20488 27.5479 4.9694V6.42857H30.7499V8.95362H27.5479V19.9286H24.6992V8.95362H22.2856V6.42857H24.6992V5.04585C24.6992 3.48283 25.1486 2.2511 26.0472 1.35066C26.9459 0.450219 28.1583 0 29.6844 0Z" fill="#F1C086"/>
<path fill-rule="evenodd" clip-rule="evenodd" d="M32.0356 2.35718V5.14289H34.8214V2.35718H32.0356ZM32.0356 19.9286V6.42861H34.8214V19.9286H32.0356Z" fill="#F1C086"/>
<path d="M43.5076 6.21436C40.5681 6.21436 39.1756 8.49144 38.892 9.26772V6.42864H36.1072V19.9286H38.892V11.8812C38.9694 11.1825 39.3561 10.458 40.0008 9.75937C40.6712 9.03484 41.5221 8.67258 42.5535 8.67258C44.4101 8.67258 45.7509 9.88875 45.7509 12.2952V19.9286H48.5358V12.14C48.5358 10.1993 48.0458 8.72433 47.066 7.71516C46.0861 6.706 44.9 6.21436 43.5076 6.21436Z" fill="#F1C086"/>
<path d="M56.3138 19.9286C58.4024 19.9286 60.0632 18.7604 60.6671 17.5159H60.8181V19.9286H63.5358V6.42864H60.8181V8.62705H60.6671C60.0632 7.38261 58.4024 6.21436 56.3138 6.21436C54.804 6.21436 53.2438 6.79848 51.9605 7.89055C50.6771 8.98261 49.8215 10.862 49.8215 13.0715C49.8215 15.281 50.6771 17.1604 51.9605 18.2524C53.2438 19.3445 54.804 19.9286 56.3138 19.9286ZM56.6661 17.4905C55.5589 17.4905 54.5775 17.1096 53.7219 16.3223C52.8915 15.535 52.4637 14.4683 52.4637 13.0715C52.4637 11.6747 52.8915 10.608 53.7219 9.8207C54.5775 9.0334 55.5589 8.65245 56.6661 8.65245C57.7985 8.65245 58.7799 9.0334 59.6103 9.8207C60.4658 10.608 60.8936 11.6747 60.8936 13.0715C60.8936 14.4683 60.4658 15.535 59.6103 16.3223C58.7799 17.1096 57.7985 17.4905 56.6661 17.4905Z" fill="#F1C086"/>
<path d="M72.4809 6.21436C70.0663 6.21436 68.2228 7.7728 67.6257 9.87669V6.42215H64.8215V19.9286H67.6257V13.565C67.7814 12.1624 68.3267 11.0455 69.2354 10.1884C70.1442 9.33124 71.2606 8.88968 72.5588 8.88968C72.8704 8.88968 73.1041 8.91565 73.2858 8.94163V6.2663C73.1041 6.24033 72.8444 6.21436 72.4809 6.21436Z" fill="#F1C086"/>
<path d="M81 15.9088L76.9106 6.21436H74.1428L79.6535 18.8898L77.3345 24.0001H80.0275L82.1968 19.2405L87.8571 6.21436H85.0893L81 15.9088Z" fill="#F1C086"/>
<path fill-rule="evenodd" clip-rule="evenodd" d="M6 6.42847C2.68629 6.42847 0 9.11476 0 12.4285H12C15.3137 12.4285 18 9.74218 18 6.42847H6ZM6 13.9285C2.68629 13.9285 0 16.6148 0 19.9285H5.57143C8.88514 19.9285 11.5714 17.2422 11.5714 13.9285H6Z" fill="#F1C086"/>
</g>
<defs>
<clipPath id="clip0_2_54122">
<rect width="87.8571" height="24" fill="white"/>
</clipPath>
</defs>
</svg>
