<svg width="292" height="292" viewBox="0 0 292 292" fill="none" xmlns="http://www.w3.org/2000/svg">
<path fill-rule="evenodd" clip-rule="evenodd" d="M52.2715 0.427795H239.728C268.361 0.427795 291.572 23.639 291.572 52.2715V239.728C291.572 268.361 268.361 291.572 239.728 291.572H52.2715C23.639 291.572 0.427734 268.361 0.427734 239.728V52.2715C0.427734 23.639 23.639 0.427795 52.2715 0.427795Z" fill="#316BFF"/>
<path d="M140.081 78.6805H205.903C210.123 78.6805 213.545 82.1019 213.545 86.3225V98.1748C213.545 102.395 210.123 105.817 205.903 105.817H140.081C135.86 105.817 132.439 102.395 132.439 98.1748V86.3225C132.439 82.1019 135.86 78.6805 140.081 78.6805Z" fill="white"/>
<path d="M140.143 132.731H192.393C196.614 132.731 200.036 136.152 200.036 140.373V152.172C200.036 156.393 196.614 159.814 192.393 159.814H140.143C135.923 159.814 132.501 156.393 132.501 152.172V140.373C132.501 136.152 135.923 132.731 140.143 132.731Z" fill="white"/>
<path d="M213.586 194.383V206.198C213.586 210.416 210.163 213.84 205.944 213.84H108.346C92.2792 212.813 79.4405 199.974 78.4134 183.907V85.8017C78.4134 81.5833 81.8371 78.1596 86.0555 78.1596H97.7603C101.979 78.1596 105.402 81.5833 105.402 85.8017V167.156C105.402 178.137 113.298 186.741 124.278 186.741H205.944C210.163 186.741 213.586 190.165 213.586 194.383Z" fill="white"/>
</svg>
