<svg width="142" height="34" viewBox="0 0 142 34" fill="none" xmlns="http://www.w3.org/2000/svg">
    <path d="M14.8546 25.5133C15.2236 24.1915 15.3734 22.8178 15.2979 21.4473C15.3615 20.0985 15.2118 18.7482 14.8546 17.4463C14.6357 16.6597 14.1495 15.9745 13.4801 15.5092C12.8106 15.0439 12.0001 14.8278 11.1886 14.8983C10.3695 14.8289 9.55146 15.0443 8.87205 15.5083C8.19264 15.9723 7.69322 16.6567 7.45772 17.4463C7.09475 18.7656 6.94506 20.1347 7.01434 21.5015C6.95011 22.8717 7.0997 24.2436 7.45772 25.5675C7.69702 26.354 8.1977 27.0348 8.87648 27.4964C9.55526 27.958 10.3712 28.1726 11.1886 28.1047C11.9979 28.1715 12.8054 27.9553 13.4737 27.4927C14.142 27.0302 14.6299 26.3499 14.8546 25.5675V25.5133ZM15.8062 33.3525C15.7396 33.3573 15.6728 33.3477 15.6103 33.3244C15.5477 33.301 15.4909 33.2645 15.4437 33.2171C15.3965 33.1698 15.3601 33.1129 15.3368 33.0502C15.3135 32.9875 15.3039 32.9205 15.3088 32.8537V31.0972C14.1625 32.7128 12.1835 33.8404 9.00414 33.8404C4.98129 33.8404 2.10474 31.8779 0.871932 28.1589C0.212428 25.9858 -0.0764033 23.7167 0.0176173 21.4473C-0.077262 19.1813 0.2116 16.9157 0.871932 14.7465C2.06148 10.9408 4.93803 9.065 8.96088 9.065C12.1402 9.065 14.13 10.1493 15.2655 11.8082V0.499322C15.2624 0.433003 15.2732 0.36677 15.2971 0.304859C15.321 0.242948 15.3575 0.186721 15.4044 0.139776C15.4512 0.0928311 15.5073 0.0562011 15.569 0.0322292C15.6307 0.00825721 15.6968 -0.00252883 15.763 0.000560841H21.7107C21.7764 -0.00267246 21.842 0.00810186 21.9033 0.0321724C21.9645 0.056243 22.0199 0.0930621 22.0659 0.140199C22.1119 0.187336 22.1474 0.243718 22.1701 0.305623C22.1927 0.367528 22.202 0.433547 22.1973 0.499322V32.7995C22.202 32.8653 22.1927 32.9313 22.1701 32.9932C22.1474 33.0551 22.1119 33.1115 22.0659 33.1586C22.0199 33.2058 21.9645 33.2426 21.9033 33.2667C21.842 33.2907 21.7764 33.3015 21.7107 33.2983L15.8062 33.3525Z" fill="#242424"/>
    <path d="M28.2749 33.2983C28.2087 33.3014 28.1427 33.2906 28.0809 33.2666C28.0192 33.2426 27.9631 33.206 27.9163 33.1591C27.8695 33.1121 27.8329 33.0559 27.809 32.994C27.7851 32.9321 27.7744 32.8658 27.7774 32.7995V10.0842C27.7758 10.0192 27.7877 9.95464 27.8124 9.89455C27.8371 9.83446 27.874 9.78022 27.9209 9.7353C27.9677 9.69037 28.0234 9.65576 28.0844 9.63369C28.1453 9.61162 28.2102 9.60257 28.2749 9.60713H34.2335C34.2976 9.60244 34.3621 9.61148 34.4225 9.63364C34.4829 9.65581 34.538 9.6906 34.584 9.73571C34.63 9.78081 34.6659 9.83521 34.6894 9.89529C34.7129 9.95537 34.7233 10.0198 34.7201 10.0842V32.8537C34.7248 32.9195 34.7155 32.9855 34.6928 33.0474C34.6701 33.1093 34.6347 33.1657 34.5887 33.2128C34.5427 33.26 34.4872 33.2968 34.426 33.3209C34.3648 33.3449 34.2991 33.3557 34.2335 33.3525L28.2749 33.2983ZM28.2749 5.82305C28.2102 5.82761 28.1453 5.81856 28.0844 5.79649C28.0234 5.77442 27.9677 5.73981 27.9209 5.69488C27.874 5.64996 27.8371 5.59572 27.8124 5.53563C27.7877 5.47554 27.7758 5.41094 27.7774 5.34598V0.499322C27.7744 0.433003 27.7851 0.36677 27.809 0.304859C27.8329 0.242948 27.8695 0.186721 27.9163 0.139776C27.9631 0.0928311 28.0192 0.0562011 28.0809 0.0322292C28.1427 0.00825721 28.2087 -0.00252883 28.2749 0.000560841H34.2335C34.2991 -0.00267246 34.3648 0.00810186 34.426 0.0321724C34.4872 0.056243 34.5427 0.0930621 34.5887 0.140199C34.6347 0.187336 34.6701 0.243718 34.6928 0.305623C34.7155 0.367528 34.7248 0.433547 34.7201 0.499322V5.34598C34.7233 5.41042 34.7129 5.47481 34.6894 5.53489C34.6659 5.59497 34.63 5.64937 34.584 5.69447C34.538 5.73958 34.4829 5.77437 34.4225 5.79654C34.3621 5.8187 34.2976 5.82774 34.2335 5.82305H28.2749Z" fill="#242424"/>
    <path d="M46.9941 33.2983C46.8536 33.294 46.7185 33.2425 46.6106 33.1521C46.5028 33.0616 46.4284 32.9375 46.3993 32.7995L37.8562 10.0842C37.7589 9.79145 37.8562 9.60713 38.2563 9.60713H44.5069C44.6541 9.58832 44.8029 9.62753 44.9219 9.71652C45.041 9.8055 45.1209 9.93731 45.1449 10.0842L49.8166 24.1796H49.9139L54.3801 10.0842C54.409 9.93765 54.4917 9.80731 54.6119 9.71896C54.732 9.63062 54.8809 9.59071 55.029 9.60713H61.1822C61.5283 9.60713 61.6688 9.80229 61.5823 10.0842L53.0392 32.8537C53.0084 32.9908 52.9335 33.1139 52.826 33.2041C52.7185 33.2942 52.5844 33.3464 52.4444 33.3525H47.0374L46.9941 33.2983Z" fill="#242424"/>
    <path d="M78.2252 25.4157V23.8001C78.2306 23.7604 78.2267 23.72 78.2139 23.682C78.2012 23.6441 78.1798 23.6096 78.1515 23.5812C78.1233 23.5529 78.0889 23.5315 78.051 23.5187C78.0131 23.5059 77.9728 23.502 77.9332 23.5074H74.5592C71.6286 23.5074 70.2336 24.3423 70.2336 26.1963C70.2336 27.8661 71.4231 28.701 73.7049 28.701C76.6896 28.701 78.1711 27.6167 78.1711 25.4482L78.2252 25.4157ZM78.8308 33.2983C78.7642 33.3031 78.6974 33.2935 78.6349 33.2702C78.5723 33.2468 78.5155 33.2102 78.4683 33.1629C78.4211 33.1156 78.3847 33.0587 78.3614 32.996C78.3381 32.9332 78.3285 32.8662 78.3334 32.7995V31.2382C77.0897 32.7995 75.0026 33.8404 71.7259 33.8404C67.4652 33.8404 63.7343 31.6719 63.7343 26.5867C63.7343 21.5015 67.7572 18.9968 73.7157 18.9968H77.9873C78.0269 19.0022 78.0672 18.9983 78.1051 18.9855C78.1429 18.9727 78.1774 18.9513 78.2056 18.923C78.2339 18.8946 78.2552 18.8601 78.268 18.8222C78.2808 18.7842 78.2846 18.7438 78.2793 18.7041V17.8258C78.2793 15.6573 77.1979 14.5731 73.3697 14.5731C71.4522 14.49 69.5583 15.0218 67.9626 16.091C67.9202 16.1384 67.8669 16.1746 67.8073 16.1966C67.7477 16.2185 67.6836 16.2255 67.6207 16.217C67.5578 16.2084 67.4979 16.1845 67.4463 16.1475C67.3947 16.1104 67.3529 16.0612 67.3246 16.0043L65.1293 12.1009C65.0909 12.0468 65.0644 11.985 65.0517 11.9197C65.039 11.8544 65.0404 11.7872 65.0557 11.7225C65.0711 11.6578 65.1001 11.5971 65.1408 11.5446C65.1814 11.492 65.2328 11.4488 65.2915 11.4178C67.956 9.72922 71.0758 8.90744 74.224 9.065C82.0642 9.065 84.8975 11.7106 84.8975 17.6307V32.8103C84.9006 32.8767 84.8898 32.9429 84.8659 33.0048C84.842 33.0667 84.8055 33.1229 84.7587 33.1699C84.7118 33.2168 84.6558 33.2535 84.594 33.2774C84.5323 33.3014 84.4662 33.3122 84.4001 33.3091H78.8308V33.2983Z" fill="#242424"/>
    <path d="M97.5717 33.591C92.2619 33.591 90.1208 31.2924 90.1208 26.0554V0.499322C90.1177 0.433003 90.1284 0.36677 90.1523 0.304859C90.1762 0.242947 90.2128 0.186721 90.2596 0.139776C90.3064 0.092831 90.3625 0.056201 90.4243 0.0322291C90.486 0.00825717 90.5521 -0.00252887 90.6182 0.000560802H96.5768C96.6429 -0.00252887 96.709 0.00825717 96.7707 0.0322291C96.8325 0.056201 96.8886 0.092831 96.9354 0.139776C96.9822 0.186721 97.0187 0.242947 97.0426 0.304859C97.0666 0.36677 97.0773 0.433003 97.0742 0.499322V25.5133C97.0742 27.1288 97.7231 27.7685 99.1614 27.7685H100.243C100.308 27.7638 100.374 27.7732 100.436 27.7959C100.498 27.8186 100.554 27.8542 100.601 27.9003C100.648 27.9464 100.685 28.002 100.709 28.0634C100.733 28.1248 100.743 28.1906 100.74 28.2564V33.1031C100.743 33.169 100.733 33.2348 100.709 33.2961C100.685 33.3575 100.648 33.4131 100.601 33.4592C100.554 33.5054 100.498 33.5409 100.436 33.5637C100.374 33.5864 100.308 33.5957 100.243 33.591H97.5717Z" fill="#FF9C00"/>
    <path d="M112.355 33.591C106.796 33.591 104.709 31.1406 104.709 25.7084V14.9309C104.714 14.8912 104.71 14.8507 104.698 14.8128C104.685 14.7748 104.664 14.7403 104.635 14.712C104.607 14.6836 104.573 14.6622 104.535 14.6494C104.497 14.6366 104.457 14.6327 104.417 14.6381H102.979C102.913 14.6428 102.847 14.6335 102.786 14.6107C102.724 14.588 102.668 14.5524 102.621 14.5063C102.574 14.4602 102.537 14.4046 102.513 14.3432C102.489 14.2819 102.478 14.2161 102.481 14.1502V10.0842C102.478 10.0188 102.489 9.95337 102.513 9.89247C102.537 9.83157 102.574 9.77659 102.621 9.73131C102.668 9.68602 102.725 9.65148 102.786 9.63005C102.848 9.60862 102.914 9.6008 102.979 9.60713H104.471C104.666 9.60713 104.763 9.50955 104.763 9.30354V2.93891C104.761 2.87394 104.773 2.80934 104.798 2.74926C104.823 2.68917 104.86 2.63493 104.906 2.59C104.953 2.54508 105.009 2.51047 105.07 2.4884C105.131 2.46633 105.196 2.45728 105.26 2.46184H111.165C111.23 2.45728 111.295 2.46633 111.356 2.4884C111.416 2.51047 111.472 2.54508 111.519 2.59C111.566 2.63493 111.603 2.68917 111.628 2.74926C111.652 2.80934 111.664 2.87394 111.662 2.93891V9.30354C111.662 9.50955 111.76 9.60713 111.954 9.60713H115.036C115.101 9.60257 115.166 9.61162 115.227 9.63369C115.288 9.65577 115.344 9.69037 115.39 9.7353C115.437 9.78022 115.474 9.83446 115.499 9.89455C115.524 9.95464 115.536 10.0192 115.534 10.0842V14.1936C115.537 14.2594 115.526 14.3252 115.502 14.3866C115.478 14.448 115.442 14.5036 115.395 14.5497C115.348 14.5958 115.291 14.6314 115.23 14.6541C115.168 14.6768 115.102 14.6862 115.036 14.6815H111.954C111.915 14.6761 111.875 14.68 111.837 14.6928C111.799 14.7056 111.764 14.727 111.736 14.7553C111.708 14.7837 111.687 14.8182 111.674 14.8561C111.661 14.8941 111.657 14.9345 111.662 14.9742V25.4482C111.662 27.2156 112.257 27.8011 113.825 27.8011H115.015C115.081 27.7962 115.148 27.8058 115.211 27.8291C115.273 27.8525 115.33 27.8891 115.377 27.9364C115.424 27.9837 115.461 28.0407 115.484 28.1034C115.508 28.1661 115.517 28.2331 115.512 28.2998V33.1465C115.516 33.2119 115.505 33.2773 115.481 33.3382C115.457 33.3991 115.42 33.4541 115.373 33.4994C115.325 33.5447 115.269 33.5792 115.207 33.6006C115.145 33.6221 115.08 33.6299 115.015 33.6236H112.387L112.355 33.591Z" fill="#242424"/>
    <path d="M133.658 25.5132C134.033 24.1962 134.183 22.8252 134.102 21.4581C134.183 20.091 134.033 18.7199 133.658 17.403C133.367 16.651 132.856 16.0048 132.192 15.5491C131.529 15.0935 130.743 14.8496 129.938 14.8496C129.134 14.8496 128.348 15.0935 127.684 15.5491C127.02 16.0048 126.509 16.651 126.218 17.403C125.844 18.7201 125.694 20.091 125.775 21.4581C125.694 22.8252 125.844 24.1963 126.218 25.5132C126.509 26.2652 127.02 26.9114 127.684 27.3671C128.348 27.8228 129.134 28.0666 129.938 28.0666C130.743 28.0666 131.529 27.8228 132.192 27.3671C132.856 26.9114 133.367 26.2652 133.658 25.5132ZM119.514 27.2047C118.934 25.35 118.663 23.412 118.713 21.4689C118.662 19.5294 118.933 17.5948 119.514 15.744C120.909 11.407 124.867 9.08667 129.938 9.08667C135.01 9.08667 138.968 11.4395 140.363 15.744C140.939 17.596 141.209 19.5297 141.163 21.4689C141.208 23.4117 140.938 25.3488 140.363 27.2047C138.968 31.5417 134.956 33.8621 129.938 33.8621C124.921 33.8621 120.909 31.5417 119.514 27.2047Z" fill="#242424"/>
</svg>

