<svg width="173" height="50" viewBox="0 0 173 50" fill="none" xmlns="http://www.w3.org/2000/svg">
<path d="M47.5938 34.0156C48.9375 34.0156 50.2812 33.8047 51.625 33.3828V37.5312C51.0156 37.7969 50.2266 38.0156 49.2578 38.1875C48.3047 38.375 47.3125 38.4688 46.2812 38.4688C41.0625 38.4688 38.4531 35.7188 38.4531 30.2188V16.25H34.9141V13.8125L38.7109 11.7969L40.5859 6.3125H43.9844V12.0781H51.3672V16.25H43.9844V30.125C43.9844 31.4531 44.3125 32.4375 44.9688 33.0781C45.6406 33.7031 46.5156 34.0156 47.5938 34.0156ZM69.9766 11.6094C71.0859 11.6094 72 11.6875 72.7188 11.8438L72.1797 16.9766C71.3984 16.7891 70.5859 16.6953 69.7422 16.6953C67.5391 16.6953 65.75 17.4141 64.375 18.8516C63.0156 20.2891 62.3359 22.1562 62.3359 24.4531V38H56.8281V12.0781H61.1406L61.8672 16.6484H62.1484C63.0078 15.1016 64.125 13.875 65.5 12.9688C66.8906 12.0625 68.3828 11.6094 69.9766 11.6094ZM93.7656 38L92.6641 34.3906H92.4766C91.2266 35.9688 89.9688 37.0469 88.7031 37.625C87.4375 38.1875 85.8125 38.4688 83.8281 38.4688C81.2812 38.4688 79.2891 37.7812 77.8516 36.4062C76.4297 35.0312 75.7188 33.0859 75.7188 30.5703C75.7188 27.8984 76.7109 25.8828 78.6953 24.5234C80.6797 23.1641 83.7031 22.4219 87.7656 22.2969L92.2422 22.1562V20.7734C92.2422 19.1172 91.8516 17.8828 91.0703 17.0703C90.3047 16.2422 89.1094 15.8281 87.4844 15.8281C86.1562 15.8281 84.8828 16.0234 83.6641 16.4141C82.4453 16.8047 81.2734 17.2656 80.1484 17.7969L78.3672 13.8594C79.7734 13.125 81.3125 12.5703 82.9844 12.1953C84.6562 11.8047 86.2344 11.6094 87.7188 11.6094C91.0156 11.6094 93.5 12.3281 95.1719 13.7656C96.8594 15.2031 97.7031 17.4609 97.7031 20.5391V38H93.7656ZM85.5625 34.25C87.5625 34.25 89.1641 33.6953 90.3672 32.5859C91.5859 31.4609 92.1953 29.8906 92.1953 27.875V25.625L88.8672 25.7656C86.2734 25.8594 84.3828 26.2969 83.1953 27.0781C82.0234 27.8438 81.4375 29.0234 81.4375 30.6172C81.4375 31.7734 81.7812 32.6719 82.4688 33.3125C83.1562 33.9375 84.1875 34.25 85.5625 34.25ZM115.844 38.4688C111.922 38.4688 108.938 37.3281 106.891 35.0469C104.859 32.75 103.844 29.4609 103.844 25.1797C103.844 20.8203 104.906 17.4688 107.031 15.125C109.172 12.7812 112.258 11.6094 116.289 11.6094C119.023 11.6094 121.484 12.1172 123.672 13.1328L122.008 17.5625C119.68 16.6562 117.758 16.2031 116.242 16.2031C111.758 16.2031 109.516 19.1797 109.516 25.1328C109.516 28.0391 110.07 30.2266 111.18 31.6953C112.305 33.1484 113.945 33.875 116.102 33.875C118.555 33.875 120.875 33.2656 123.062 32.0469V36.8516C122.078 37.4297 121.023 37.8438 119.898 38.0938C118.789 38.3438 117.438 38.4688 115.844 38.4688ZM134.477 24.3125L137.594 20.4219L145.422 12.0781H151.773L141.344 23.2109L152.43 38H145.961L137.641 26.6328L134.617 29.1172V38H129.156V1.53125H134.617V19.3203L134.336 24.3125H134.477ZM169.773 11.6094C170.883 11.6094 171.797 11.6875 172.516 11.8438L171.977 16.9766C171.195 16.7891 170.383 16.6953 169.539 16.6953C167.336 16.6953 165.547 17.4141 164.172 18.8516C162.812 20.2891 162.133 22.1562 162.133 24.4531V38H156.625V12.0781H160.938L161.664 16.6484H161.945C162.805 15.1016 163.922 13.875 165.297 12.9688C166.688 12.0625 168.18 11.6094 169.773 11.6094Z" fill="#3D4148"/>
<line x1="28" y1="4.80825e-08" x2="28" y2="50" stroke="#3D4148" stroke-width="2"/>
<path d="M19.3516 30.6172C19.3516 33.1484 18.4297 35.0938 16.5859 36.4531C14.7422 37.7969 12.1016 38.4688 8.66406 38.4688C5.21094 38.4688 2.4375 37.9453 0.34375 36.8984V32.1406C3.39062 33.5469 6.22656 34.25 8.85156 34.25C12.2422 34.25 13.9375 33.2266 13.9375 31.1797C13.9375 30.5234 13.75 29.9766 13.375 29.5391C13 29.1016 12.3828 28.6484 11.5234 28.1797C10.6641 27.7109 9.46875 27.1797 7.9375 26.5859C4.95312 25.4297 2.92969 24.2734 1.86719 23.1172C0.820312 21.9609 0.296875 20.4609 0.296875 18.6172C0.296875 16.3984 1.1875 14.6797 2.96875 13.4609C4.76562 12.2266 7.20312 11.6094 10.2812 11.6094C13.3281 11.6094 16.2109 12.2266 18.9297 13.4609L17.1484 17.6094C14.3516 16.4531 12 15.875 10.0938 15.875C7.1875 15.875 5.73438 16.7031 5.73438 18.3594C5.73438 19.1719 6.10938 19.8594 6.85938 20.4219C7.625 20.9844 9.28125 21.7578 11.8281 22.7422C13.9688 23.5703 15.5234 24.3281 16.4922 25.0156C17.4609 25.7031 18.1797 26.5 18.6484 27.4062C19.1172 28.2969 19.3516 29.3672 19.3516 30.6172Z" fill="#3D4148"/>
</svg>
