<?xml version="1.0" encoding="utf-8"?>
<!-- Generator: Adobe Illustrator 23.0.6, SVG Export Plug-In . SVG Version: 6.00 Build 0)  -->
<svg version="1.1" id="Calque_1" xmlns="http://www.w3.org/2000/svg" xmlns:xlink="http://www.w3.org/1999/xlink" x="0px" y="0px"
	 viewBox="0 0 1879 237" style="enable-background:new 0 0 1879 237;" xml:space="preserve">
<style type="text/css">
	.st0{fill:#FFD520;stroke:#FFD520;stroke-linejoin:round;stroke-miterlimit:10;}
	.st1{display:none;}
	.st2{display:inline;fill:#FFFFFF;}
	.st3{font-family:'Montserrat-Bold';}
	.st4{font-size:223.335px;}
	.st5{letter-spacing:2;}
	.st6{font-family:'Montserrat-Medium';}
	.st7{letter-spacing:10;}
	.st8{letter-spacing:6;}
	.st9{letter-spacing:1;}
	.st10{fill:#FFFFFF;}
	.st11{fill:none;}
</style>
<path class="st0" d="M78.6,188.5c0,0,169.5,23.6,212.1-172.2c0,0,30.2,106.4-23.4,158C226.4,213.8,144.8,237.4,78.6,188.5z"/>
<path class="st0" d="M5.2,107.9c0,0,54.4,39.9,191.2,0c0,0-18.6,47.4-107.8,48C20.4,156.4,5.2,107.9,5.2,107.9z"/>
<text id="easyhoster_-_Texte2" transform="matrix(1 0 0 1 355.2729 177.7354)" class="st1"><tspan x="0" y="0" class="st2 st3 st4">e</tspan><tspan x="141.8" y="0" class="st2 st3 st4">a</tspan><tspan x="279.4" y="0" class="st2 st3 st4 st5">s</tspan><tspan x="400" y="0" class="st2 st3 st4">y</tspan><tspan x="533.3" y="0" class="st2 st6 st4 st5">h</tspan><tspan x="688.3" y="0" class="st2 st6 st4 st7">o</tspan><tspan x="840.8" y="0" class="st2 st6 st4 st8">s</tspan><tspan x="959" y="0" class="st2 st6 st4 st8">t</tspan><tspan x="1058.1" y="0" class="st2 st6 st4 st9">er</tspan></text>
<g id="easyhoster_-_Vectors2">
	<path class="st10" d="M488.4,127.5h-90.9c1.6,7.4,5.5,13.3,11.6,17.6c6.1,4.3,13.7,6.5,22.8,6.5c6.3,0,11.8-0.9,16.6-2.8
		c4.8-1.9,9.3-4.8,13.5-8.8l18.5,20.1c-11.3,13-27.8,19.4-49.6,19.4c-13.6,0-25.5-2.6-36-7.9c-10.4-5.3-18.5-12.6-24.1-22
		c-5.7-9.4-8.5-20-8.5-31.9c0-11.8,2.8-22.4,8.4-31.8c5.6-9.5,13.3-16.8,23-22.1c9.7-5.3,20.7-7.9,32.7-7.9
		c11.8,0,22.4,2.5,31.9,7.6c9.5,5.1,17,12.3,22.4,21.8c5.4,9.5,8.2,20.4,8.2,32.9C489,118.5,488.8,121.7,488.4,127.5z M406.9,88.8
		c-5.4,4.5-8.6,10.6-9.8,18.3h59.2c-1.2-7.6-4.5-13.7-9.8-18.2c-5.4-4.5-11.9-6.8-19.7-6.8C418.8,82.1,412.2,84.4,406.9,88.8z"/>
	<path class="st10" d="M604.5,69.1c10,8.9,15,22.2,15,40.1v68.6h-32.6v-15c-6.6,11.2-18.8,16.7-36.6,16.7c-9.2,0-17.2-1.6-24-4.7
		c-6.8-3.1-11.9-7.4-15.5-13c-3.6-5.5-5.4-11.8-5.4-18.8c0-11.2,4.2-20,12.6-26.4c8.4-6.4,21.4-9.6,39-9.6h27.7
		c0-7.6-2.3-13.4-6.9-17.5c-4.6-4.1-11.5-6.1-20.8-6.1c-6.4,0-12.7,1-18.9,3c-6.2,2-11.4,4.7-15.7,8.2l-12.5-24.3
		c6.5-4.6,14.4-8.2,23.6-10.7c9.2-2.5,18.6-3.8,28.3-3.8C580.2,55.8,594.5,60.2,604.5,69.1z M574.8,151.9c4.6-2.7,7.9-6.8,9.8-12.2
		v-12.3h-23.9c-14.3,0-21.4,4.7-21.4,14.1c0,4.5,1.7,8,5.3,10.6c3.5,2.6,8.3,3.9,14.4,3.9C564.9,156.1,570.2,154.7,574.8,151.9z"/>
	<path class="st10" d="M661.9,175.8c-9.5-2.5-17.1-5.5-22.8-9.3l11.6-25c5.4,3.4,11.8,6.2,19.4,8.4s15,3.2,22.3,3.2
		c14.7,0,22.1-3.6,22.1-10.9c0-3.4-2-5.9-6-7.4c-4-1.5-10.2-2.8-18.5-3.8c-9.8-1.5-17.9-3.2-24.3-5.1c-6.4-1.9-12-5.4-16.6-10.3
		c-4.7-4.9-7-11.9-7-21c0-7.6,2.2-14.3,6.6-20.2c4.4-5.9,10.8-10.5,19.2-13.7c8.4-3.3,18.3-4.9,29.8-4.9c8.5,0,16.9,0.9,25.3,2.8
		c8.4,1.9,15.4,4.4,20.9,7.7l-11.6,24.8c-10.6-6-22.1-8.9-34.6-8.9c-7.4,0-13,1-16.8,3.1c-3.7,2.1-5.6,4.8-5.6,8c0,3.7,2,6.3,6,7.8
		c4,1.5,10.4,2.9,19.2,4.2c9.8,1.6,17.9,3.4,24.1,5.2c6.3,1.9,11.7,5.3,16.3,10.2c4.6,4.9,6.9,11.8,6.9,20.5
		c0,7.4-2.2,14.1-6.7,19.9c-4.5,5.8-11,10.3-19.5,13.5c-8.6,3.2-18.7,4.8-30.5,4.8C681.2,179.5,671.4,178.3,661.9,175.8z"/>
	<path class="st10" d="M890.6,57.6l-54.3,127.5c-5.5,13.9-12.3,23.6-20.4,29.3c-8.1,5.7-17.9,8.5-29.4,8.5c-6.3,0-12.4-1-18.5-2.9
		c-6.1-1.9-11.1-4.6-15-8l12.7-24.8c2.7,2.4,5.8,4.2,9.3,5.6c3.5,1.3,7,2,10.4,2c4.8,0,8.6-1.2,11.6-3.5c3-2.3,5.7-6.1,8-11.5
		l0.4-1.1l-52-121h36l33.7,81.5l33.9-81.5H890.6z"/>
	<path class="st10" d="M1010.6,71.3c8.9,8.7,13.3,21.5,13.3,38.3v68.1h-21.4v-65.7c0-11.5-2.8-20.1-8.3-25.9
		c-5.5-5.8-13.4-8.7-23.7-8.7c-11.6,0-20.8,3.4-27.5,10.2c-6.7,6.8-10.1,16.5-10.1,29.1v61h-21.4V12H933v64.1
		c4.5-5.7,10.3-10,17.5-13.2c7.2-3.1,15.3-4.7,24.2-4.7C989.8,58.2,1001.7,62.6,1010.6,71.3z"/>
	<path class="st10" d="M1084.8,171.2c-9.4-5.2-16.7-12.4-22-21.5c-5.3-9.2-7.9-19.5-7.9-31.2s2.6-22,7.9-31.2s12.6-16.3,22-21.4
		s20-7.7,31.7-7.7s22.3,2.6,31.6,7.7c9.3,5.1,16.6,12.3,21.9,21.4c5.3,9.2,7.9,19.5,7.9,31.2s-2.7,22-7.9,31.2
		c-5.3,9.2-12.6,16.3-21.9,21.5c-9.3,5.2-19.8,7.8-31.6,7.8S1094.2,176.5,1084.8,171.2z M1137,155.1c6-3.5,10.8-8.4,14.2-14.7
		c3.4-6.3,5.1-13.6,5.1-21.8c0-8.2-1.7-15.4-5.1-21.8c-3.4-6.3-8.1-11.2-14.2-14.6c-6-3.4-12.8-5.1-20.4-5.1
		c-7.6,0-14.4,1.7-20.4,5.1c-6,3.4-10.8,8.3-14.3,14.6c-3.5,6.3-5.3,13.6-5.3,21.8c0,8.2,1.7,15.4,5.3,21.8
		c3.5,6.3,8.3,11.2,14.3,14.7c6,3.5,12.8,5.2,20.4,5.2C1124.2,160.3,1131,158.6,1137,155.1z"/>
	<path class="st10" d="M1222.5,175.2c-8.9-2.6-15.9-5.9-21-9.9l8.9-17c5.2,3.7,11.5,6.7,19,8.9c7.4,2.2,15,3.4,22.6,3.4
		c18.8,0,28.1-5.4,28.1-16.1c0-3.6-1.3-6.4-3.8-8.5c-2.5-2.1-5.7-3.6-9.5-4.6c-3.8-1-9.2-2-16.2-3.2c-9.5-1.5-17.3-3.2-23.3-5.1
		c-6-1.9-11.2-5.2-15.5-9.8c-4.3-4.6-6.5-11.1-6.5-19.4c0-10.7,4.5-19.3,13.4-25.8c8.9-6.5,20.9-9.7,36-9.7c7.9,0,15.8,1,23.7,2.9
		c7.9,1.9,14.4,4.5,19.4,7.8l-9.2,17c-9.7-6.3-21.1-9.4-34.2-9.4c-9.1,0-16,1.5-20.8,4.5c-4.8,3-7.2,6.9-7.2,11.8
		c0,3.9,1.3,6.9,4,9.2c2.7,2.2,6,3.9,9.9,4.9c4,1,9.5,2.2,16.6,3.6c9.5,1.6,17.2,3.4,23.1,5.3c5.9,1.9,10.9,5,15.1,9.5
		c4.2,4.5,6.3,10.7,6.3,18.8c0,10.7-4.6,19.2-13.7,25.6c-9.2,6.3-21.6,9.5-37.4,9.5C1240.7,179.1,1231.4,177.8,1222.5,175.2z"/>
	<path class="st10" d="M1401.1,170.8c-3.1,2.7-7,4.7-11.6,6.1c-4.6,1.4-9.4,2.1-14.3,2.1c-11.9,0-21.1-3.2-27.7-9.6
		s-9.8-15.6-9.8-27.5V77h-20.1V59.4h20.1V28.5h21.4v30.8h33.9V77h-33.9v64.1c0,6.4,1.6,11.3,4.8,14.7s7.8,5.1,13.7,5.1
		c6.5,0,12.1-1.9,16.7-5.6L1401.1,170.8z"/>
	<path class="st10" d="M1537.7,125.7h-96c1.3,10.4,5.9,18.8,13.7,25.1c7.8,6.3,17.5,9.5,29.1,9.5c14.1,0,25.5-4.8,34.2-14.3
		l11.8,13.8c-5.4,6.3-12,11-20,14.3c-8,3.3-16.9,4.9-26.7,4.9c-12.5,0-23.6-2.6-33.3-7.7c-9.7-5.1-17.2-12.3-22.4-21.6
		c-5.3-9.2-7.9-19.6-7.9-31.3c0-11.5,2.6-21.8,7.7-31c5.1-9.2,12.2-16.4,21.2-21.6c9-5.1,19.2-7.7,30.5-7.7
		c11.3,0,21.4,2.6,30.3,7.7c8.9,5.1,15.8,12.3,20.8,21.6c5,9.2,7.5,19.8,7.5,31.7C1538.1,120.9,1538,123,1537.7,125.7z M1453.8,85.7
		c-6.9,6.3-11,14.4-12.2,24.6h75.9c-1.2-10-5.3-18.1-12.2-24.5c-6.9-6.3-15.5-9.5-25.8-9.5C1469.3,76.3,1460.7,79.5,1453.8,85.7z"/>
	<path class="st10" d="M1609.3,63.6c7.3-3.6,16.2-5.4,26.6-5.4V79c-1.2-0.1-2.8-0.2-4.9-0.2c-11.6,0-20.7,3.5-27.4,10.4
		c-6.6,6.9-9.9,16.8-9.9,29.6v59h-21.4V59.4h20.6v19.9C1596.5,72.4,1602,67.2,1609.3,63.6z"/>
</g>
<rect x="2" y="1" class="st11" width="1870" height="234"/>
</svg>
