<?xml version="1.0" encoding="UTF-8"?><svg id="a" xmlns="http://www.w3.org/2000/svg" viewBox="0 0 150 48" width="145" height="45"><defs><style>.b{fill:#ffed00;}</style></defs><path d="M25.72,47.2L9.33,24.55v22.65H0V.8H9.33V22.22L24.53,.8h11.71l-15.78,22.22,17.52,24.18h-12.26Z"/><path d="M78.43,.8h9.33V47.2h-9.33V.8Z"/><g><path d="M134.81,10.2v9.55c3.28,1.47,5.38,4.73,5.38,8.95s-2.1,7.48-5.38,8.95v9.56c8.9-1.76,15.19-9.12,15.19-18.5s-6.29-16.75-15.19-18.5Z"/><path d="M125.48,37.63c-3.26-1.48-5.34-4.73-5.34-8.93s2.08-7.45,5.34-8.93V10.2c-8.91,1.76-15.15,9.07-15.15,18.5s6.24,16.73,15.15,18.5v-9.57Z"/><rect class="b" x="125.48" y="10.2" width="9.33" height="37"/></g><path d="M61.4,35.17c-1.55,2.12-4.08,3.4-7.1,3.4-4.7,0-7.91-2.69-8.75-7.58h27.1c.12-.95,.19-1.89,.19-2.84h0c0-10.31-7.54-18.79-18.54-18.79s-18.57,8.13-18.57,18.92,8,18.92,18.57,18.92c8.04,0,14.72-4.66,17.5-12.03h-10.4Zm-7.1-17.54c4.16,0,7.22,2.18,8.67,6.22h-17c1.24-3.91,4.21-6.22,8.33-6.22Z"/><g><path d="M95.05,15.22h9.33v31.98h-9.33V15.22Z"/><rect x="95.05" y=".8" width="9.29" height="9"/></g></svg>
