<svg width="415" height="128" viewBox="0 0 415 128" fill="none" xmlns="http://www.w3.org/2000/svg"><path d="M306.57 47.782h-5.891c-.655 0-1.236.436-1.382 1.018-.291.873-.509 1.455-.582 1.818-2.327 7.127-5.891 17.891-10.545 32.218-.073.219-.364 1.019-.946 2.328-.145.363-.581.509-.945.363a.876.876 0 0 1-.364-.363c-.509-1.164-.8-1.891-.945-2.328-4.8-14.763-8.364-25.818-10.691-33.236-.073-.218-.146-.51-.218-.727-.218-.582-.728-1.018-1.382-1.018h-5.818c-.8 0-1.455.654-1.455 1.454 0 .146 0 .291.073.437.073.218.145.363.218.581 3.636 10.328 9.091 25.746 16.364 46.328 0 .072 0 .072.072.145.073.29.073.582 0 .873 0 .073 0 .073-.072.145-.073.291-.218.655-.291.946-1.018 2.836-3.709 4.8-6.764 4.8h-6.109c-.8 0-1.454.654-1.454 1.454v4.873c0 .8.654 1.454 1.454 1.454h6.109c5.964 0 11.273-3.49 13.673-8.945.073-.218.145-.436.291-.655.073-.218 4.363-12.363 18.691-52.436.218-.509-.073-1.163-.582-1.382h-.073c-.218-.072-.291-.145-.436-.145Zm-77.527 41.382c1.381.436 2.836.654 4.29.654 4.291-.072 8.437-1.745 11.564-4.8 2.255-2.254 3.491-5.382 3.418-8.582v-3.781a.652.652 0 0 0-.654-.655h-.146c-.727.073-1.091.073-1.091.073l-4.581.582-9.091 1.381c-4.873.8-7.855 2.764-8.8 5.819-.219.727-.364 1.454-.364 2.254.073 3.273 2.327 6.11 5.455 7.055Zm27.418 3.2v2.909c0 .8-.655 1.454-1.455 1.454h-4.727a1.46 1.46 0 0 1-1.455-1.454l-.072-4.8c0-.073-.073-.146-.073-.218a.351.351 0 0 0-.509 0 4.16 4.16 0 0 0-.8.8c-3.782 3.781-8.946 5.672-15.637 5.672-4.8 0-8.727-1.309-11.781-3.854-3.055-2.546-4.509-6.11-4.509-10.618A13.257 13.257 0 0 1 216.752 76c.8-1.673 1.963-3.055 3.491-4.073a15.488 15.488 0 0 1 4.218-2.181 21.81 21.81 0 0 1 4.145-1.091c7.055-1.019 10.837-1.528 11.564-1.673.582-.073 2.909-.364 6.909-.946.291-.072.509-.072.8-.072.364-.073.654-.364.654-.728V63.2c0-3.055-.8-5.455-2.4-7.127-1.6-1.673-4.581-2.546-8.872-2.546-1.964 0-3.928.218-5.818.8a7.839 7.839 0 0 0-3.71 2.4c-.654.873-1.236 1.746-1.6 2.764-.072.218-.145.436-.218.727 0 .073 0 .146-.072.218a1.487 1.487 0 0 1-1.455 1.164h-5.455a1.51 1.51 0 0 1-1.381-1.527v-.291c.072-.582.145-1.018.218-1.382a16.025 16.025 0 0 1 1.673-4 14.146 14.146 0 0 1 3.272-3.636 20.145 20.145 0 0 1 5.673-2.619c2.764-.727 5.673-1.018 8.509-1.018 13.164 0 19.564 5.237 19.564 15.855v29.382Zm107.854-43.491v46.254c0 .8.655 1.455 1.455 1.455h5.891c.8 0 1.454-.655 1.454-1.455V48.873c0-.8-.654-1.455-1.454-1.455h-5.891c-.8 0-1.455.655-1.455 1.455Zm0-14.691v5.89c0 .8.655 1.455 1.455 1.455h5.891c.8 0 1.454-.654 1.454-1.454v-5.891c0-.8-.654-1.455-1.454-1.455h-5.891c-.8 0-1.455.655-1.455 1.455Zm36.291 20.945h12.437c.8 0 1.454-.654 1.454-1.454V48.8c0-.8-.654-1.454-1.454-1.454h-12.437c-.363 0-.727-.291-.727-.655V34.182c0-.8-.655-1.455-1.455-1.455h-5.891c-.8 0-1.454.655-1.454 1.455V46.69c0 .364-.291.727-.655.727h-5.454c-.8 0-1.455.655-1.455 1.455v4.873c0 .8.655 1.454 1.455 1.454h5.382c.363 0 .727.29.727.655V82.182c.291 8 6.836 14.4 14.836 14.4h6.618c.8 0 1.455-.655 1.455-1.455v-4.872c0-.8-.655-1.455-1.455-1.455h-6.618a6.1 6.1 0 0 1-6.109-6.11V55.856c.073-.437.364-.728.8-.728Zm-191.854-2.545c0-10.837-8.655-19.636-19.419-19.855h-28c-.8 0-1.454.655-1.454 1.455v60.945c0 .8.654 1.455 1.454 1.455h5.891c.8 0 1.455-.655 1.455-1.455v-21.89c0-.364.291-.728.654-.728h20c10.837-.29 19.419-9.09 19.419-19.927Zm-7.709 0a12.043 12.043 0 0 1-12.073 12.073h-19.491c-.364 0-.727-.291-.727-.655V41.237c0-.364.291-.728.654-.728h19.564a12.043 12.043 0 0 1 12.073 12.073Zm124.8 19.709h22.109c.8 0 1.454-.655 1.454-1.455v-4.872c0-.8-.654-1.455-1.454-1.455h-22.109c-.364 0-.728-.29-.728-.654V41.236c0-.363.291-.727.655-.727h27.2c.8 0 1.454-.654 1.454-1.454v-4.873c0-.8-.654-1.455-1.454-1.455h-35.2c-.8 0-1.455.655-1.455 1.455v60.945c0 .8.655 1.455 1.455 1.455h5.891c.8 0 1.454-.655 1.454-1.455V73.018c0-.436.291-.727.728-.727Z" fill="#0F6FDE"/><path fill-rule="evenodd" clip-rule="evenodd" d="M64.606 128c-35.346 0-64-28.655-64-64 0-35.346 28.654-64 64-64 35.345 0 63.999 28.654 63.999 64 0 35.345-28.654 64-64 64Zm-.873-41.236V74.036c0-.363.29-.727.654-.727H79.37c10.835-.436 19.2-9.527 18.763-20.363-.437-10.255-8.655-18.4-18.837-18.764H42.787c-.8 0-1.454.654-1.454 1.454v51.346c0 6.182 5.018 11.2 11.2 11.2 6.182 0 11.2-5.018 11.2-11.2.073-.146.073-.218 0-.218Zm.727-30.182h14.11c1.6 0 2.908-1.31 2.908-2.91s-1.309-2.908-2.909-2.908H59.442c-.8 0-1.455.654-1.455 1.454V86.91c0 2.982-2.472 5.455-5.454 5.455-2.982 0-5.455-2.473-5.455-5.455V40.654c0-.363.291-.727.655-.727H78.569c7.636-.145 13.964 5.964 14.037 13.528.145 7.636-5.964 13.963-13.528 14.036H64.46c-.364 0-.727-.291-.727-.655V57.31c0-.363.29-.654.727-.727Z" fill="#0F6FDE"/></svg>