<svg xmlns="http://www.w3.org/2000/svg" width="208.474" height="40.747"
     viewBox="0 0 208.474 40.747">
    <g id="Groupe_9" data-name="Groupe 9" transform="translate(-119.144 -427.605)">
        <g id="Groupe_8" data-name="Groupe 8" transform="translate(119.144 427.605)">
            <path id="Tracé_258" data-name="Tracé 258"
                  d="M148.166,428.495l-2.123,14.3L153,457.717a4.95,4.95,0,0,1-8.972,4.185l-.147-.317a4.952,4.952,0,0,0,9.535-1.044l2.153-14.5L148.6,431.084A4.906,4.906,0,0,1,148.166,428.495Z"
                  transform="translate(-129.194 -424.043)" fill="#a5dbe7"
                  style="mix-blend-mode: multiply;isolation: isolate"/>
            <path id="Tracé_259" data-name="Tracé 259" d="M163.051,419.395h0Z"
                  transform="translate(-139.002 -419.387)" fill="#76706c"/>
            <path id="Tracé_260" data-name="Tracé 260"
                  d="M164.023,419.474c-.037-.005-.073-.005-.11-.01.048.006.1.009.144.016Z"
                  transform="translate(-139.443 -419.422)" fill="#76706c"/>
            <path id="Tracé_261" data-name="Tracé 261"
                  d="M128.22,454.521l2.433-16.389-7.415-15.9a4.964,4.964,0,0,0-6.578-2.394h0a4.965,4.965,0,0,0-2.394,6.579l14.227,30.5A4.864,4.864,0,0,1,128.22,454.521Z"
                  transform="translate(-113.804 -419.379)" fill="#fc6210"/>
            <path id="Tracé_262" data-name="Tracé 262"
                  d="M150.276,479.28a4.964,4.964,0,0,0,2.393-6.578l-6.959-14.921-2.433,16.389a4.864,4.864,0,0,0,.272,2.4l.147.317A4.965,4.965,0,0,0,150.276,479.28Z"
                  transform="translate(-128.86 -439.028)" fill="#fb431d"/>
            <path id="Tracé_263" data-name="Tracé 263"
                  d="M169.944,425.793a4.862,4.862,0,0,1,.305,2.478l-2.432,16.384,7.4,15.865a4.95,4.95,0,0,0,8.972-4.185Z"
                  transform="translate(-141.44 -422.661)" fill="#ac64af"/>
            <path id="Tracé_264" data-name="Tracé 264"
                  d="M164.207,419.5c.077.011.151.029.227.043C164.358,419.525,164.283,419.509,164.207,419.5Z"
                  transform="translate(-139.593 -419.439)" fill="#fff"/>
            <path id="Tracé_265" data-name="Tracé 265"
                  d="M163.13,419.4c.126,0,.254.019.382.033C163.385,419.414,163.258,419.4,163.13,419.4Z"
                  transform="translate(-139.042 -419.388)" fill="#fff"/>
            <path id="Tracé_266" data-name="Tracé 266"
                  d="M157.731,419.392a4.9,4.9,0,0,0-2.254.454,4.957,4.957,0,0,0-2.824,3.99l.03-.2A4.952,4.952,0,0,1,157.731,419.392Z"
                  transform="translate(-133.682 -419.384)" fill="#fff"/>
            <path id="Tracé_267" data-name="Tracé 267"
                  d="M162.157,422.517l-.129-.277a4.946,4.946,0,0,0-3.533-2.754c-.076-.015-.15-.032-.227-.043-.048-.007-.1-.01-.144-.016-.128-.015-.256-.028-.382-.033H157.7a4.952,4.952,0,0,0-5.047,4.246l-.03.2a4.906,4.906,0,0,0,.43,2.589l6.975,14.954,2.432-16.384A4.863,4.863,0,0,0,162.157,422.517Z"
                  transform="translate(-133.654 -419.385)" fill="#7558a8"
                  style="mix-blend-mode: multiply;isolation: isolate"/>
            <path id="Tracé_268" data-name="Tracé 268"
                  d="M207.764,437.139l-6.956-14.9a4.95,4.95,0,1,0-8.972,4.185l6.956,14.9a4.95,4.95,0,1,0,8.972-4.185Z"
                  transform="translate(-153.493 -419.379)" fill="#50b6b0"/>
        </g>
        <g id="Groupe_43" data-name="Groupe 43" transform="translate(93 -46.878)">
            <g id="Groupe_7" data-name="Groupe 7" transform="translate(95.651 485.523)">
                <g id="Groupe_6" data-name="Groupe 6">
                    <path id="Tracé_251" data-name="Tracé 251"
                          d="M127.392,515.328,120.9,535.184h-4.936l-4.369-13.446-4.51,13.446h-4.908l-6.523-19.856h4.765l4.482,13.956,4.681-13.956h4.255l4.539,14.071L123,515.328Z"
                          transform="translate(-95.651 -515.328)" fill="#2c0941"/>
                    <path id="Tracé_252" data-name="Tracé 252"
                          d="M142.552,521.72a6.46,6.46,0,0,1,1.9,5.091v8.709h-4.143v-1.9q-1.247,2.127-4.652,2.127a7.23,7.23,0,0,1-3.048-.6,4.553,4.553,0,0,1-1.971-1.646,4.285,4.285,0,0,1-.682-2.383,3.976,3.976,0,0,1,1.6-3.348,8.172,8.172,0,0,1,4.95-1.22h3.517a2.819,2.819,0,0,0-.88-2.226,3.871,3.871,0,0,0-2.637-.78,7.686,7.686,0,0,0-2.4.383,6.329,6.329,0,0,0-2,1.035l-1.589-3.092a9.589,9.589,0,0,1,2.993-1.361,13.41,13.41,0,0,1,3.588-.483A7.944,7.944,0,0,1,142.552,521.72Zm-3.773,10.523a2.877,2.877,0,0,0,1.248-1.545v-1.561h-3.035q-2.723,0-2.723,1.787a1.589,1.589,0,0,0,.666,1.347,3,3,0,0,0,1.83.5A3.847,3.847,0,0,0,138.779,532.243Z"
                          transform="translate(-98.102 -515.664)" fill="#2c0941"/>
                    <path id="Tracé_253" data-name="Tracé 253"
                          d="M164.543,520.277l-6.44,15.261h-4.567l-6.412-15.261h4.568l4.226,10.382,4.37-10.382Z"
                          transform="translate(-99.328 -515.681)" fill="#2c0941"/>
                    <path id="Tracé_254" data-name="Tracé 254"
                          d="M182.155,529.137H170.61a3.591,3.591,0,0,0,1.475,2.242,4.879,4.879,0,0,0,2.892.823,5.856,5.856,0,0,0,2.114-.355,5.115,5.115,0,0,0,1.716-1.121l2.354,2.553a7.911,7.911,0,0,1-6.3,2.468,9.953,9.953,0,0,1-4.567-1.008,7.386,7.386,0,0,1-3.064-2.794,7.7,7.7,0,0,1-1.077-4.057,7.794,7.794,0,0,1,1.064-4.041,7.443,7.443,0,0,1,2.921-2.809,9.042,9.042,0,0,1,8.212-.043,7.042,7.042,0,0,1,2.851,2.765,8.253,8.253,0,0,1,1.036,4.185Q182.242,528.032,182.155,529.137ZM171.8,524.23a3.621,3.621,0,0,0-1.247,2.326h7.516a3.663,3.663,0,0,0-1.247-2.311,3.735,3.735,0,0,0-2.5-.865A3.815,3.815,0,0,0,171.8,524.23Z"
                          transform="translate(-100.688 -515.664)" fill="#2c0941"/>
                    <path id="Tracé_255" data-name="Tracé 255"
                          d="M187.96,535.279a9.7,9.7,0,0,1-2.894-1.177l1.476-3.178a9.261,9.261,0,0,0,2.468,1.064,10.319,10.319,0,0,0,2.837.411q2.808,0,2.809-1.39a.984.984,0,0,0-.766-.936,11.33,11.33,0,0,0-2.355-.483,22.222,22.222,0,0,1-3.091-.653,4.773,4.773,0,0,1-2.114-1.3,3.71,3.71,0,0,1-.893-2.666,4.177,4.177,0,0,1,.837-2.567,5.4,5.4,0,0,1,2.44-1.745,10.438,10.438,0,0,1,3.787-.624,14.892,14.892,0,0,1,3.219.355,9.049,9.049,0,0,1,2.652.979l-1.475,3.149a8.806,8.806,0,0,0-4.4-1.135,4.487,4.487,0,0,0-2.127.4,1.172,1.172,0,0,0-.71,1.021,1.014,1.014,0,0,0,.767.994,13.518,13.518,0,0,0,2.439.539,26.284,26.284,0,0,1,3.064.667A4.625,4.625,0,0,1,198,528.287a3.664,3.664,0,0,1,.878,2.61,4.032,4.032,0,0,1-.851,2.525,5.44,5.44,0,0,1-2.482,1.716,11.053,11.053,0,0,1-3.872.61A14.831,14.831,0,0,1,187.96,535.279Z"
                          transform="translate(-102.039 -515.664)" fill="#2c0941"/>
                    <path id="Tracé_256" data-name="Tracé 256"
                          d="M205.726,534.74a7.486,7.486,0,0,1-2.994-2.794,8.177,8.177,0,0,1,0-8.113,7.5,7.5,0,0,1,2.994-2.794,9.76,9.76,0,0,1,8.637,0,7.521,7.521,0,0,1,2.979,2.794,8.177,8.177,0,0,1,0,8.113,7.512,7.512,0,0,1-2.979,2.794,9.76,9.76,0,0,1-8.637,0Zm7.119-3.773a4.881,4.881,0,0,0,0-6.156,3.689,3.689,0,0,0-2.794-1.148,3.735,3.735,0,0,0-2.808,1.148,4.837,4.837,0,0,0,0,6.156,3.73,3.73,0,0,0,2.808,1.15A3.684,3.684,0,0,0,212.845,530.968Z"
                          transform="translate(-103.224 -515.664)" fill="#2c0941"/>
                    <path id="Tracé_257" data-name="Tracé 257"
                          d="M244.412,534.541a4.523,4.523,0,0,1-1.6.723,8.144,8.144,0,0,1-2,.241,5.937,5.937,0,0,1-4.212-1.391,5.316,5.316,0,0,1-1.489-4.084v-6.27h-2.354v-3.4h2.354v-3.715h4.426v3.715h3.8v3.4h-3.8v6.212a2.083,2.083,0,0,0,.5,1.489,1.838,1.838,0,0,0,1.4.525,2.84,2.84,0,0,0,1.787-.567Z"
                          transform="translate(-105.445 -515.422)" fill="#2c0941"/>
                </g>
            </g>
            <path id="Tracé_269" data-name="Tracé 269"
                  d="M227.6,519.5q0-2.213,2.014-2.213a8.662,8.662,0,0,1,1.462.111v-3.388h0a8.152,8.152,0,0,0-1.886-.212,5.919,5.919,0,0,0-4.355,1.531,5.564,5.564,0,0,0-1.547,4.142v.68h-2.353v3.4h2.353v11.517h4.426V523.558h4.438v-3.4H227.6Z"
                  transform="translate(-8.95 -29.696)" fill="#2c0941"/>
        </g>
    </g>
</svg>