<svg version="1.1" id="Calque_1" xmlns="http://www.w3.org/2000/svg" x="0" y="0" viewBox="0 0 86 23" xml:space="preserve" enable-background="new 0 0 86 23"><style>.st1,.st3{fill-rule:evenodd;clip-rule:evenodd;fill:#fff}.st3{fill:#36383a}</style><g id="_x37_68"><g id="_x37_68-EVZ-" transform="translate(-20 -27)"><g id="components_x5F_base_x2F_header_x2F_Tablette-992" transform="translate(20 20)"><g id="Group-31" transform="translate(0 7)"><g id="Group-3" transform="translate(0 3.676)"><defs><filter id="Adobe_OpacityMaskFilter" filterUnits="userSpaceOnUse" x=".5" y="1.3" width="16.1" height="16.3"><feColorMatrix values="1 0 0 0 0 0 1 0 0 0 0 0 1 0 0 0 0 0 1 0"/></filter></defs><mask maskUnits="userSpaceOnUse" x=".5" y="1.3" width="16.1" height="16.3" id="mask-2_00000065776099422509791140000004337046049469002422_"><g filter="url(#Adobe_OpacityMaskFilter)"><path id="path-1_00000054226194939080754530000003483353358559118267_" class="st1" d="M.5 1.3h16.1v16.3H.5z"/></g></mask><path id="Fill-1" d="M10.7 8.1c-.1-1.5-1-2.3-2.2-2.3-1.1 0-1.8.9-2 2.3h4.2zM.5 9.5c0-4.7 3.3-8.3 8-8.3 5.5 0 8.1 3.9 8.1 8.6v1.1h-10c.5 1.4 1.5 2.1 2.9 2.1 1.2 0 2.1-.5 3.2-1.6l3.5 2.8c-1.5 2-3.7 3.4-7.1 3.4C4 17.6.5 14.4.5 9.5z" mask="url(#mask-2_00000065776099422509791140000004337046049469002422_)" fill-rule="evenodd" clip-rule="evenodd" fill="#36383a"/></g><path id="Fill-4" class="st3" d="M16.4 5.3h6.7l2.5 7.8 2.6-7.8h6.7L28.6 21h-5.9z"/><path id="Fill-6" class="st3" d="M45.6 13.2c0-1.6-1.1-2.8-2.6-2.8s-2.5 1.2-2.5 2.7v.1c0 1.5 1.1 2.8 2.6 2.8 1.5-.1 2.5-1.3 2.5-2.8m-11.2 0C34.4 8.7 38 5 43.2 5c5.1 0 8.7 3.7 8.7 8.1v.1c0 4.4-3.6 8.2-8.8 8.2-5.1-.1-8.7-3.8-8.7-8.2"/><defs><filter id="Adobe_OpacityMaskFilter_00000151509084964902236410000007074464173381340299_" filterUnits="userSpaceOnUse" x="53.3" y=".1" width="6.5" height="20.9"><feColorMatrix values="1 0 0 0 0 0 1 0 0 0 0 0 1 0 0 0 0 0 1 0"/></filter></defs><mask maskUnits="userSpaceOnUse" x="53.3" y=".1" width="6.5" height="20.9" id="mask-4_00000122680097013637921950000001445065513290592384_"><g filter="url(#Adobe_OpacityMaskFilter_00000151509084964902236410000007074464173381340299_)"><path id="path-3_00000055701120857571115830000003814038002135303825_" class="st1" d="M.5 22.8H85V.1H.5z"/></g></mask><path id="Fill-8" mask="url(#mask-4_00000122680097013637921950000001445065513290592384_)" fill-rule="evenodd" clip-rule="evenodd" fill="#36383a" d="M53.3 20.9h6.5V.1h-6.5z"/><defs><filter id="Adobe_OpacityMaskFilter_00000114075572675728379600000006519524763179175588_" filterUnits="userSpaceOnUse" x="61.7" y=".1" width="6.7" height="20.9"><feColorMatrix values="1 0 0 0 0 0 1 0 0 0 0 0 1 0 0 0 0 0 1 0"/></filter></defs><mask maskUnits="userSpaceOnUse" x="61.7" y=".1" width="6.7" height="20.9" id="mask-4_00000060735179368444692130000011682453739227883433_"><g filter="url(#Adobe_OpacityMaskFilter_00000114075572675728379600000006519524763179175588_)"><path id="path-3_00000175314436673775667540000005321764706965979308_" class="st1" d="M.5 22.8H85V.1H.5z"/></g></mask><path id="Fill-10" d="M61.8 20.9h6.5V5.3h-6.5v15.6zm-.1-16.7h6.7V.1h-6.7v4.1z" mask="url(#mask-4_00000060735179368444692130000011682453739227883433_)" fill-rule="evenodd" clip-rule="evenodd" fill="#36383a"/><defs><filter id="Adobe_OpacityMaskFilter_00000021083140786590149800000006980361765158606768_" filterUnits="userSpaceOnUse" x="69.7" y="5.3" width="15.3" height="15.6"><feColorMatrix values="1 0 0 0 0 0 1 0 0 0 0 0 1 0 0 0 0 0 1 0"/></filter></defs><mask maskUnits="userSpaceOnUse" x="69.7" y="5.3" width="15.3" height="15.6" id="mask-4_00000183971752926894257160000015772377823028005770_"><g filter="url(#Adobe_OpacityMaskFilter_00000021083140786590149800000006980361765158606768_)"><path id="path-3_00000026165812582865332490000011196184556582069432_" class="st1" d="M.5 22.8H85V.1H.5z"/></g></mask><path id="Fill-11" mask="url(#mask-4_00000183971752926894257160000015772377823028005770_)" fill-rule="evenodd" clip-rule="evenodd" fill="#36383a" d="M69.7 16.9l6.4-6.5H70V5.3h15v4.1l-6.3 6.4H85v5.1H69.7z"/><defs><filter id="Adobe_OpacityMaskFilter_00000127748906937487405690000006540682641247868036_" filterUnits="userSpaceOnUse" x="47.1" y="7.1" width="10.6" height="14.4"><feColorMatrix values="1 0 0 0 0 0 1 0 0 0 0 0 1 0 0 0 0 0 1 0"/></filter></defs><mask maskUnits="userSpaceOnUse" x="47.1" y="7.1" width="10.6" height="14.4" id="mask-4_00000063596237767064533930000012163598140488058033_"><g filter="url(#Adobe_OpacityMaskFilter_00000127748906937487405690000006540682641247868036_)"><path id="path-3_00000057862631518597415130000014847070493622837149_" class="st1" d="M.5 22.8H85V.1H.5z"/></g></mask><path id="Fill-12" d="M57 20.3c-.7-3.5-6.6-2.3-6.5-10.4 0-1.3-.1-1.7-.4-1.9-.1-.1.1-.5.1-.5s-.2-.4-.4-.4c-1.6 1.3-2.5 3.1-2.7 5.4-.5 4.6 3 8.7 7.7 9 .9 0 1.7 0 2.6-.3.5-.1.4-.8-.1-.9 0 0-.3.1-.3 0" mask="url(#mask-4_00000063596237767064533930000012163598140488058033_)" fill-rule="evenodd" clip-rule="evenodd" fill="#f8e940"/><defs><filter id="Adobe_OpacityMaskFilter_00000135655599289875647470000013401568582175183789_" filterUnits="userSpaceOnUse" x="46.7" y="6.9" width="11.5" height="15"><feColorMatrix values="1 0 0 0 0 0 1 0 0 0 0 0 1 0 0 0 0 0 1 0"/></filter></defs><mask maskUnits="userSpaceOnUse" x="46.7" y="6.9" width="11.5" height="15" id="mask-4_00000027577236636846390190000004142779862597030841_"><g filter="url(#Adobe_OpacityMaskFilter_00000135655599289875647470000013401568582175183789_)"><path id="path-3_00000114763304498304220570000003911653833245655968_" class="st1" d="M.5 22.8H85V.1H.5z"/></g></mask><path id="Fill-13" d="M49.9 6.9c-.1 0-.4-.1-.6.1-.2.1-.8.6-1.5 2.1-.3.7-.9 2-1 3.2-.1 1 0 2 .2 2.9.2.9.6 1.8 1.1 2.6 1 1.6 2.6 2.8 4.4 3.5.8.3 1.5.4 2.3.5.9 0 1.8 0 2.7-.3.4-.1.6-.4.6-.8s-.2-.7-.6-.9h-.2c-.4-1.2-1.4-1.9-2.5-2.6-.6-.4-1.2-.8-1.7-1.3-.7-.6-1.2-1.3-1.5-2.2-.4-1.1-.6-2.3-.6-3.9 0-.7-.1-1.3-.2-1.8-.2-.5-.5-.9-.9-1.1m-.1.5c.6.2.8 1.3.8 2.5 0 3.5 1 5.2 2.3 6.4.6.5 1.2.9 1.8 1.3 1.1.7 2.1 1.4 2.4 2.7h.3c.4.1.4.7 0 .8-.8.2-1.7.3-2.6.3-.8 0-1.5-.2-2.2-.4-3.5-1.2-5.8-4.7-5.5-8.6.3-2.2 2.1-5.2 2.7-5" mask="url(#mask-4_00000027577236636846390190000004142779862597030841_)" fill-rule="evenodd" clip-rule="evenodd" fill="#333"/><defs><filter id="Adobe_OpacityMaskFilter_00000113330100623769478600000014141729686169360557_" filterUnits="userSpaceOnUse" x="47.1" y="6.4" width="10.3" height="15"><feColorMatrix values="1 0 0 0 0 0 1 0 0 0 0 0 1 0 0 0 0 0 1 0"/></filter></defs><mask maskUnits="userSpaceOnUse" x="47.1" y="6.4" width="10.3" height="15" id="mask-4_00000145741463961596342120000005343512573594024126_"><g filter="url(#Adobe_OpacityMaskFilter_00000113330100623769478600000014141729686169360557_)"><path id="path-3_00000168083693162614089000000014479178868183945628_" class="st1" d="M.5 22.8H85V.1H.5z"/></g></mask><path id="Fill-14" d="M56.7 20.9c-.2-.1-.7-.4-1-.4-4.6-.2-7.5-4.7-7-9.3.1-1.3.5-2.4 1.1-3.4-.2-.3.8-1.1.9-1.2 0 0-.1 0-.2-.1-1.6 1.3-3.2 3.8-3.4 6-.5 4.6 3 8.7 7.7 9 .9 0 1.7 0 2.6-.3-.4.1-.5-.2-.7-.3" mask="url(#mask-4_00000145741463961596342120000005343512573594024126_)" fill-rule="evenodd" clip-rule="evenodd" fill="#f9b938"/><defs><filter id="Adobe_OpacityMaskFilter_00000060722508961386172610000010794040895623524504_" filterUnits="userSpaceOnUse" x="48.3" y="14.5" width="1.2" height="2.2"><feColorMatrix values="1 0 0 0 0 0 1 0 0 0 0 0 1 0 0 0 0 0 1 0"/></filter></defs><mask maskUnits="userSpaceOnUse" x="48.3" y="14.5" width="1.2" height="2.2" id="mask-4_00000111899156039270918680000006309227718876588933_"><g filter="url(#Adobe_OpacityMaskFilter_00000060722508961386172610000010794040895623524504_)"><path id="path-3_00000062157941143987006640000014373626584789474703_" class="st1" d="M.5 22.8H85V.1H.5z"/></g></mask><path id="Fill-16" d="M48.9 15.3c.1.5.7 1.2.5 1.3-.3.2-1.1-.4-1.1-1.2 0-.5 0-.9.3-1 .2 0 .1.5.3.9" mask="url(#mask-4_00000111899156039270918680000006309227718876588933_)" fill-rule="evenodd" clip-rule="evenodd" fill="#8a6339"/><defs><filter id="Adobe_OpacityMaskFilter_00000053513545450228508880000002670917619698826921_" filterUnits="userSpaceOnUse" x="47.6" y="9.6" width=".7" height="1.6"><feColorMatrix values="1 0 0 0 0 0 1 0 0 0 0 0 1 0 0 0 0 0 1 0"/></filter></defs><mask maskUnits="userSpaceOnUse" x="47.6" y="9.6" width=".7" height="1.6" id="mask-4_00000083087256111159935400000004122933102850691485_"><g filter="url(#Adobe_OpacityMaskFilter_00000053513545450228508880000002670917619698826921_)"><path id="path-3_00000162315955149006983700000012834664497323824317_" class="st1" d="M.5 22.8H85V.1H.5z"/></g></mask><path id="Fill-17" d="M48.1 10.2c-.1.3-.2 1-.4 1s-.1-.6.1-1.1c.2-.3.3-.6.4-.5.2 0 0 .3-.1.6" mask="url(#mask-4_00000083087256111159935400000004122933102850691485_)" fill-rule="evenodd" clip-rule="evenodd" fill="#8a6339"/><defs><filter id="Adobe_OpacityMaskFilter_00000136411987175100590810000016683463431396081079_" filterUnits="userSpaceOnUse" x="45.4" y="7.1" width="8.8" height="15.3"><feColorMatrix values="1 0 0 0 0 0 1 0 0 0 0 0 1 0 0 0 0 0 1 0"/></filter></defs><mask maskUnits="userSpaceOnUse" x="45.4" y="7.1" width="8.8" height="15.3" id="mask-4_00000070827217814854544530000016290130260185226142_"><g filter="url(#Adobe_OpacityMaskFilter_00000136411987175100590810000016683463431396081079_)"><path id="path-3_00000160899367804438129510000006848752713541541288_" class="st1" d="M.5 22.8H85V.1H.5z"/></g></mask><path id="Fill-20" d="M53.6 21.5c.2-3.5-5.9-3.8-3.8-11.7.3-1.2.3-1.7.1-2-.1-.2-.1-.6-.4-.7-1.4.9-2.9 2.4-3.6 4.3-1.6 4.4.9 9.2 5.3 10.6.8.3 1.7.4 2.5.3.5 0 .6-.7.1-.9.1.1-.2.1-.2.1" mask="url(#mask-4_00000070827217814854544530000016290130260185226142_)" fill-rule="evenodd" clip-rule="evenodd" fill="#f8e940"/><defs><filter id="Adobe_OpacityMaskFilter_00000130611345317864888300000000874923931350635937_" filterUnits="userSpaceOnUse" x="45" y="6.8" width="9.6" height="15.9"><feColorMatrix values="1 0 0 0 0 0 1 0 0 0 0 0 1 0 0 0 0 0 1 0"/></filter></defs><mask maskUnits="userSpaceOnUse" x="45" y="6.8" width="9.6" height="15.9" id="mask-4_00000136410282685223421440000007651040114575113388_"><g filter="url(#Adobe_OpacityMaskFilter_00000130611345317864888300000000874923931350635937_)"><path id="path-3_00000137823919052700076060000003822995114084232346_" class="st1" d="M.5 22.8H85V.1H.5z"/></g></mask><path id="Fill-21" d="M49.6 7.3c.1 0 .2.2.2.3.2.3.4.8 0 2.2-.4 1.5-.5 2.8-.4 3.8 0 .1.1.2.2.2s.2-.1.2-.2c-.1-1.1 0-2.3.4-3.7.4-1.5.2-2.1 0-2.5-.1-.2-.2-.4-.5-.5-.1 0-.3-.1-.6.1-1.9 1.2-3.1 2.6-3.7 4.3-.4 1.1-.5 2.3-.5 3.4.1 1.1.4 2.2.8 3.2.5 1 1.1 1.9 2 2.7.9.8 1.8 1.4 2.9 1.7.1 0 .2.1.3.1.9.3 1.8.4 2.7.4.4 0 .8-.3.9-.7.1-.4-.1-.8-.5-1-.1-1.3-.9-2.2-1.8-3.1-.4-.5-.9-.9-1.3-1.5-.1-.1-.2-.1-.3-.1-.1.1-.1.2-.1.3.4.6.9 1.1 1.3 1.5.9 1 1.8 1.9 1.7 3.2h.2c.5.2.4.8-.1.9-.8 0-1.7-.1-2.5-.3-.1 0-.2-.1-.3-.1-4.2-1.5-6.5-6.2-5-10.5.7-1.9 2-3.2 3.5-4.1h.3" mask="url(#mask-4_00000136410282685223421440000007651040114575113388_)" fill-rule="evenodd" clip-rule="evenodd" fill="#333"/><defs><filter id="Adobe_OpacityMaskFilter_00000032610104314992364330000009178915775420378245_" filterUnits="userSpaceOnUse" x="45.4" y="7.3" width="8.3" height="15.1"><feColorMatrix values="1 0 0 0 0 0 1 0 0 0 0 0 1 0 0 0 0 0 1 0"/></filter></defs><mask maskUnits="userSpaceOnUse" x="45.4" y="7.3" width="8.3" height="15.1" id="mask-4_00000087399629488590684880000015807454781500703916_"><g filter="url(#Adobe_OpacityMaskFilter_00000032610104314992364330000009178915775420378245_)"><path id="path-3_00000094585249124408073610000002292371012048705169_" class="st1" d="M.5 22.8H85V.1H.5z"/></g></mask><path id="Fill-22" d="M53.2 21.9c-.2-.2-.6-.5-.9-.6-4.4-1.3-6.2-6.4-4.6-10.7.4-1.2 1-2.2 1.8-3.1.1-.1.3 0 0-.2 0 0-2.8 1.5-3.6 4.2-1.6 4.4.9 9.2 5.3 10.6.8.3 1.7.4 2.5.3-.3 0-.4-.4-.5-.5" mask="url(#mask-4_00000087399629488590684880000015807454781500703916_)" fill-rule="evenodd" clip-rule="evenodd" fill="#f9b938"/><defs><filter id="Adobe_OpacityMaskFilter_00000177460032443267500690000000657981101155772854_" filterUnits="userSpaceOnUse" x="49.3" y="5.8" width="2.6" height="1.8"><feColorMatrix values="1 0 0 0 0 0 1 0 0 0 0 0 1 0 0 0 0 0 1 0"/></filter></defs><mask maskUnits="userSpaceOnUse" x="49.3" y="5.8" width="2.6" height="1.8" id="mask-4_00000174598978594557931370000005428686430371424444_"><g filter="url(#Adobe_OpacityMaskFilter_00000177460032443267500690000000657981101155772854_)"><path id="path-3_00000054243177306043183950000016429098799165113532_" class="st1" d="M.5 22.8H85V.1H.5z"/></g></mask><path id="Fill-28" d="M49.3 7.3s.2-.8 1.3-1.3c1.2-.5 1.4.5 1.2.9-.1.4-1.5-.5-1.9.6-.1.4-.6-.2-.6-.2" mask="url(#mask-4_00000174598978594557931370000005428686430371424444_)" fill-rule="evenodd" clip-rule="evenodd" fill="#333"/><defs><filter id="Adobe_OpacityMaskFilter_00000005967254075611898780000015406904317233913023_" filterUnits="userSpaceOnUse" x="49.6" y="14" width=".4" height=".4"><feColorMatrix values="1 0 0 0 0 0 1 0 0 0 0 0 1 0 0 0 0 0 1 0"/></filter></defs><mask maskUnits="userSpaceOnUse" x="49.6" y="14" width=".4" height=".4" id="mask-4_00000106105225785236255790000016518001651097462916_"><g filter="url(#Adobe_OpacityMaskFilter_00000005967254075611898780000015406904317233913023_)"><path id="path-3_00000117672096116279792440000012801234909723078789_" class="st1" d="M.5 22.8H85V.1H.5z"/></g></mask><path id="Fill-29" d="M50 14.3c0 .1-.2.2-.3.1-.1 0-.2-.2-.1-.3 0-.1.2-.2.3-.1.1.1.2.2.1.3" mask="url(#mask-4_00000106105225785236255790000016518001651097462916_)" fill-rule="evenodd" clip-rule="evenodd" fill="#333"/><defs><filter id="Adobe_OpacityMaskFilter_00000021832950119174882450000004022287989805961141_" filterUnits="userSpaceOnUse" x="49.8" y="14.7" width=".9" height="1.6"><feColorMatrix values="1 0 0 0 0 0 1 0 0 0 0 0 1 0 0 0 0 0 1 0"/></filter></defs><mask maskUnits="userSpaceOnUse" x="49.8" y="14.7" width=".9" height="1.6" id="mask-4_00000085243099860387451190000017674946312898641558_"><g filter="url(#Adobe_OpacityMaskFilter_00000021832950119174882450000004022287989805961141_)"><path id="path-3_00000148646294087542955990000003222622975749420433_" class="st1" d="M.5 22.8H85V.1H.5z"/></g></mask><path id="Fill-30" d="M50.5 16.3c-.1 0-.1 0-.2-.1-.2-.2-.5-1.1-.5-1.2 0-.1 0-.2.1-.3.1 0 .2 0 .3.1.1.3.3.9.4 1.1.1.1 0 .2-.1.3.1 0 .1.1 0 .1" mask="url(#mask-4_00000085243099860387451190000017674946312898641558_)" fill-rule="evenodd" clip-rule="evenodd" fill="#333"/></g></g></g></g></svg>