<svg width="1080" height="1080" viewBox="0 0 1080 1080" fill="none" xmlns="http://www.w3.org/2000/svg">
<path d="M136 283.333C136 242.832 168.832 210 209.333 210H282.667C323.168 210 356 242.832 356 283.333V796.667C356 837.168 323.168 870 282.667 870H209.333C168.832 870 136 837.168 136 796.667V283.333Z" fill="#000091"/>
<path d="M430 283.333C430 242.832 462.832 210 503.333 210H576.667C617.168 210 650 242.832 650 283.333V796.667C650 837.168 617.168 870 576.667 870H503.333C462.832 870 430 837.168 430 796.667V283.333Z" fill="white"/>
<path d="M576.667 866.333V870H503.333V866.333H576.667ZM646.333 796.667V283.333C646.333 244.857 615.143 213.667 576.667 213.667H503.333C464.857 213.667 433.667 244.858 433.667 283.333V796.667C433.667 835.143 464.857 866.333 503.333 866.333V870L501.439 869.975C462.443 868.986 431.014 837.557 430.025 798.561L430 796.667V283.333C430 243.466 461.814 211.03 501.439 210.025L503.333 210H576.667L578.561 210.025C618.186 211.03 650 243.466 650 283.333V796.667L649.975 798.561C648.986 837.557 617.557 868.986 578.561 869.975L576.667 870V866.333C615.143 866.333 646.333 835.143 646.333 796.667Z" fill="#000091"/>
<path d="M723 283.333C723 242.832 755.832 210 796.333 210H869.667C910.168 210 943 242.832 943 283.333V796.667C943 837.168 910.168 870 869.667 870H796.333C755.832 870 723 837.168 723 796.667V283.333Z" fill="#E1000F"/>
</svg>
