<svg width="2810" height="1080" viewBox="0 0 2810 1080" fill="none" xmlns="http://www.w3.org/2000/svg">
<circle cx="240" cy="840" r="75" stroke="#000091" stroke-width="50"/>
<circle cx="540" cy="840" r="75" stroke="#000091" stroke-width="50"/>
<circle cx="840" cy="840" r="75" stroke="#E1000F" stroke-width="50"/>
<circle cx="240" cy="540" r="75" stroke="#000091" stroke-width="50"/>
<circle cx="540" cy="540" r="75" stroke="white" stroke-width="50"/>
<circle cx="840" cy="540" r="75" stroke="#E1000F" stroke-width="50"/>
<circle cx="240" cy="240" r="75" stroke="#000091" stroke-width="50"/>
<circle cx="540" cy="240" r="75" stroke="#E1000F" stroke-width="50"/>
<circle cx="840" cy="240" r="75" stroke="#E1000F" stroke-width="50"/>
<line x1="240" y1="308" x2="240" y2="474" stroke="#000091" stroke-width="50"/>
<line x1="844" y1="606" x2="844" y2="772" stroke="#E1000F" stroke-width="50"/>
<line x1="475" y1="840" x2="309" y2="840" stroke="#000091" stroke-width="50"/>
<line x1="767" y1="236" x2="601" y2="236" stroke="#E1000F" stroke-width="50"/>
<path d="M1014.02 540V249.091H1084.33V482.898H1205.35V540H1014.02ZM1343.6 544.119C1320.68 544.119 1300.98 539.432 1284.51 530.057C1268.12 520.587 1255.48 507.424 1246.58 490.568C1237.77 473.617 1233.37 453.968 1233.37 431.619C1233.37 409.176 1237.77 389.527 1246.58 372.67C1255.48 355.72 1268.12 342.557 1284.51 333.182C1300.98 323.712 1320.68 318.977 1343.6 318.977C1366.51 318.977 1386.16 323.712 1402.55 333.182C1419.02 342.557 1431.67 355.72 1440.47 372.67C1449.37 389.527 1453.83 409.176 1453.83 431.619C1453.83 453.968 1449.37 473.617 1440.47 490.568C1431.67 507.424 1419.02 520.587 1402.55 530.057C1386.16 539.432 1366.51 544.119 1343.6 544.119ZM1344.02 491.705C1352.36 491.705 1359.41 489.148 1365.19 484.034C1370.97 478.92 1375.37 471.818 1378.4 462.727C1381.52 453.636 1383.09 443.125 1383.09 431.193C1383.09 419.072 1381.52 408.466 1378.4 399.375C1375.37 390.284 1370.97 383.182 1365.19 378.068C1359.41 372.955 1352.36 370.398 1344.02 370.398C1335.41 370.398 1328.12 372.955 1322.15 378.068C1316.28 383.182 1311.78 390.284 1308.65 399.375C1305.62 408.466 1304.11 419.072 1304.11 431.193C1304.11 443.125 1305.62 453.636 1308.65 462.727C1311.78 471.818 1316.28 478.92 1322.15 484.034C1328.12 489.148 1335.41 491.705 1344.02 491.705ZM1591.11 626.364C1570.37 626.364 1552.62 623.475 1537.85 617.699C1523.07 611.922 1511.47 604.015 1503.04 593.977C1494.62 583.939 1489.55 572.576 1487.85 559.886L1553.61 556.193C1554.84 560.644 1557.12 564.527 1560.43 567.841C1563.84 571.155 1568.24 573.712 1573.64 575.511C1579.13 577.311 1585.57 578.21 1592.96 578.21C1604.61 578.21 1614.22 575.369 1621.79 569.688C1629.46 564.1 1633.3 554.299 1633.3 540.284V501.932H1630.88C1628.14 508.655 1623.97 514.669 1618.38 519.972C1612.8 525.275 1605.84 529.441 1597.5 532.472C1589.27 535.502 1579.8 537.017 1569.1 537.017C1553.19 537.017 1538.6 533.324 1525.35 525.938C1512.18 518.456 1501.62 506.903 1493.67 491.278C1485.81 475.559 1481.88 455.341 1481.88 430.625C1481.88 405.152 1485.95 384.176 1494.1 367.699C1502.24 351.127 1512.89 338.864 1526.06 330.909C1539.31 322.955 1553.56 318.977 1568.81 318.977C1580.27 318.977 1590.07 320.966 1598.21 324.943C1606.45 328.826 1613.22 333.845 1618.53 340C1623.83 346.155 1627.85 352.547 1630.6 359.176H1632.59V321.818H1701.77V540.852C1701.77 559.318 1697.13 574.896 1687.85 587.585C1678.56 600.275 1665.59 609.886 1648.92 616.42C1632.26 623.049 1612.99 626.364 1591.11 626.364ZM1593.24 486.449C1601.67 486.449 1608.87 484.223 1614.83 479.773C1620.8 475.322 1625.39 468.93 1628.61 460.597C1631.83 452.263 1633.44 442.273 1633.44 430.625C1633.44 418.788 1631.83 408.608 1628.61 400.085C1625.49 391.468 1620.89 384.839 1614.83 380.199C1608.87 375.559 1601.67 373.239 1593.24 373.239C1584.63 373.239 1577.33 375.606 1571.37 380.341C1565.4 385.076 1560.86 391.752 1557.73 400.369C1554.7 408.892 1553.19 418.977 1553.19 430.625C1553.19 442.273 1554.75 452.263 1557.87 460.597C1561 468.93 1565.5 475.322 1571.37 479.773C1577.33 484.223 1584.63 486.449 1593.24 486.449ZM1746.05 540V321.818H1815.51V540H1746.05ZM1780.85 296.392C1771.1 296.392 1762.71 293.172 1755.71 286.733C1748.7 280.199 1745.2 272.339 1745.2 263.153C1745.2 254.062 1748.7 246.297 1755.71 239.858C1762.71 233.324 1771.1 230.057 1780.85 230.057C1790.7 230.057 1799.08 233.324 1805.99 239.858C1813 246.297 1816.5 254.062 1816.5 263.153C1816.5 272.339 1813 280.199 1805.99 286.733C1799.08 293.172 1790.7 296.392 1780.85 296.392ZM1961.57 544.119C1938.56 544.119 1918.81 539.384 1902.33 529.915C1885.95 520.445 1873.36 507.282 1864.55 490.426C1855.74 473.475 1851.34 453.873 1851.34 431.619C1851.34 409.271 1855.74 389.669 1864.55 372.812C1873.45 355.862 1886.09 342.652 1902.48 333.182C1918.95 323.712 1938.6 318.977 1961.42 318.977C1981.6 318.977 1999.16 322.623 2014.12 329.915C2029.18 337.206 2040.92 347.528 2049.35 360.881C2057.87 374.138 2062.37 389.716 2062.85 407.614H1997.93C1996.6 396.439 1992.82 387.68 1986.57 381.335C1980.41 374.991 1972.36 371.818 1962.42 371.818C1954.37 371.818 1947.31 374.091 1941.25 378.636C1935.19 383.087 1930.46 389.716 1927.05 398.523C1923.74 407.235 1922.08 418.03 1922.08 430.909C1922.08 443.788 1923.74 454.678 1927.05 463.58C1930.46 472.386 1935.19 479.062 1941.25 483.608C1947.31 488.059 1954.37 490.284 1962.42 490.284C1968.86 490.284 1974.54 488.911 1979.46 486.165C1984.48 483.419 1988.6 479.394 1991.82 474.091C1995.04 468.693 1997.08 462.159 1997.93 454.489H2062.85C2062.18 472.481 2057.68 488.201 2049.35 501.648C2041.11 515.095 2029.51 525.559 2014.55 533.04C1999.68 540.426 1982.02 544.119 1961.57 544.119ZM2098.39 540V321.818H2167.85V540H2098.39ZM2133.19 296.392C2123.44 296.392 2115.06 293.172 2108.05 286.733C2101.04 280.199 2097.54 272.339 2097.54 263.153C2097.54 254.062 2101.04 246.297 2108.05 239.858C2115.06 233.324 2123.44 230.057 2133.19 230.057C2143.04 230.057 2151.42 233.324 2158.34 239.858C2165.34 246.297 2168.85 254.062 2168.85 263.153C2168.85 272.339 2165.34 280.199 2158.34 286.733C2151.42 293.172 2143.04 296.392 2133.19 296.392ZM2314.05 544.119C2291.23 544.119 2271.53 539.621 2254.96 530.625C2238.48 521.534 2225.79 508.608 2216.89 491.847C2208.09 474.991 2203.68 454.962 2203.68 431.761C2203.68 409.223 2208.13 389.527 2217.04 372.67C2225.94 355.72 2238.48 342.557 2254.68 333.182C2270.87 323.712 2289.95 318.977 2311.92 318.977C2327.45 318.977 2341.66 321.392 2354.54 326.222C2367.41 331.051 2378.54 338.201 2387.92 347.67C2397.29 357.14 2404.58 368.835 2409.79 382.756C2415 396.581 2417.6 412.443 2417.6 430.341V447.67H2227.97V407.33H2352.97C2352.88 399.943 2351.13 393.362 2347.72 387.585C2344.31 381.809 2339.62 377.311 2333.65 374.091C2327.78 370.777 2321.01 369.119 2313.34 369.119C2305.58 369.119 2298.62 370.871 2292.46 374.375C2286.31 377.784 2281.43 382.472 2277.83 388.438C2274.23 394.309 2272.34 400.985 2272.15 408.466V449.517C2272.15 458.419 2273.9 466.231 2277.4 472.955C2280.91 479.583 2285.88 484.744 2292.32 488.438C2298.76 492.131 2306.43 493.977 2315.33 493.977C2321.49 493.977 2327.07 493.125 2332.09 491.42C2337.11 489.716 2341.42 487.206 2345.02 483.892C2348.62 480.578 2351.32 476.506 2353.12 471.676L2416.89 473.523C2414.24 487.822 2408.42 500.275 2399.42 510.881C2390.52 521.392 2378.83 529.583 2364.34 535.455C2349.85 541.231 2333.09 544.119 2314.05 544.119ZM2522.54 249.091V540H2453.08V249.091H2522.54Z" fill="#000091"/>
<path d="M1009.93 782V600.182H1126.41V627.792H1042.87V677.153H1118.42V704.763H1042.87V782H1009.93ZM1153.04 782V645.636H1184.21V668.364H1185.63C1188.11 660.492 1192.37 654.425 1198.41 650.164C1204.51 645.844 1211.46 643.683 1219.27 643.683C1221.05 643.683 1223.03 643.772 1225.22 643.95C1227.47 644.068 1229.33 644.275 1230.81 644.571V674.134C1229.45 673.661 1227.29 673.246 1224.33 672.891C1221.43 672.477 1218.62 672.27 1215.9 672.27C1210.04 672.27 1204.77 673.542 1200.1 676.087C1195.48 678.573 1191.84 682.036 1189.18 686.474C1186.51 690.913 1185.18 696.033 1185.18 701.833V782H1153.04ZM1288.96 784.752C1280.32 784.752 1272.54 783.213 1265.62 780.136C1258.75 776.999 1253.3 772.382 1249.28 766.286C1245.31 760.19 1243.33 752.674 1243.33 743.737C1243.33 736.042 1244.75 729.68 1247.59 724.649C1250.43 719.618 1254.31 715.594 1259.22 712.575C1264.14 709.557 1269.67 707.278 1275.82 705.739C1282.04 704.141 1288.46 702.987 1295.09 702.277C1303.08 701.448 1309.56 700.709 1314.53 700.058C1319.5 699.347 1323.11 698.282 1325.36 696.862C1327.67 695.382 1328.83 693.103 1328.83 690.026V689.493C1328.83 682.805 1326.84 677.626 1322.88 673.957C1318.91 670.287 1313.2 668.452 1305.74 668.452C1297.87 668.452 1291.63 670.169 1287.01 673.602C1282.45 677.034 1279.38 681.089 1277.78 685.764L1247.77 681.503C1250.14 673.217 1254.04 666.292 1259.49 660.729C1264.93 655.106 1271.59 650.904 1279.46 648.122C1287.34 645.281 1296.04 643.861 1305.57 643.861C1312.13 643.861 1318.67 644.63 1325.19 646.169C1331.7 647.708 1337.64 650.253 1343.03 653.804C1348.42 657.296 1352.74 662.06 1355.99 668.097C1359.31 674.134 1360.96 681.68 1360.96 690.736V782H1330.07V763.268H1329C1327.05 767.056 1324.3 770.607 1320.75 773.921C1317.25 777.176 1312.85 779.81 1307.52 781.822C1302.25 783.776 1296.07 784.752 1288.96 784.752ZM1297.31 761.137C1303.76 761.137 1309.35 759.865 1314.09 757.32C1318.82 754.715 1322.46 751.283 1325.01 747.021C1327.61 742.76 1328.91 738.114 1328.91 733.083V717.014C1327.91 717.843 1326.19 718.612 1323.76 719.322C1321.4 720.033 1318.73 720.654 1315.77 721.187C1312.82 721.719 1309.89 722.193 1306.99 722.607C1304.09 723.022 1301.57 723.377 1299.44 723.673C1294.65 724.324 1290.35 725.389 1286.57 726.869C1282.78 728.348 1279.79 730.42 1277.6 733.083C1275.41 735.687 1274.32 739.061 1274.32 743.204C1274.32 749.122 1276.48 753.591 1280.8 756.609C1285.12 759.628 1290.62 761.137 1297.31 761.137ZM1425.42 702.099V782H1393.28V645.636H1424V668.808H1425.59C1428.73 661.173 1433.73 655.106 1440.6 650.608C1447.52 646.11 1456.07 643.861 1466.25 643.861C1475.66 643.861 1483.86 645.873 1490.85 649.898C1497.89 653.922 1503.33 659.752 1507.18 667.387C1511.09 675.022 1513.01 684.285 1512.95 695.175V782H1480.81V700.146C1480.81 691.032 1478.45 683.9 1473.71 678.751C1469.04 673.602 1462.56 671.027 1454.27 671.027C1448.65 671.027 1443.65 672.27 1439.27 674.756C1434.95 677.182 1431.54 680.704 1429.06 685.32C1426.63 689.937 1425.42 695.53 1425.42 702.099ZM1605.1 784.663C1591.49 784.663 1579.8 781.674 1570.04 775.697C1560.33 769.719 1552.84 761.463 1547.58 750.928C1542.37 740.333 1539.76 728.141 1539.76 714.351C1539.76 700.501 1542.43 688.28 1547.75 677.685C1553.08 667.032 1560.6 658.746 1570.3 652.827C1580.07 646.85 1591.61 643.861 1604.93 643.861C1615.99 643.861 1625.79 645.903 1634.31 649.987C1642.89 654.011 1649.73 659.723 1654.82 667.121C1659.91 674.46 1662.81 683.042 1663.52 692.866H1632.8C1631.56 686.297 1628.6 680.822 1623.92 676.442C1619.31 672.004 1613.12 669.784 1605.37 669.784C1598.8 669.784 1593.03 671.56 1588.06 675.111C1583.09 678.603 1579.21 683.634 1576.43 690.203C1573.71 696.773 1572.34 704.644 1572.34 713.818C1572.34 723.11 1573.71 731.1 1576.43 737.788C1579.15 744.417 1582.97 749.537 1587.88 753.147C1592.85 756.698 1598.68 758.474 1605.37 758.474C1610.1 758.474 1614.34 757.586 1618.07 755.81C1621.85 753.976 1625.02 751.342 1627.56 747.909C1630.11 744.476 1631.86 740.304 1632.8 735.391H1663.52C1662.75 745.039 1659.91 753.591 1655 761.048C1650.08 768.446 1643.4 774.247 1634.93 778.449C1626.47 782.592 1616.53 784.663 1605.1 784.663ZM1750.28 784.663C1736.61 784.663 1724.8 781.822 1714.86 776.141C1704.97 770.4 1697.37 762.291 1692.04 751.815C1686.71 741.28 1684.05 728.881 1684.05 714.617C1684.05 700.59 1686.71 688.28 1692.04 677.685C1697.43 667.032 1704.94 658.746 1714.59 652.827C1724.24 646.85 1735.57 643.861 1748.59 643.861C1757 643.861 1764.93 645.222 1772.38 647.945C1779.9 650.608 1786.53 654.751 1792.27 660.374C1798.07 665.996 1802.63 673.158 1805.94 681.858C1809.26 690.499 1810.91 700.797 1810.91 712.753V722.607H1699.14V700.945H1780.11C1780.05 694.79 1778.72 689.315 1776.11 684.521C1773.51 679.668 1769.87 675.851 1765.19 673.069C1760.58 670.287 1755.19 668.896 1749.04 668.896C1742.47 668.896 1736.7 670.494 1731.72 673.69C1726.75 676.827 1722.88 680.97 1720.09 686.119C1717.37 691.209 1715.98 696.802 1715.92 702.898V721.808C1715.92 729.739 1717.37 736.545 1720.27 742.227C1723.17 747.85 1727.23 752.17 1732.43 755.189C1737.64 758.148 1743.74 759.628 1750.72 759.628C1755.4 759.628 1759.63 758.977 1763.42 757.675C1767.21 756.313 1770.49 754.331 1773.27 751.727C1776.05 749.122 1778.16 745.897 1779.58 742.05L1809.58 745.423C1807.69 753.354 1804.08 760.279 1798.75 766.197C1793.48 772.057 1786.74 776.614 1778.51 779.869C1770.28 783.065 1760.87 784.663 1750.28 784.663Z" fill="#E1000F"/>
</svg>
