<svg width="990" height="206" viewBox="0 0 990 206" fill="none" xmlns="http://www.w3.org/2000/svg">
<path d="M385.199 0.000198364V205.2H39.5992L385.199 0.000198364Z" fill="#D2DFFF"/>
<path d="M298.801 0.000198364V205.2H0.000793457L298.801 0.000198364Z" fill="#FFAF37"/>
<path d="M212.398 0.000198364V205.2H-0.0015564L212.398 0.000198364Z" fill="#7A77FF"/>
<path d="M458.842 51.5596C458.842 57.4348 458.669 62.9644 458.323 68.1484C458.15 73.1596 457.891 77.134 457.546 80.0716H458.842C462.816 74.1964 468.259 69.2716 475.171 65.2972C482.083 61.3228 490.982 59.3356 501.869 59.3356C519.149 59.3356 532.973 65.3836 543.341 77.4796C553.882 89.4028 559.152 107.288 559.152 131.134C559.152 147.032 556.733 160.337 551.894 171.051C547.229 181.764 540.576 189.8 531.936 195.156C523.296 200.513 513.274 203.192 501.869 203.192C490.982 203.192 482.083 201.204 475.171 197.23C468.259 193.256 462.816 188.504 458.842 182.974H457.027L452.362 200.6H436.032V3.60761H458.842V51.5596ZM497.981 78.2572C488.131 78.2572 480.355 80.158 474.653 83.9596C468.95 87.5884 464.89 93.2908 462.47 101.067C460.051 108.67 458.842 118.433 458.842 130.356V131.393C458.842 148.5 461.606 161.633 467.136 170.792C472.838 179.777 483.293 184.27 498.499 184.27C510.941 184.27 520.186 179.691 526.234 170.532C532.454 161.374 535.565 148.155 535.565 130.875C535.565 113.422 532.454 100.289 526.234 91.4764C520.186 82.6636 510.768 78.2572 497.981 78.2572ZM747.91 59.0764C763.635 59.0764 775.386 63.1372 783.162 71.2588C790.938 79.2076 794.826 92.1676 794.826 110.139V200.6H772.275V111.176C772.275 100.289 769.942 92.0812 765.277 86.5516C760.784 81.022 753.699 78.2572 744.022 78.2572C730.544 78.2572 720.867 82.1452 714.992 89.9212C709.29 97.6972 706.438 109.016 706.438 123.876V200.6H683.888V111.176C683.888 103.918 682.851 97.87 680.778 93.0316C678.704 88.0204 675.594 84.3052 671.446 81.886C667.299 79.4668 661.942 78.2572 655.376 78.2572C646.045 78.2572 638.701 80.2444 633.344 84.2188C627.987 88.0204 624.099 93.6364 621.68 101.067C619.434 108.497 618.31 117.656 618.31 128.542V200.6H595.501V61.6684H613.904L617.274 80.59H618.57C621.507 75.7516 625.05 71.7772 629.197 68.6668C633.517 65.3836 638.269 62.9644 643.453 61.4092C648.637 59.854 653.994 59.0764 659.523 59.0764C670.237 59.0764 679.136 60.9772 686.221 64.7788C693.478 68.5804 698.749 74.4556 702.032 82.4044H703.328C707.994 74.4556 714.301 68.5804 722.25 64.7788C730.371 60.9772 738.925 59.0764 747.91 59.0764ZM891.396 59.0764C903.319 59.0764 913.514 61.6684 921.981 66.8524C930.621 72.0364 937.188 79.3804 941.681 88.8844C946.346 98.2156 948.679 109.188 948.679 121.803V135.54H853.553C853.898 151.265 857.873 163.275 865.476 171.569C873.252 179.691 884.052 183.752 897.876 183.752C906.689 183.752 914.465 182.974 921.204 181.419C928.116 179.691 935.201 177.272 942.458 174.161V194.12C935.373 197.23 928.375 199.476 921.463 200.859C914.551 202.414 906.343 203.192 896.839 203.192C883.706 203.192 872.042 200.513 861.847 195.156C851.825 189.8 843.962 181.851 838.26 171.31C832.73 160.596 829.965 147.55 829.965 132.171C829.965 116.964 832.471 103.918 837.482 93.0316C842.666 82.1452 849.837 73.7644 858.996 67.8892C868.327 62.014 879.127 59.0764 891.396 59.0764ZM891.137 77.7388C880.25 77.7388 871.61 81.2812 865.217 88.366C858.996 95.278 855.281 104.955 854.071 117.396H924.833C924.833 109.448 923.623 102.536 921.204 96.6604C918.785 90.7852 915.069 86.206 910.058 82.9228C905.22 79.4668 898.913 77.7388 891.137 77.7388Z" fill="black"/>
</svg>
