<svg width="175" height="17" viewBox="0 0 175 17" fill="none" xmlns="http://www.w3.org/2000/svg">
<path fill-rule="evenodd" clip-rule="evenodd" d="M60.0513 10.1289C60.0513 13.257 62.3083 15.5339 65.2385 15.5339C66.862 15.5339 68.1489 14.8211 68.8814 13.5936H69.0794V15.1379H70.7227V0.585938H69.0794V6.62452H68.8814C68.1489 5.4168 66.8224 4.74365 65.2187 4.74365C62.2885 4.74365 60.0513 7.00069 60.0513 10.1289ZM69.119 10.1289C69.119 12.3265 67.5549 14.049 65.4167 14.049C63.2784 14.049 61.6945 12.3661 61.6945 10.1289C61.6945 7.93122 63.2586 6.22854 65.4167 6.22854C67.5549 6.22854 69.119 7.93122 69.119 10.1289ZM122.208 15.1379H123.852V0.585938H122.208V15.1379ZM127.086 3.23923C126.393 3.23923 125.898 2.74427 125.898 2.05132C125.898 1.37816 126.393 0.902996 127.086 0.902996C127.779 0.902996 128.254 1.37816 128.254 2.05132C128.254 2.74427 127.779 3.23923 127.086 3.23923ZM127.898 15.1382H126.255V5.1399H127.898V15.1382ZM149.527 2.05132C149.527 2.74427 150.022 3.23923 150.715 3.23923C151.408 3.23923 151.883 2.74427 151.883 2.05132C151.883 1.37816 151.408 0.902996 150.715 0.902996C150.022 0.902996 149.527 1.37816 149.527 2.05132ZM149.883 15.1382H151.527V5.1399H149.883V15.1382ZM158.771 15.5339C155.623 15.5339 153.406 13.2967 153.406 10.1289C153.406 6.98092 155.623 4.74368 158.771 4.74368C161.9 4.74368 164.137 6.98092 164.137 10.1289C164.137 13.2967 161.9 15.5339 158.771 15.5339ZM158.771 14.049C160.929 14.049 162.493 12.4057 162.493 10.1289C162.493 7.87186 160.929 6.22857 158.771 6.22857C156.593 6.22857 155.049 7.87186 155.049 10.1289C155.049 12.4057 156.593 14.049 158.771 14.049ZM167.495 15.1384H165.852V5.14009H167.495V6.50619H167.693C168.406 5.39747 169.515 4.76392 170.841 4.76392C173.376 4.76392 174.999 6.62499 174.999 9.15921V15.1384H173.356V9.15921C173.356 7.47633 172.346 6.24881 170.624 6.24881C168.941 6.24881 167.495 7.55552 167.495 9.2978V15.1384ZM146.406 15.5143C144.723 15.5143 143.654 14.3264 143.654 12.5643V6.44652H142.03V5.13981H143.654L144.03 1.91264H145.317L145.297 5.13981H147.871V6.44652H145.297V12.5049C145.297 13.4552 145.891 14.1284 146.841 14.1284C147.138 14.1284 147.653 14.0492 148.029 13.9304V15.2569C147.554 15.4153 146.9 15.5143 146.406 15.5143ZM129.797 10.1289C129.797 13.2571 131.955 15.5339 134.945 15.5339C136.608 15.5339 137.836 14.7618 138.707 13.4947H138.885V15.1379H140.528V5.13965H138.885V6.76314H138.707C137.816 5.51582 136.608 4.74368 134.945 4.74368C131.955 4.74368 129.797 7.00072 129.797 10.1289ZM138.865 10.1289C138.865 12.4057 137.301 14.049 135.163 14.049C133.005 14.049 131.441 12.3859 131.441 10.1289C131.441 7.87186 133.005 6.22857 135.163 6.22857C137.301 6.22857 138.865 7.87186 138.865 10.1289ZM118.982 3.23923C118.289 3.23923 117.794 2.74427 117.794 2.05132C117.794 1.37816 118.289 0.902996 118.982 0.902996C119.675 0.902996 120.15 1.37816 120.15 2.05132C120.15 2.74427 119.675 3.23923 118.982 3.23923ZM119.794 15.1382H118.151V5.1399H119.794V15.1382ZM106.146 10.1289C106.127 13.2571 108.324 15.5339 111.353 15.5339C113.749 15.5339 115.808 14.0094 116.263 11.891L114.64 11.6732C114.244 13.0789 112.917 14.049 111.353 14.049C109.314 14.049 107.79 12.4453 107.79 10.1289C107.77 7.83226 109.334 6.22857 111.373 6.22857C112.898 6.22857 114.264 7.19871 114.62 8.644L116.224 8.42622C115.848 6.28797 113.808 4.74368 111.353 4.74368C108.324 4.74368 106.146 7.00072 106.146 10.1289ZM103.435 3.23923C102.742 3.23923 102.247 2.74427 102.247 2.05132C102.247 1.37816 102.742 0.902996 103.435 0.902996C104.128 0.902996 104.603 1.37816 104.603 2.05132C104.603 2.74427 104.128 3.23923 103.435 3.23923ZM104.247 15.1382H102.603V5.1399H104.247V15.1382ZM84.8695 15.1379H86.5128V9.15877C86.5128 7.39669 87.5819 6.22857 89.2054 6.22857C90.7497 6.22857 91.7792 7.39669 91.7792 9.15877V15.1379H93.4225V9.15877C93.4225 7.45609 94.551 6.22857 96.1547 6.22857C97.6594 6.22857 98.7484 7.45609 98.7484 9.15877V15.1379H100.392V9.17857C100.392 6.58495 98.7088 4.76348 96.3527 4.76348C94.848 4.76348 93.6997 5.51582 93.0068 6.68394H92.8286C92.2544 5.51582 90.9675 4.74368 89.5618 4.74368C88.2551 4.74368 87.2058 5.43663 86.6514 6.46616H86.4534V5.13965H84.8695V15.1379ZM77.791 15.5339C74.643 15.5339 72.4255 13.2967 72.4255 10.1289C72.4255 6.98092 74.643 4.74368 77.791 4.74368C80.9191 4.74368 83.1564 6.98092 83.1564 10.1289C83.1564 13.2967 80.9191 15.5339 77.791 15.5339ZM77.791 14.049C79.949 14.049 81.5131 12.4057 81.5131 10.1289C81.5131 7.87186 79.949 6.22857 77.791 6.22857C75.6131 6.22857 74.0688 7.87186 74.0688 10.1289C74.0688 12.4057 75.6131 14.049 77.791 14.049ZM52.7257 15.5339C49.7361 15.5339 47.578 13.2571 47.578 10.1289C47.578 7.00072 49.7361 4.74368 52.7257 4.74368C54.3888 4.74368 55.5965 5.51582 56.4874 6.76314H56.6656V5.13965H58.3089V15.1379H56.6656V13.4947H56.4874C55.6163 14.7618 54.3888 15.5339 52.7257 15.5339ZM52.9435 14.049C55.0817 14.049 56.6458 12.4057 56.6458 10.1289C56.6458 7.87186 55.0817 6.22857 52.9435 6.22857C50.7854 6.22857 49.2213 7.87186 49.2213 10.1289C49.2213 12.3859 50.7854 14.049 52.9435 14.049ZM30.5176 15.1379H32.1609V9.15877C32.1609 7.39669 33.23 6.22857 34.8535 6.22857C36.3978 6.22857 37.4273 7.39669 37.4273 9.15877V15.1379H39.0706V9.15877C39.0706 7.45609 40.1991 6.22857 41.8028 6.22857C43.3075 6.22857 44.3964 7.45609 44.3964 9.15877V15.1379H46.0397V9.17857C46.0397 6.58495 44.3568 4.76348 42.0008 4.76348C40.4961 4.76348 39.3478 5.51582 38.6548 6.68394H38.4766C37.9025 5.51582 36.6156 4.74368 35.2098 4.74368C33.9031 4.74368 32.8538 5.43663 32.2995 6.46616H32.1015V5.13965H30.5176V15.1379Z" fill="white"/>
<g clip-path="url(#clip0_4282_48473)">
<path opacity="0.7" d="M15.5576 3.4364C19.3656 3.4364 22.4569 6.52778 22.4569 10.3358V11.769C22.4569 14.5577 20.1933 16.8212 17.4047 16.8212H8.6582V10.3349C8.6582 6.52692 11.7496 3.43555 15.5576 3.43555V3.4364Z" fill="url(#paint0_linear_4282_48473)"/>
<path d="M18.0039 16.8262H18.4751V16.7988C18.3203 16.8159 18.163 16.8262 18.0039 16.8262Z" fill="white"/>
<path d="M13.7987 12.6211C13.7987 12.48 13.8056 12.3397 13.8193 12.202H13.7987V6.90523C13.7987 3.09467 10.7099 0.00585938 6.89937 0.00585938C3.08881 0.00585938 0 3.09467 0 6.90523V11.7736C0 14.564 2.26188 16.8258 5.05224 16.8258H18.0035C15.6809 16.8258 13.7987 14.9428 13.7987 12.6211Z" fill="url(#paint1_linear_4282_48473)"/>
</g>
<defs>
<linearGradient id="paint0_linear_4282_48473" x1="15.5576" y1="3.43555" x2="7.86551" y2="22.808" gradientUnits="userSpaceOnUse">
<stop stop-color="white"/>
<stop offset="1" stop-color="white" stop-opacity="0"/>
</linearGradient>
<linearGradient id="paint1_linear_4282_48473" x1="9.00176" y1="0.00585977" x2="21.4207" y2="20.4867" gradientUnits="userSpaceOnUse">
<stop stop-color="white"/>
<stop offset="1" stop-color="white" stop-opacity="0"/>
</linearGradient>
<clipPath id="clip0_4282_48473">
<rect width="22.4571" height="16.82" fill="white"/>
</clipPath>
</defs>
</svg>
